%
M48
M72
T01C0.02362
T02C0.02559
T03C0.02756
T04C0.03248
T05C0.04000
T06C0.04331
T07C0.04700
%
T01
X515623Y53184
X511826Y53032
X508023Y52898
X509585Y59657
X502878Y57804
X501987Y65233
X477993Y58826
X467912Y58723
X424570Y55473
X424570Y59447
X424623Y63367
X437184Y166304
X453787Y165304
X459806Y171878
X476257Y165333
X527806Y254060
X514663Y238918
X496424Y227944
X488986Y227805
X488160Y237384
X488027Y241387
X487961Y245243
X514544Y224095
X496999Y218273
X472936Y219973
X461743Y228205
X461661Y232233
X461661Y236170
X472917Y232299
X425362Y225568
X425362Y221433
X425362Y217352
X413827Y188367
X438839Y183039
X451559Y191877
X456245Y190237
X466633Y188087
X484299Y194832
X488236Y194832
X492173Y194832
X462037Y201732
X453787Y214517
X413129Y252449
X425202Y260546
X457623Y134123
X447729Y82602
X437642Y105370
X502440Y100445
X495880Y95762
X508014Y91626
X517287Y80057
T02
X477778Y50851
X458684Y50851
T03
X413904Y239616
X413904Y232923
X413904Y212558
X413904Y205865
T04
X482060Y39040
X454402Y39040
T05
X526093Y209449
X526093Y219449
X526093Y199449
X526093Y189449
X526093Y179449
T06
X517405Y152960
X525279Y129338
X470161Y152960
X470161Y105716
X517405Y105716
T07
X537634Y64395
X557319Y64395
X404695Y64268
X385010Y64268
M30
