G75*
%MOIN*%
%OFA0B0*%
%FSLAX25Y25*%
%IPPOS*%
%LPD*%
%AMOC8*
5,1,8,0,0,1.08239X$1,22.5*
%
%ADD10C,0.02400*%
%ADD11C,0.00300*%
%ADD12R,0.00100X0.00100*%
%ADD13R,0.00100X0.00300*%
%ADD14R,0.00100X0.00400*%
%ADD15R,0.00100X0.00600*%
%ADD16R,0.00100X0.00800*%
%ADD17R,0.00100X0.01000*%
%ADD18R,0.00100X0.00900*%
%ADD19R,0.00100X0.01300*%
%ADD20R,0.00100X0.01200*%
%ADD21R,0.00100X0.01400*%
%ADD22R,0.00100X0.01500*%
%ADD23R,0.00100X0.01600*%
%ADD24R,0.00100X0.01700*%
%ADD25R,0.00100X0.01800*%
%ADD26R,0.00100X0.01900*%
%ADD27R,0.00100X0.02000*%
%ADD28R,0.00100X0.02100*%
%ADD29R,0.00100X0.02200*%
%ADD30R,0.00100X0.00500*%
%ADD31R,0.00100X0.00200*%
%ADD32R,0.00100X0.01100*%
%ADD33R,0.00100X0.00700*%
%ADD34R,0.00100X0.16700*%
%ADD35R,0.00100X0.16500*%
%ADD36R,0.00100X0.02300*%
%ADD37R,0.00100X0.02400*%
%ADD38R,0.00100X0.02500*%
%ADD39R,0.00100X0.07500*%
%ADD40R,0.00100X0.08800*%
%ADD41R,0.00100X0.02900*%
%ADD42R,0.00100X0.06200*%
%ADD43R,0.00100X0.08900*%
%ADD44R,0.00100X0.06600*%
%ADD45R,0.00100X0.03100*%
%ADD46R,0.00100X0.07600*%
%ADD47R,0.00100X0.08300*%
%ADD48R,0.00100X0.08500*%
%ADD49R,0.00100X0.03300*%
%ADD50R,0.00100X0.09100*%
%ADD51R,0.00100X0.09300*%
%ADD52R,0.00100X0.03500*%
%ADD53R,0.00100X0.09500*%
%ADD54R,0.00100X0.03700*%
%ADD55R,0.00100X0.09700*%
%ADD56R,0.00100X0.03900*%
%ADD57R,0.00100X0.09900*%
%ADD58R,0.00100X0.02600*%
%ADD59R,0.00100X0.02700*%
%ADD60R,0.00100X0.08700*%
%ADD61R,0.00100X0.05400*%
%ADD62R,0.00100X0.05200*%
%ADD63R,0.00100X0.05100*%
%ADD64R,0.00100X0.05000*%
%ADD65R,0.00100X0.02800*%
%ADD66R,0.00100X0.04900*%
%ADD67R,0.00100X0.04100*%
%ADD68R,0.00100X0.04000*%
%ADD69R,0.00100X0.09600*%
%ADD70R,0.00100X0.09400*%
%ADD71R,0.00100X0.09200*%
%ADD72R,0.00100X0.03800*%
%ADD73R,0.00100X0.09000*%
%ADD74R,0.00100X0.03000*%
%ADD75R,0.00100X0.08400*%
%ADD76R,0.00100X0.08100*%
%ADD77R,0.00100X0.07900*%
%ADD78R,0.00100X0.03600*%
%ADD79R,0.00100X0.07300*%
%ADD80R,0.00100X0.05900*%
%ADD81R,0.00100X0.03200*%
%ADD82R,0.00100X0.03400*%
%ADD83R,0.00100X0.04200*%
%ADD84R,0.00100X0.04300*%
%ADD85R,0.00100X0.04600*%
%ADD86R,0.00100X0.04800*%
%ADD87R,0.00100X0.04700*%
%ADD88R,0.00100X0.04400*%
%ADD89R,0.00100X0.05600*%
%ADD90R,0.00100X0.05700*%
%ADD91R,0.00100X0.05800*%
%ADD92R,0.00100X0.06100*%
%ADD93R,0.00100X0.13400*%
%ADD94R,0.00100X0.05500*%
%ADD95R,0.00100X0.12900*%
%ADD96R,0.00100X0.05300*%
%ADD97R,0.00100X0.12500*%
%ADD98R,0.00100X0.12000*%
%ADD99R,0.00100X0.11200*%
%ADD100R,0.00100X0.10200*%
%ADD101R,0.00100X0.07800*%
%ADD102R,0.00100X0.04500*%
%ADD103R,0.00100X0.06700*%
%ADD104R,0.00100X0.10600*%
%ADD105R,0.00100X0.10700*%
%ADD106R,0.00100X0.10500*%
%ADD107R,0.00100X0.10400*%
%ADD108R,0.00100X0.08000*%
%ADD109R,0.00100X0.06400*%
%ADD110R,0.00100X0.06300*%
%ADD111R,0.00100X0.06000*%
%ADD112C,0.00400*%
%ADD113C,0.00000*%
D10*
X0372094Y0046210D02*
X0372094Y0085580D01*
X0372127Y0085721D02*
X0376606Y0085721D01*
X0376626Y0085719D01*
X0376646Y0085715D01*
X0376665Y0085707D01*
X0376682Y0085696D01*
X0376697Y0085683D01*
X0376710Y0085668D01*
X0376721Y0085651D01*
X0376729Y0085632D01*
X0376733Y0085612D01*
X0376735Y0085592D01*
X0416134Y0066838D02*
X0416134Y0059313D01*
X0416134Y0054513D02*
X0416134Y0046988D01*
X0416363Y0046759D01*
X0443519Y0046053D02*
X0443551Y0046051D01*
X0443583Y0046046D01*
X0443613Y0046037D01*
X0443643Y0046025D01*
X0443671Y0046009D01*
X0443697Y0045991D01*
X0443721Y0045969D01*
X0443743Y0045945D01*
X0443761Y0045919D01*
X0443777Y0045891D01*
X0443789Y0045861D01*
X0443798Y0045831D01*
X0443803Y0045799D01*
X0443805Y0045767D01*
X0445913Y0046210D02*
X0372094Y0046210D01*
X0416134Y0066838D02*
X0418337Y0069040D01*
X0421731Y0072434D02*
X0423933Y0074637D01*
X0423933Y0083482D01*
X0423933Y0088282D02*
X0423933Y0097128D01*
X0429441Y0102635D01*
X0431389Y0102635D01*
X0432869Y0109076D01*
X0433797Y0110093D01*
X0433881Y0116528D01*
X0433943Y0121328D02*
X0434027Y0127763D01*
X0438131Y0134341D02*
X0438137Y0134507D01*
X0438140Y0134674D01*
X0438139Y0134841D01*
X0438133Y0135007D01*
X0438124Y0135174D01*
X0438111Y0135340D01*
X0438094Y0135506D01*
X0438073Y0135671D01*
X0438048Y0135836D01*
X0438019Y0136000D01*
X0437987Y0136164D01*
X0437950Y0136327D01*
X0437910Y0136488D01*
X0437866Y0136649D01*
X0437818Y0136809D01*
X0437767Y0136967D01*
X0437711Y0137125D01*
X0437652Y0137281D01*
X0437590Y0137435D01*
X0437780Y0140416D01*
X0438087Y0145206D02*
X0438277Y0148187D01*
X0438313Y0148301D01*
X0438346Y0148416D01*
X0438375Y0148532D01*
X0438400Y0148649D01*
X0438422Y0148766D01*
X0438440Y0148884D01*
X0438454Y0149003D01*
X0438464Y0149122D01*
X0438470Y0149242D01*
X0438473Y0149362D01*
X0438472Y0149481D01*
X0438467Y0149601D01*
X0438458Y0149720D01*
X0438445Y0149839D01*
X0438428Y0149957D01*
X0438408Y0150075D01*
X0438384Y0150192D01*
X0438356Y0150309D01*
X0438324Y0150424D01*
X0438289Y0150539D01*
X0438250Y0150652D01*
X0438208Y0150763D01*
X0438161Y0150874D01*
X0438112Y0150983D01*
X0438059Y0151090D01*
X0438002Y0151195D01*
X0437942Y0151299D01*
X0437879Y0151401D01*
X0437813Y0151500D01*
X0437743Y0151598D01*
X0437671Y0151693D01*
X0437595Y0151785D01*
X0437517Y0151876D01*
X0437435Y0151963D01*
X0437351Y0152048D01*
X0437264Y0152131D01*
X0437175Y0152210D01*
X0437083Y0152287D01*
X0436989Y0152360D01*
X0436892Y0152431D01*
X0436793Y0152498D01*
X0436692Y0152562D01*
X0436589Y0152623D01*
X0436484Y0152681D01*
X0436378Y0152735D01*
X0436269Y0152786D01*
X0436159Y0152833D01*
X0436048Y0152877D01*
X0435935Y0152917D01*
X0435076Y0152763D02*
X0429231Y0152718D01*
X0424432Y0152682D02*
X0418587Y0152637D01*
X0413787Y0152601D02*
X0407943Y0152556D01*
X0433788Y0128158D02*
X0433941Y0128224D01*
X0434093Y0128294D01*
X0434242Y0128367D01*
X0434390Y0128444D01*
X0434536Y0128525D01*
X0434681Y0128608D01*
X0434823Y0128695D01*
X0434963Y0128786D01*
X0435101Y0128879D01*
X0435237Y0128976D01*
X0435370Y0129076D01*
X0435501Y0129179D01*
X0435629Y0129286D01*
X0435755Y0129395D01*
X0435879Y0129507D01*
X0436000Y0129622D01*
X0436117Y0129740D01*
X0436233Y0129860D01*
X0436345Y0129983D01*
X0463297Y0127940D02*
X0463096Y0123123D01*
X0462895Y0118327D02*
X0462693Y0113510D01*
X0462492Y0108714D02*
X0462290Y0103898D01*
X0465815Y0100039D01*
X0466899Y0099291D02*
X0475731Y0099056D01*
X0487030Y0105077D02*
X0487220Y0105360D01*
X0487402Y0105647D01*
X0487577Y0105939D01*
X0487745Y0106235D01*
X0487906Y0106535D01*
X0488059Y0106839D01*
X0488205Y0107146D01*
X0488343Y0107457D01*
X0488473Y0107771D01*
X0488596Y0108089D01*
X0488711Y0108409D01*
X0488818Y0108732D01*
X0488918Y0109057D01*
X0489009Y0109385D01*
X0489092Y0109715D01*
X0489167Y0110047D01*
X0489234Y0110381D01*
X0489292Y0110716D01*
X0489343Y0111052D01*
X0489385Y0111390D01*
X0489419Y0111729D01*
X0489444Y0112068D01*
X0489462Y0112408D01*
X0489471Y0112748D01*
X0489471Y0113088D01*
X0494833Y0113205D01*
X0499632Y0113309D02*
X0504994Y0113426D01*
X0509793Y0113530D02*
X0515155Y0113647D01*
X0534496Y0115107D02*
X0534496Y0252903D01*
X0534497Y0252903D02*
X0534488Y0253617D01*
X0534463Y0254330D01*
X0534419Y0255042D01*
X0534359Y0255753D01*
X0534282Y0256462D01*
X0534187Y0257169D01*
X0534076Y0257874D01*
X0533947Y0258576D01*
X0533801Y0259275D01*
X0533639Y0259970D01*
X0533460Y0260660D01*
X0533264Y0261346D01*
X0533052Y0262028D01*
X0532823Y0262704D01*
X0532578Y0263374D01*
X0532317Y0264038D01*
X0532040Y0264695D01*
X0531747Y0265346D01*
X0531439Y0265990D01*
X0531115Y0266625D01*
X0530776Y0267253D01*
X0530421Y0267873D01*
X0530052Y0268483D01*
X0529668Y0269085D01*
X0529270Y0269677D01*
X0528858Y0270259D01*
X0528431Y0270831D01*
X0527991Y0271393D01*
X0527538Y0271944D01*
X0527071Y0272484D01*
X0526591Y0273012D01*
X0526099Y0273529D01*
X0525595Y0274033D01*
X0525078Y0274525D01*
X0524550Y0275005D01*
X0524010Y0275472D01*
X0523459Y0275925D01*
X0522897Y0276365D01*
X0522325Y0276792D01*
X0521743Y0277204D01*
X0521151Y0277602D01*
X0520549Y0277986D01*
X0519939Y0278355D01*
X0519319Y0278710D01*
X0518691Y0279049D01*
X0518056Y0279373D01*
X0517412Y0279681D01*
X0516761Y0279974D01*
X0516104Y0280251D01*
X0515440Y0280512D01*
X0514770Y0280757D01*
X0514094Y0280986D01*
X0513412Y0281198D01*
X0512726Y0281394D01*
X0512036Y0281573D01*
X0511341Y0281735D01*
X0510642Y0281881D01*
X0509940Y0282010D01*
X0509235Y0282121D01*
X0508528Y0282216D01*
X0507819Y0282293D01*
X0507108Y0282353D01*
X0506396Y0282397D01*
X0505683Y0282422D01*
X0504969Y0282431D01*
X0504969Y0282430D02*
X0445913Y0282430D01*
X0444962Y0282419D01*
X0444011Y0282384D01*
X0443061Y0282327D01*
X0442113Y0282246D01*
X0441167Y0282143D01*
X0440224Y0282017D01*
X0439285Y0281868D01*
X0438349Y0281697D01*
X0437418Y0281502D01*
X0436491Y0281286D01*
X0435570Y0281047D01*
X0434655Y0280786D01*
X0433747Y0280503D01*
X0432846Y0280198D01*
X0431952Y0279872D01*
X0431067Y0279523D01*
X0430190Y0279154D01*
X0429322Y0278764D01*
X0428465Y0278352D01*
X0427617Y0277920D01*
X0426780Y0277468D01*
X0425954Y0276996D01*
X0425140Y0276504D01*
X0424338Y0275992D01*
X0423548Y0275461D01*
X0422772Y0274911D01*
X0422009Y0274343D01*
X0421260Y0273756D01*
X0420526Y0273151D01*
X0419806Y0272529D01*
X0419101Y0271889D01*
X0418413Y0271233D01*
X0417740Y0270560D01*
X0417084Y0269872D01*
X0416444Y0269167D01*
X0415822Y0268447D01*
X0415217Y0267713D01*
X0414630Y0266964D01*
X0414062Y0266201D01*
X0413512Y0265425D01*
X0412981Y0264635D01*
X0412469Y0263833D01*
X0411977Y0263019D01*
X0411505Y0262193D01*
X0411053Y0261356D01*
X0410621Y0260508D01*
X0410209Y0259651D01*
X0409819Y0258783D01*
X0409450Y0257906D01*
X0409101Y0257021D01*
X0408775Y0256127D01*
X0408470Y0255226D01*
X0408187Y0254318D01*
X0407926Y0253403D01*
X0407687Y0252482D01*
X0407471Y0251555D01*
X0407276Y0250624D01*
X0407105Y0249688D01*
X0406956Y0248749D01*
X0406830Y0247806D01*
X0406727Y0246860D01*
X0406646Y0245912D01*
X0406589Y0244962D01*
X0406554Y0244011D01*
X0406543Y0243060D01*
X0406543Y0115107D01*
X0406544Y0115107D02*
X0406535Y0114393D01*
X0406510Y0113680D01*
X0406466Y0112968D01*
X0406406Y0112257D01*
X0406329Y0111548D01*
X0406234Y0110841D01*
X0406123Y0110136D01*
X0405994Y0109434D01*
X0405848Y0108735D01*
X0405686Y0108040D01*
X0405507Y0107350D01*
X0405311Y0106664D01*
X0405099Y0105982D01*
X0404870Y0105306D01*
X0404625Y0104636D01*
X0404364Y0103972D01*
X0404087Y0103315D01*
X0403794Y0102664D01*
X0403486Y0102020D01*
X0403162Y0101385D01*
X0402823Y0100757D01*
X0402468Y0100137D01*
X0402099Y0099527D01*
X0401715Y0098925D01*
X0401317Y0098333D01*
X0400905Y0097751D01*
X0400478Y0097179D01*
X0400038Y0096617D01*
X0399585Y0096066D01*
X0399118Y0095526D01*
X0398638Y0094998D01*
X0398146Y0094481D01*
X0397642Y0093977D01*
X0397125Y0093485D01*
X0396597Y0093005D01*
X0396057Y0092538D01*
X0395506Y0092085D01*
X0394944Y0091645D01*
X0394372Y0091218D01*
X0393790Y0090806D01*
X0393198Y0090408D01*
X0392596Y0090024D01*
X0391986Y0089655D01*
X0391366Y0089300D01*
X0390738Y0088961D01*
X0390103Y0088637D01*
X0389459Y0088329D01*
X0388808Y0088036D01*
X0388151Y0087759D01*
X0387487Y0087498D01*
X0386817Y0087253D01*
X0386141Y0087024D01*
X0385459Y0086812D01*
X0384773Y0086616D01*
X0384083Y0086437D01*
X0383388Y0086275D01*
X0382689Y0086129D01*
X0381987Y0086000D01*
X0381282Y0085889D01*
X0380575Y0085794D01*
X0379866Y0085717D01*
X0379155Y0085657D01*
X0378443Y0085613D01*
X0377730Y0085588D01*
X0377016Y0085579D01*
X0445913Y0046210D02*
X0445913Y0036367D01*
X0445914Y0036367D02*
X0445916Y0036229D01*
X0445922Y0036091D01*
X0445931Y0035953D01*
X0445945Y0035816D01*
X0445962Y0035679D01*
X0445984Y0035543D01*
X0446009Y0035407D01*
X0446037Y0035272D01*
X0446070Y0035138D01*
X0446106Y0035005D01*
X0446146Y0034873D01*
X0446190Y0034742D01*
X0446238Y0034612D01*
X0446289Y0034484D01*
X0446343Y0034357D01*
X0446401Y0034232D01*
X0446463Y0034108D01*
X0446528Y0033987D01*
X0446596Y0033867D01*
X0446668Y0033749D01*
X0446743Y0033633D01*
X0446822Y0033519D01*
X0446903Y0033408D01*
X0446988Y0033299D01*
X0447075Y0033192D01*
X0447166Y0033088D01*
X0447259Y0032986D01*
X0447355Y0032887D01*
X0447454Y0032791D01*
X0447556Y0032698D01*
X0447660Y0032607D01*
X0447767Y0032520D01*
X0447876Y0032435D01*
X0447987Y0032354D01*
X0448101Y0032275D01*
X0448217Y0032200D01*
X0448335Y0032128D01*
X0448455Y0032060D01*
X0448576Y0031995D01*
X0448700Y0031933D01*
X0448825Y0031875D01*
X0448952Y0031821D01*
X0449080Y0031770D01*
X0449210Y0031722D01*
X0449341Y0031678D01*
X0449473Y0031638D01*
X0449606Y0031602D01*
X0449740Y0031569D01*
X0449875Y0031541D01*
X0450011Y0031516D01*
X0450147Y0031494D01*
X0450284Y0031477D01*
X0450421Y0031463D01*
X0450559Y0031454D01*
X0450697Y0031448D01*
X0450835Y0031446D01*
X0485283Y0031446D01*
X0485421Y0031448D01*
X0485559Y0031454D01*
X0485697Y0031463D01*
X0485834Y0031477D01*
X0485971Y0031494D01*
X0486107Y0031516D01*
X0486243Y0031541D01*
X0486378Y0031569D01*
X0486512Y0031602D01*
X0486645Y0031638D01*
X0486777Y0031678D01*
X0486908Y0031722D01*
X0487038Y0031770D01*
X0487166Y0031821D01*
X0487293Y0031875D01*
X0487418Y0031933D01*
X0487542Y0031995D01*
X0487663Y0032060D01*
X0487783Y0032128D01*
X0487901Y0032200D01*
X0488017Y0032275D01*
X0488131Y0032354D01*
X0488242Y0032435D01*
X0488351Y0032520D01*
X0488458Y0032607D01*
X0488562Y0032698D01*
X0488664Y0032791D01*
X0488763Y0032887D01*
X0488859Y0032986D01*
X0488952Y0033088D01*
X0489043Y0033192D01*
X0489130Y0033299D01*
X0489215Y0033408D01*
X0489296Y0033519D01*
X0489375Y0033633D01*
X0489450Y0033749D01*
X0489522Y0033867D01*
X0489590Y0033987D01*
X0489655Y0034108D01*
X0489717Y0034232D01*
X0489775Y0034357D01*
X0489829Y0034484D01*
X0489880Y0034612D01*
X0489928Y0034742D01*
X0489972Y0034873D01*
X0490012Y0035005D01*
X0490048Y0035138D01*
X0490081Y0035272D01*
X0490109Y0035407D01*
X0490134Y0035543D01*
X0490156Y0035679D01*
X0490173Y0035816D01*
X0490187Y0035953D01*
X0490196Y0036091D01*
X0490202Y0036229D01*
X0490204Y0036367D01*
X0490205Y0036367D02*
X0490205Y0046210D01*
X0568945Y0046210D01*
X0568945Y0085580D01*
X0568819Y0085696D02*
X0563694Y0085696D01*
X0563679Y0085695D01*
X0563664Y0085690D01*
X0563651Y0085683D01*
X0563639Y0085673D01*
X0563629Y0085661D01*
X0563622Y0085648D01*
X0563617Y0085633D01*
X0563616Y0085618D01*
X0526748Y0087961D02*
X0526675Y0081291D01*
X0526623Y0076492D02*
X0526550Y0069822D01*
X0526498Y0065022D02*
X0526425Y0058353D01*
X0526373Y0053553D02*
X0526300Y0046884D01*
X0526800Y0092760D02*
X0526873Y0099430D01*
X0526873Y0099429D02*
X0526830Y0099420D01*
X0526786Y0099414D01*
X0526742Y0099412D01*
X0526698Y0099414D01*
X0526654Y0099420D01*
X0526611Y0099429D01*
X0526569Y0099442D01*
X0526528Y0099459D01*
X0526489Y0099480D01*
X0526452Y0099503D01*
X0526417Y0099530D01*
X0526384Y0099560D01*
X0526355Y0099593D01*
X0526328Y0099628D01*
X0526304Y0099665D01*
X0526284Y0099704D01*
X0526267Y0099745D01*
X0526253Y0099787D01*
X0526784Y0100523D02*
X0526799Y0100816D01*
X0526806Y0101110D01*
X0526806Y0101403D01*
X0526800Y0101697D01*
X0526786Y0101990D01*
X0526766Y0102283D01*
X0526738Y0102575D01*
X0526704Y0102866D01*
X0526663Y0103157D01*
X0526614Y0103446D01*
X0526560Y0103735D01*
X0526498Y0104022D01*
X0526429Y0104307D01*
X0526354Y0104591D01*
X0526272Y0104873D01*
X0526183Y0105153D01*
X0526088Y0105430D01*
X0525986Y0105705D01*
X0525878Y0105978D01*
X0525764Y0106249D01*
X0525643Y0106516D01*
X0525515Y0106780D01*
X0525382Y0107042D01*
X0525242Y0107300D01*
X0525096Y0107555D01*
X0521933Y0111125D02*
X0521697Y0111300D01*
X0521458Y0111470D01*
X0521214Y0111634D01*
X0520967Y0111792D01*
X0520716Y0111944D01*
X0520462Y0112091D01*
X0520204Y0112231D01*
X0519943Y0112365D01*
X0519679Y0112493D01*
X0519412Y0112615D01*
X0519142Y0112730D01*
X0518869Y0112839D01*
X0518594Y0112941D01*
X0518317Y0113037D01*
X0518037Y0113126D01*
X0517755Y0113209D01*
X0517472Y0113285D01*
X0517186Y0113354D01*
X0516900Y0113416D01*
X0516611Y0113472D01*
X0516322Y0113520D01*
X0516031Y0113562D01*
X0515740Y0113597D01*
X0515448Y0113625D01*
X0515155Y0113646D01*
X0483689Y0101665D02*
X0483410Y0101470D01*
X0483127Y0101281D01*
X0482839Y0101100D01*
X0482546Y0100926D01*
X0482250Y0100759D01*
X0481949Y0100599D01*
X0481645Y0100447D01*
X0481337Y0100302D01*
X0481026Y0100165D01*
X0480711Y0100036D01*
X0480393Y0099914D01*
X0480073Y0099800D01*
X0479749Y0099694D01*
X0479423Y0099596D01*
X0479095Y0099506D01*
X0478765Y0099424D01*
X0478433Y0099350D01*
X0478099Y0099284D01*
X0477764Y0099227D01*
X0477427Y0099178D01*
X0477089Y0099137D01*
X0476751Y0099104D01*
X0476411Y0099080D01*
X0476071Y0099064D01*
X0475731Y0099056D01*
X0463498Y0132735D02*
X0463700Y0137552D01*
X0463630Y0137745D02*
X0463630Y0145188D01*
X0463630Y0149988D02*
X0463630Y0157430D01*
X0463629Y0157430D02*
X0463623Y0157526D01*
X0463621Y0157621D01*
X0463623Y0157717D01*
X0463628Y0157812D01*
X0463638Y0157907D01*
X0463651Y0158001D01*
X0463668Y0158095D01*
X0463688Y0158189D01*
X0463713Y0158281D01*
X0463741Y0158372D01*
X0463773Y0158462D01*
X0463808Y0158551D01*
X0463847Y0158638D01*
X0463890Y0158723D01*
X0463936Y0158807D01*
X0463985Y0158889D01*
X0464037Y0158968D01*
X0464093Y0159046D01*
X0464151Y0159121D01*
X0464213Y0159194D01*
X0464278Y0159265D01*
X0464345Y0159332D01*
X0464415Y0159397D01*
X0464488Y0159459D01*
X0464563Y0159518D01*
X0464640Y0159574D01*
X0464719Y0159627D01*
X0464801Y0159677D01*
X0464884Y0159723D01*
X0464970Y0159766D01*
X0465057Y0159805D01*
X0465145Y0159841D01*
X0465235Y0159873D01*
X0465326Y0159902D01*
X0465418Y0159927D01*
X0465511Y0159948D01*
X0465605Y0159965D01*
X0465700Y0159979D01*
X0465794Y0159989D01*
X0465795Y0159988D02*
X0469104Y0160011D01*
X0473904Y0160044D02*
X0477213Y0160067D01*
X0477323Y0160025D01*
X0477432Y0159980D01*
X0477539Y0159931D01*
X0477644Y0159879D01*
X0477748Y0159823D01*
X0477850Y0159764D01*
X0477950Y0159701D01*
X0478047Y0159636D01*
X0478143Y0159567D01*
X0478236Y0159495D01*
X0478327Y0159420D01*
X0478415Y0159342D01*
X0478501Y0159262D01*
X0478584Y0159178D01*
X0478665Y0159092D01*
X0478742Y0159003D01*
X0478816Y0158912D01*
X0478888Y0158819D01*
X0478956Y0158723D01*
X0479021Y0158625D01*
X0479083Y0158525D01*
X0479142Y0158422D01*
X0479197Y0158319D01*
X0479249Y0158213D01*
X0479297Y0158105D01*
X0479342Y0157997D01*
X0479383Y0157886D01*
X0479421Y0157775D01*
X0479455Y0157662D01*
X0479485Y0157548D01*
X0479512Y0157433D01*
X0479534Y0157318D01*
X0479553Y0157202D01*
X0479568Y0157085D01*
X0479580Y0156968D01*
X0479587Y0156850D01*
X0479591Y0156733D01*
X0479590Y0156615D01*
X0479586Y0156497D01*
X0479578Y0156380D01*
X0479566Y0156262D01*
X0479551Y0156146D01*
X0479531Y0156030D01*
X0479508Y0155914D01*
X0479481Y0155800D01*
X0479450Y0155686D01*
X0479416Y0155573D01*
X0479378Y0155462D01*
X0479377Y0155462D02*
X0479380Y0155230D01*
X0479388Y0154999D01*
X0479402Y0154767D01*
X0479421Y0154536D01*
X0479445Y0154306D01*
X0479475Y0154076D01*
X0479510Y0153847D01*
X0479551Y0153619D01*
X0479597Y0153392D01*
X0479649Y0153166D01*
X0479705Y0152941D01*
X0479767Y0152718D01*
X0479835Y0152496D01*
X0479907Y0152276D01*
X0479985Y0152057D01*
X0480067Y0151841D01*
X0480155Y0151626D01*
X0480248Y0151414D01*
X0480346Y0151204D01*
X0480448Y0150996D01*
X0480556Y0150791D01*
X0480668Y0150588D01*
X0480785Y0150388D01*
X0484146Y0147027D02*
X0484346Y0146910D01*
X0484549Y0146798D01*
X0484754Y0146690D01*
X0484962Y0146588D01*
X0485172Y0146490D01*
X0485384Y0146397D01*
X0485599Y0146309D01*
X0485815Y0146227D01*
X0486034Y0146149D01*
X0486254Y0146077D01*
X0486476Y0146009D01*
X0486699Y0145947D01*
X0486924Y0145891D01*
X0487150Y0145839D01*
X0487377Y0145793D01*
X0487605Y0145752D01*
X0487834Y0145717D01*
X0488064Y0145687D01*
X0488294Y0145663D01*
X0488525Y0145644D01*
X0488757Y0145630D01*
X0488988Y0145622D01*
X0489220Y0145619D01*
X0489782Y0145673D02*
X0494773Y0145673D01*
X0499573Y0145673D02*
X0504565Y0145673D01*
X0509365Y0145673D02*
X0514356Y0145673D01*
X0519156Y0145673D02*
X0524147Y0145673D01*
X0528947Y0145673D02*
X0533938Y0145673D01*
X0534496Y0115107D02*
X0534505Y0114393D01*
X0534530Y0113680D01*
X0534574Y0112968D01*
X0534634Y0112257D01*
X0534711Y0111548D01*
X0534806Y0110841D01*
X0534917Y0110136D01*
X0535046Y0109434D01*
X0535192Y0108735D01*
X0535354Y0108040D01*
X0535533Y0107350D01*
X0535729Y0106664D01*
X0535941Y0105982D01*
X0536170Y0105306D01*
X0536415Y0104636D01*
X0536676Y0103972D01*
X0536953Y0103315D01*
X0537246Y0102664D01*
X0537554Y0102020D01*
X0537878Y0101385D01*
X0538217Y0100757D01*
X0538572Y0100137D01*
X0538941Y0099527D01*
X0539325Y0098925D01*
X0539723Y0098333D01*
X0540135Y0097751D01*
X0540562Y0097179D01*
X0541002Y0096617D01*
X0541455Y0096066D01*
X0541922Y0095526D01*
X0542402Y0094998D01*
X0542894Y0094481D01*
X0543398Y0093977D01*
X0543915Y0093485D01*
X0544443Y0093005D01*
X0544983Y0092538D01*
X0545534Y0092085D01*
X0546096Y0091645D01*
X0546668Y0091218D01*
X0547250Y0090806D01*
X0547842Y0090408D01*
X0548444Y0090024D01*
X0549054Y0089655D01*
X0549674Y0089300D01*
X0550302Y0088961D01*
X0550937Y0088637D01*
X0551581Y0088329D01*
X0552232Y0088036D01*
X0552889Y0087759D01*
X0553553Y0087498D01*
X0554223Y0087253D01*
X0554899Y0087024D01*
X0555581Y0086812D01*
X0556267Y0086616D01*
X0556957Y0086437D01*
X0557652Y0086275D01*
X0558351Y0086129D01*
X0559053Y0086000D01*
X0559758Y0085889D01*
X0560465Y0085794D01*
X0561174Y0085717D01*
X0561885Y0085657D01*
X0562597Y0085613D01*
X0563310Y0085588D01*
X0564024Y0085579D01*
D11*
X0563950Y0055583D02*
X0563950Y0051880D01*
X0562098Y0051880D01*
X0561481Y0052497D01*
X0561481Y0053731D01*
X0562098Y0054349D01*
X0563950Y0054349D01*
X0560267Y0053731D02*
X0559649Y0054349D01*
X0558415Y0054349D01*
X0557798Y0053731D01*
X0557798Y0053114D01*
X0560267Y0053114D01*
X0560267Y0052497D02*
X0560267Y0053731D01*
X0560267Y0052497D02*
X0559649Y0051880D01*
X0558415Y0051880D01*
X0556584Y0051880D02*
X0555349Y0051880D01*
X0555966Y0051880D02*
X0555966Y0055583D01*
X0556584Y0055583D01*
X0554128Y0055583D02*
X0553511Y0055583D01*
X0553511Y0051880D01*
X0554128Y0051880D02*
X0552894Y0051880D01*
X0547990Y0051880D02*
X0547990Y0054349D01*
X0547990Y0053114D02*
X0546755Y0054349D01*
X0546138Y0054349D01*
X0544920Y0053731D02*
X0544303Y0054349D01*
X0543069Y0054349D01*
X0542451Y0053731D01*
X0542451Y0053114D01*
X0544920Y0053114D01*
X0544920Y0052497D02*
X0544920Y0053731D01*
X0544920Y0052497D02*
X0544303Y0051880D01*
X0543069Y0051880D01*
X0541237Y0051880D02*
X0540003Y0051880D01*
X0540620Y0051880D02*
X0540620Y0055583D01*
X0541237Y0055583D01*
X0538164Y0054349D02*
X0536930Y0054349D01*
X0536313Y0053731D01*
X0536313Y0051880D01*
X0538164Y0051880D01*
X0538782Y0052497D01*
X0538164Y0053114D01*
X0536313Y0053114D01*
X0535099Y0052497D02*
X0534481Y0051880D01*
X0532630Y0051880D01*
X0532630Y0051263D02*
X0533247Y0050645D01*
X0533864Y0050645D01*
X0532630Y0051263D02*
X0532630Y0054349D01*
X0535099Y0054349D02*
X0535099Y0052497D01*
X0409226Y0052765D02*
X0407374Y0052765D01*
X0406757Y0052148D01*
X0406757Y0050914D01*
X0407374Y0050296D01*
X0409226Y0050296D01*
X0409226Y0054000D01*
X0405543Y0052148D02*
X0405543Y0050914D01*
X0404925Y0050296D01*
X0403691Y0050296D01*
X0403074Y0051531D02*
X0405543Y0051531D01*
X0405543Y0052148D02*
X0404925Y0052765D01*
X0403691Y0052765D01*
X0403074Y0052148D01*
X0403074Y0051531D01*
X0401859Y0050296D02*
X0400625Y0050296D01*
X0401242Y0050296D02*
X0401242Y0054000D01*
X0401859Y0054000D01*
X0399404Y0054000D02*
X0398787Y0054000D01*
X0398787Y0050296D01*
X0399404Y0050296D02*
X0398170Y0050296D01*
X0393265Y0050296D02*
X0391414Y0050296D01*
X0390797Y0050914D01*
X0391414Y0051531D01*
X0392648Y0051531D01*
X0393265Y0052148D01*
X0392648Y0052765D01*
X0390797Y0052765D01*
X0389582Y0052765D02*
X0388965Y0052765D01*
X0388965Y0050296D01*
X0389582Y0050296D02*
X0388348Y0050296D01*
X0387127Y0050914D02*
X0386510Y0050296D01*
X0384658Y0050296D01*
X0384658Y0049679D02*
X0384658Y0052765D01*
X0386510Y0052765D01*
X0387127Y0052148D01*
X0387127Y0050914D01*
X0385893Y0049062D02*
X0385275Y0049062D01*
X0384658Y0049679D01*
X0383444Y0050296D02*
X0383444Y0052765D01*
X0381592Y0052765D01*
X0380975Y0052148D01*
X0380975Y0050296D01*
X0379761Y0050914D02*
X0379143Y0051531D01*
X0377292Y0051531D01*
X0377292Y0052148D02*
X0377292Y0050296D01*
X0379143Y0050296D01*
X0379761Y0050914D01*
X0379143Y0052765D02*
X0377909Y0052765D01*
X0377292Y0052148D01*
X0376077Y0054000D02*
X0375460Y0054000D01*
X0375460Y0050296D01*
X0376077Y0050296D02*
X0374843Y0050296D01*
X0388965Y0054000D02*
X0388965Y0054617D01*
X0379697Y0077841D02*
X0379697Y0080310D01*
X0380931Y0079076D02*
X0378462Y0079076D01*
X0409191Y0080841D02*
X0411659Y0080841D01*
X0509472Y0177194D02*
X0509472Y0179663D01*
X0510089Y0180280D01*
X0511940Y0180280D01*
X0511940Y0176577D01*
X0510089Y0176577D01*
X0509472Y0177194D01*
X0513155Y0176577D02*
X0513155Y0180280D01*
X0515624Y0180280D02*
X0513155Y0176577D01*
X0515624Y0176577D02*
X0515624Y0180280D01*
X0516838Y0179663D02*
X0517455Y0180280D01*
X0518690Y0180280D01*
X0519307Y0179663D01*
X0519307Y0177194D01*
X0518690Y0176577D01*
X0517455Y0176577D01*
X0516838Y0177194D01*
X0516838Y0178428D01*
X0518072Y0178428D01*
X0517516Y0187383D02*
X0516281Y0188617D01*
X0516281Y0191086D01*
X0515067Y0190469D02*
X0515067Y0188000D01*
X0514450Y0187383D01*
X0513215Y0187383D01*
X0512598Y0188000D01*
X0511384Y0188000D02*
X0511384Y0190469D01*
X0510766Y0191086D01*
X0509532Y0191086D01*
X0508915Y0190469D01*
X0508915Y0188000D02*
X0509532Y0187383D01*
X0510766Y0187383D01*
X0511384Y0188000D01*
X0512598Y0190469D02*
X0513215Y0191086D01*
X0514450Y0191086D01*
X0515067Y0190469D01*
X0518750Y0191086D02*
X0518750Y0188617D01*
X0517516Y0187383D01*
X0518133Y0197743D02*
X0516898Y0197743D01*
X0516281Y0198360D01*
X0516281Y0199595D01*
X0517516Y0199595D01*
X0518750Y0200829D02*
X0518750Y0198360D01*
X0518133Y0197743D01*
X0515067Y0197743D02*
X0515067Y0201446D01*
X0513215Y0201446D01*
X0512598Y0200829D01*
X0512598Y0199595D01*
X0513215Y0198977D01*
X0515067Y0198977D01*
X0516281Y0200829D02*
X0516898Y0201446D01*
X0518133Y0201446D01*
X0518750Y0200829D01*
X0511384Y0201446D02*
X0510149Y0201446D01*
X0510766Y0201446D02*
X0510766Y0197743D01*
X0510149Y0197743D02*
X0511384Y0197743D01*
X0508928Y0198360D02*
X0508311Y0197743D01*
X0507077Y0197743D01*
X0506459Y0198360D01*
X0506459Y0200829D01*
X0507077Y0201446D01*
X0508311Y0201446D01*
X0508928Y0200829D01*
X0508928Y0198360D01*
X0501562Y0198360D02*
X0499093Y0200829D01*
X0499093Y0198360D01*
X0499710Y0197743D01*
X0500945Y0197743D01*
X0501562Y0198360D01*
X0501562Y0200829D01*
X0500945Y0201446D01*
X0499710Y0201446D01*
X0499093Y0200829D01*
X0497879Y0200829D02*
X0497262Y0201446D01*
X0496027Y0201446D01*
X0495410Y0200829D01*
X0495410Y0200212D01*
X0497879Y0197743D01*
X0495410Y0197743D01*
X0495873Y0208043D02*
X0495873Y0211746D01*
X0497724Y0209895D01*
X0495256Y0209895D01*
X0498939Y0211129D02*
X0501407Y0208660D01*
X0500790Y0208043D01*
X0499556Y0208043D01*
X0498939Y0208660D01*
X0498939Y0211129D01*
X0499556Y0211746D01*
X0500790Y0211746D01*
X0501407Y0211129D01*
X0501407Y0208660D01*
X0506305Y0208660D02*
X0506305Y0211129D01*
X0506922Y0211746D01*
X0508157Y0211746D01*
X0508774Y0211129D01*
X0508774Y0208660D01*
X0508157Y0208043D01*
X0506922Y0208043D01*
X0506305Y0208660D01*
X0509995Y0208043D02*
X0511229Y0208043D01*
X0510612Y0208043D02*
X0510612Y0211746D01*
X0511229Y0211746D02*
X0509995Y0211746D01*
X0512444Y0211129D02*
X0512444Y0209895D01*
X0513061Y0209277D01*
X0514912Y0209277D01*
X0514912Y0208043D02*
X0514912Y0211746D01*
X0513061Y0211746D01*
X0512444Y0211129D01*
X0516127Y0211129D02*
X0516744Y0211746D01*
X0517978Y0211746D01*
X0518595Y0211129D01*
X0518595Y0208660D01*
X0517978Y0208043D01*
X0516744Y0208043D01*
X0516127Y0208660D01*
X0516127Y0209895D01*
X0517361Y0209895D01*
X0516967Y0217512D02*
X0516349Y0218129D01*
X0516349Y0219364D01*
X0517584Y0219364D01*
X0518818Y0220598D02*
X0518818Y0218129D01*
X0518201Y0217512D01*
X0516967Y0217512D01*
X0515135Y0217512D02*
X0515135Y0221215D01*
X0513283Y0221215D01*
X0512666Y0220598D01*
X0512666Y0219364D01*
X0513283Y0218747D01*
X0515135Y0218747D01*
X0516349Y0220598D02*
X0516967Y0221215D01*
X0518201Y0221215D01*
X0518818Y0220598D01*
X0511452Y0221215D02*
X0510218Y0221215D01*
X0510835Y0221215D02*
X0510835Y0217512D01*
X0511452Y0217512D02*
X0510218Y0217512D01*
X0508996Y0218129D02*
X0508379Y0217512D01*
X0507145Y0217512D01*
X0506528Y0218129D01*
X0506528Y0220598D01*
X0507145Y0221215D01*
X0508379Y0221215D01*
X0508996Y0220598D01*
X0508996Y0218129D01*
X0501630Y0218129D02*
X0499161Y0220598D01*
X0499161Y0218129D01*
X0499779Y0217512D01*
X0501013Y0217512D01*
X0501630Y0218129D01*
X0501630Y0220598D01*
X0501013Y0221215D01*
X0499779Y0221215D01*
X0499161Y0220598D01*
X0497947Y0221215D02*
X0497947Y0219364D01*
X0496713Y0219981D01*
X0496095Y0219981D01*
X0495478Y0219364D01*
X0495478Y0218129D01*
X0496095Y0217512D01*
X0497330Y0217512D01*
X0497947Y0218129D01*
X0497947Y0221215D02*
X0495478Y0221215D01*
D12*
X0449300Y0239352D03*
X0440500Y0246452D03*
X0440400Y0246552D03*
X0440300Y0246652D03*
X0440100Y0246752D03*
X0429100Y0247052D03*
X0429000Y0247052D03*
X0422800Y0241252D03*
X0412300Y0231452D03*
X0416400Y0230452D03*
X0420000Y0218452D03*
X0441900Y0191552D03*
X0414900Y0255752D03*
X0414800Y0255752D03*
D13*
X0428100Y0246952D03*
X0428200Y0246952D03*
X0428300Y0246952D03*
X0428400Y0246952D03*
X0428500Y0246952D03*
X0439300Y0247152D03*
X0439500Y0247052D03*
X0439600Y0247052D03*
X0439700Y0246952D03*
X0439900Y0246852D03*
X0449200Y0239652D03*
X0422500Y0240852D03*
X0422400Y0240752D03*
X0422300Y0240652D03*
X0413500Y0241952D03*
X0412500Y0231252D03*
X0420200Y0218452D03*
X0442100Y0215752D03*
X0442200Y0215852D03*
X0442300Y0215952D03*
X0442400Y0216052D03*
X0442500Y0216052D03*
X0444100Y0216152D03*
X0444300Y0216052D03*
X0444400Y0215952D03*
X0444500Y0215952D03*
X0444600Y0214052D03*
X0444500Y0213952D03*
X0444400Y0213852D03*
X0444200Y0213752D03*
X0444000Y0213652D03*
X0442600Y0213752D03*
X0442400Y0213852D03*
X0442300Y0213952D03*
X0442300Y0218152D03*
X0442300Y0220052D03*
X0444400Y0220152D03*
X0444500Y0220152D03*
X0444600Y0220052D03*
X0444700Y0219952D03*
X0444700Y0218152D03*
X0444600Y0218052D03*
X0444500Y0217952D03*
X0444400Y0217952D03*
X0444300Y0217952D03*
X0440300Y0203252D03*
X0442200Y0201052D03*
X0442100Y0200952D03*
X0442500Y0201352D03*
X0442600Y0201352D03*
X0442700Y0201452D03*
X0442800Y0201452D03*
X0442900Y0201452D03*
X0443000Y0201452D03*
X0443100Y0201552D03*
X0443200Y0201552D03*
X0443300Y0201552D03*
X0443400Y0201552D03*
X0443500Y0201552D03*
X0443600Y0201552D03*
X0443700Y0201552D03*
X0443800Y0201452D03*
X0443900Y0201452D03*
X0444000Y0201452D03*
X0444100Y0201452D03*
X0444200Y0201352D03*
X0444500Y0201152D03*
X0444600Y0201052D03*
X0444700Y0200952D03*
X0444500Y0199152D03*
X0444400Y0199152D03*
X0444300Y0199052D03*
X0444100Y0198952D03*
X0444000Y0198952D03*
X0443900Y0198852D03*
X0443800Y0198852D03*
X0443700Y0198852D03*
X0443000Y0198852D03*
X0442900Y0198852D03*
X0442800Y0198852D03*
X0442700Y0198952D03*
X0442500Y0199052D03*
X0442100Y0199352D03*
X0442100Y0197152D03*
X0442000Y0197152D03*
X0444800Y0194752D03*
X0444400Y0193052D03*
X0444500Y0192952D03*
X0444600Y0192852D03*
X0444800Y0191152D03*
X0444600Y0190952D03*
X0444500Y0190852D03*
X0442300Y0190952D03*
X0442000Y0192652D03*
X0442100Y0192752D03*
X0442200Y0192852D03*
X0442400Y0192952D03*
X0442500Y0192952D03*
D14*
X0442600Y0193002D03*
X0442700Y0193002D03*
X0442800Y0192902D03*
X0442900Y0192902D03*
X0444700Y0192802D03*
X0444700Y0194802D03*
X0444600Y0194802D03*
X0444500Y0194802D03*
X0444400Y0194802D03*
X0444300Y0194802D03*
X0444200Y0194802D03*
X0444100Y0194802D03*
X0444000Y0194802D03*
X0443900Y0194802D03*
X0443800Y0194802D03*
X0443700Y0194802D03*
X0443600Y0194802D03*
X0443500Y0194802D03*
X0443400Y0194802D03*
X0443300Y0194802D03*
X0443200Y0194802D03*
X0443100Y0194802D03*
X0443000Y0194802D03*
X0442900Y0194802D03*
X0442800Y0194802D03*
X0442700Y0194802D03*
X0442600Y0194802D03*
X0442500Y0194802D03*
X0442400Y0194802D03*
X0441800Y0195502D03*
X0442200Y0197102D03*
X0442700Y0197102D03*
X0442800Y0197102D03*
X0442900Y0197102D03*
X0443000Y0197102D03*
X0443100Y0197102D03*
X0443200Y0197102D03*
X0443300Y0197102D03*
X0443400Y0197102D03*
X0443500Y0197102D03*
X0443600Y0197102D03*
X0443700Y0197102D03*
X0443800Y0197102D03*
X0443900Y0197102D03*
X0444000Y0197102D03*
X0444100Y0197102D03*
X0444200Y0197102D03*
X0444300Y0197102D03*
X0444400Y0197102D03*
X0444500Y0197102D03*
X0444600Y0197102D03*
X0444700Y0197102D03*
X0444800Y0197102D03*
X0443600Y0198802D03*
X0443500Y0198802D03*
X0443400Y0198802D03*
X0443300Y0198802D03*
X0443200Y0198802D03*
X0443100Y0198802D03*
X0442300Y0199202D03*
X0442200Y0199302D03*
X0442300Y0201202D03*
X0442400Y0201202D03*
X0444300Y0201302D03*
X0444400Y0201202D03*
X0444700Y0199402D03*
X0444600Y0199302D03*
X0444800Y0203302D03*
X0444600Y0205402D03*
X0444500Y0205502D03*
X0444400Y0205502D03*
X0444300Y0205502D03*
X0444200Y0205502D03*
X0444100Y0205502D03*
X0444000Y0205502D03*
X0443900Y0205502D03*
X0443800Y0205502D03*
X0443700Y0205502D03*
X0443600Y0205502D03*
X0443500Y0205502D03*
X0443400Y0205502D03*
X0443300Y0205502D03*
X0443200Y0205502D03*
X0443100Y0205502D03*
X0443000Y0205502D03*
X0442900Y0205502D03*
X0442800Y0205502D03*
X0442700Y0205502D03*
X0442600Y0205502D03*
X0442500Y0205502D03*
X0442400Y0205502D03*
X0442300Y0205502D03*
X0441600Y0205502D03*
X0441500Y0205502D03*
X0441400Y0205502D03*
X0441300Y0205502D03*
X0441200Y0205502D03*
X0441100Y0205502D03*
X0441000Y0205502D03*
X0442000Y0207502D03*
X0442100Y0207502D03*
X0442200Y0207502D03*
X0442300Y0207502D03*
X0442400Y0207502D03*
X0442500Y0207502D03*
X0442600Y0207502D03*
X0442700Y0207502D03*
X0442800Y0207502D03*
X0442900Y0207502D03*
X0443000Y0207502D03*
X0443100Y0207502D03*
X0443200Y0207502D03*
X0443300Y0207502D03*
X0443400Y0207502D03*
X0443500Y0207502D03*
X0443600Y0207502D03*
X0443700Y0207502D03*
X0443800Y0207502D03*
X0443900Y0207502D03*
X0444000Y0207502D03*
X0444100Y0207502D03*
X0444700Y0207502D03*
X0444800Y0207502D03*
X0444500Y0209702D03*
X0444400Y0209802D03*
X0444300Y0209802D03*
X0444200Y0209802D03*
X0444100Y0209802D03*
X0444000Y0209802D03*
X0443900Y0209802D03*
X0443800Y0209802D03*
X0443700Y0209802D03*
X0443600Y0209802D03*
X0443500Y0209802D03*
X0443400Y0209802D03*
X0443300Y0209802D03*
X0443200Y0209802D03*
X0443100Y0209802D03*
X0443000Y0209802D03*
X0442900Y0209802D03*
X0442800Y0209802D03*
X0442700Y0209802D03*
X0442600Y0209802D03*
X0442500Y0209802D03*
X0442400Y0209802D03*
X0442300Y0209802D03*
X0442200Y0209802D03*
X0442100Y0209802D03*
X0442000Y0209802D03*
X0442000Y0211802D03*
X0441900Y0211802D03*
X0441800Y0211802D03*
X0441700Y0211802D03*
X0441600Y0211802D03*
X0441500Y0211802D03*
X0441400Y0211802D03*
X0441300Y0211802D03*
X0441200Y0211802D03*
X0441100Y0211802D03*
X0441000Y0211802D03*
X0440900Y0211802D03*
X0440800Y0211802D03*
X0440700Y0211802D03*
X0440600Y0211802D03*
X0442100Y0211802D03*
X0442200Y0211802D03*
X0442300Y0211802D03*
X0442400Y0211802D03*
X0442500Y0211802D03*
X0442600Y0211802D03*
X0442700Y0211802D03*
X0442800Y0211802D03*
X0442900Y0211802D03*
X0443000Y0211802D03*
X0443100Y0211802D03*
X0443200Y0211802D03*
X0443300Y0211802D03*
X0443400Y0211802D03*
X0443500Y0211802D03*
X0443600Y0211802D03*
X0443700Y0211802D03*
X0443800Y0211802D03*
X0443900Y0211802D03*
X0444000Y0211802D03*
X0444100Y0211802D03*
X0444200Y0211802D03*
X0444300Y0211802D03*
X0444400Y0211802D03*
X0444500Y0211802D03*
X0444600Y0211802D03*
X0444700Y0211802D03*
X0444800Y0211802D03*
X0443900Y0213602D03*
X0443800Y0213602D03*
X0443700Y0213602D03*
X0443600Y0213602D03*
X0443500Y0213602D03*
X0443400Y0213602D03*
X0443300Y0213602D03*
X0443200Y0213602D03*
X0443100Y0213602D03*
X0443000Y0213602D03*
X0442900Y0213602D03*
X0442800Y0213602D03*
X0442700Y0213702D03*
X0442500Y0213802D03*
X0442200Y0214002D03*
X0442100Y0214102D03*
X0444100Y0213702D03*
X0444300Y0213802D03*
X0444700Y0214102D03*
X0444700Y0215702D03*
X0444600Y0215802D03*
X0444200Y0216102D03*
X0444000Y0216202D03*
X0443900Y0216202D03*
X0443800Y0216202D03*
X0443700Y0216302D03*
X0443600Y0216302D03*
X0443500Y0216302D03*
X0443400Y0216302D03*
X0443300Y0216302D03*
X0443200Y0216302D03*
X0443100Y0216302D03*
X0443000Y0216202D03*
X0442900Y0216202D03*
X0442800Y0216202D03*
X0442700Y0216202D03*
X0442600Y0216102D03*
X0444000Y0217902D03*
X0444100Y0217902D03*
X0444200Y0217902D03*
X0443900Y0218002D03*
X0444800Y0218302D03*
X0444800Y0219802D03*
X0442800Y0220102D03*
X0442500Y0220102D03*
X0442400Y0220102D03*
X0416300Y0230302D03*
X0413400Y0242002D03*
X0413300Y0242002D03*
X0427400Y0246802D03*
X0427500Y0246802D03*
X0427600Y0246802D03*
X0427800Y0246902D03*
X0427900Y0246902D03*
X0428000Y0246902D03*
X0439000Y0247402D03*
X0439100Y0247302D03*
X0439200Y0247202D03*
X0439400Y0247102D03*
X0449000Y0240102D03*
X0449100Y0239902D03*
X0415100Y0255802D03*
X0444000Y0190802D03*
X0444100Y0190802D03*
X0444200Y0190802D03*
X0444300Y0190802D03*
X0444400Y0190802D03*
D15*
X0443100Y0192702D03*
X0441800Y0191902D03*
X0442300Y0194902D03*
X0442400Y0197002D03*
X0442100Y0205502D03*
X0444300Y0207602D03*
X0444400Y0207602D03*
X0444500Y0207602D03*
X0444900Y0209102D03*
X0441800Y0214902D03*
X0443600Y0218302D03*
X0441800Y0219102D03*
X0423000Y0216402D03*
X0416200Y0230202D03*
X0412700Y0231002D03*
X0421900Y0240102D03*
X0422000Y0240202D03*
X0426300Y0246502D03*
X0426400Y0246502D03*
X0426600Y0246602D03*
X0426700Y0246602D03*
X0426900Y0246702D03*
X0427000Y0246702D03*
X0427100Y0246702D03*
X0427200Y0246702D03*
X0437900Y0247902D03*
X0438000Y0247902D03*
X0438300Y0247702D03*
X0438500Y0247602D03*
X0448900Y0240302D03*
X0413200Y0242002D03*
D16*
X0413000Y0242002D03*
X0425500Y0246302D03*
X0425600Y0246302D03*
X0425900Y0246402D03*
X0436600Y0248502D03*
X0436800Y0248402D03*
X0437000Y0248302D03*
X0437100Y0248302D03*
X0437200Y0248302D03*
X0437300Y0248202D03*
X0448800Y0240502D03*
X0415400Y0255902D03*
X0415300Y0255902D03*
X0443400Y0218902D03*
X0422900Y0216602D03*
X0444800Y0205102D03*
X0444900Y0200202D03*
X0443400Y0191702D03*
D17*
X0443300Y0192102D03*
X0441900Y0205502D03*
X0443500Y0218602D03*
X0448700Y0240702D03*
X0448600Y0240902D03*
X0436200Y0248702D03*
X0436100Y0248702D03*
X0436000Y0248702D03*
X0435900Y0248802D03*
X0435800Y0248802D03*
X0435700Y0248902D03*
X0435600Y0248902D03*
X0435300Y0249002D03*
X0435200Y0249102D03*
X0425200Y0246202D03*
X0425100Y0246202D03*
X0424900Y0246102D03*
X0424700Y0246002D03*
X0424600Y0246002D03*
X0424500Y0245902D03*
X0424400Y0245902D03*
X0424200Y0245802D03*
X0424100Y0245802D03*
X0424000Y0245702D03*
X0423900Y0245702D03*
X0421400Y0239302D03*
X0421300Y0239202D03*
X0415500Y0255902D03*
D18*
X0421100Y0253752D03*
X0425000Y0246152D03*
X0424800Y0246052D03*
X0425300Y0246252D03*
X0425400Y0246252D03*
X0421600Y0239652D03*
X0421500Y0239552D03*
X0412900Y0242052D03*
X0412800Y0230852D03*
X0416000Y0230152D03*
X0444900Y0219052D03*
X0444900Y0214952D03*
X0441900Y0195452D03*
X0443500Y0191452D03*
X0444900Y0191852D03*
X0448500Y0241052D03*
X0448400Y0241252D03*
X0436900Y0248352D03*
X0436700Y0248452D03*
X0436500Y0248552D03*
X0436400Y0248552D03*
X0436300Y0248652D03*
D19*
X0433700Y0249552D03*
X0433100Y0249752D03*
X0433000Y0249752D03*
X0432800Y0249852D03*
X0432700Y0249852D03*
X0432600Y0249852D03*
X0432300Y0249952D03*
X0423200Y0245352D03*
X0423100Y0245352D03*
X0423000Y0245252D03*
X0422800Y0245152D03*
X0422400Y0244952D03*
X0421100Y0238852D03*
X0413000Y0230752D03*
X0447900Y0242152D03*
X0448000Y0242052D03*
X0448300Y0241552D03*
X0415700Y0255952D03*
D20*
X0433200Y0249702D03*
X0433300Y0249702D03*
X0433400Y0249702D03*
X0433500Y0249602D03*
X0433600Y0249602D03*
X0433800Y0249502D03*
X0433900Y0249502D03*
X0434000Y0249502D03*
X0434100Y0249402D03*
X0434200Y0249402D03*
X0434300Y0249402D03*
X0434400Y0249302D03*
X0423500Y0245502D03*
X0423400Y0245402D03*
X0423300Y0245402D03*
X0422900Y0245202D03*
X0421000Y0238702D03*
X0417900Y0229302D03*
X0415900Y0230102D03*
X0448100Y0241802D03*
X0448200Y0241702D03*
X0444800Y0209102D03*
X0442000Y0195502D03*
D21*
X0418000Y0229302D03*
X0415800Y0230002D03*
X0420700Y0238202D03*
X0420800Y0238402D03*
X0420900Y0238502D03*
X0422000Y0244702D03*
X0422100Y0244802D03*
X0422200Y0244802D03*
X0422300Y0244902D03*
X0422500Y0245002D03*
X0422600Y0245002D03*
X0422700Y0245102D03*
X0430700Y0250302D03*
X0430800Y0250302D03*
X0431000Y0250202D03*
X0431300Y0250102D03*
X0431400Y0250102D03*
X0431500Y0250102D03*
X0431600Y0250102D03*
X0431700Y0250102D03*
X0431900Y0250002D03*
X0432000Y0250002D03*
X0432100Y0250002D03*
X0432200Y0250002D03*
X0432400Y0249902D03*
X0432500Y0249902D03*
X0432900Y0249802D03*
X0447800Y0242402D03*
X0415800Y0256002D03*
D22*
X0415900Y0255952D03*
X0429600Y0250452D03*
X0429700Y0250452D03*
X0429800Y0250452D03*
X0429900Y0250452D03*
X0430000Y0250452D03*
X0430200Y0250352D03*
X0430300Y0250352D03*
X0430400Y0250352D03*
X0430500Y0250352D03*
X0430600Y0250352D03*
X0430900Y0250252D03*
X0431100Y0250152D03*
X0431200Y0250152D03*
X0431800Y0250052D03*
X0421900Y0244652D03*
X0421800Y0244552D03*
X0421700Y0244552D03*
X0421600Y0244452D03*
X0421500Y0244452D03*
X0421400Y0244352D03*
X0447400Y0242952D03*
X0447500Y0242852D03*
X0447600Y0242652D03*
X0447700Y0242552D03*
X0435700Y0230552D03*
X0435600Y0230552D03*
X0435500Y0230552D03*
X0435400Y0230552D03*
X0435300Y0230552D03*
X0435200Y0230552D03*
X0435100Y0230552D03*
X0435000Y0230552D03*
X0434900Y0230552D03*
X0434800Y0230552D03*
X0434700Y0230552D03*
X0434600Y0230552D03*
X0434500Y0230552D03*
X0434400Y0230552D03*
X0434300Y0230552D03*
X0434200Y0230552D03*
X0434100Y0230552D03*
X0434000Y0230552D03*
X0433900Y0230552D03*
X0433800Y0230552D03*
X0433700Y0230552D03*
X0433600Y0230552D03*
X0431900Y0230552D03*
X0431800Y0230552D03*
X0431700Y0230552D03*
X0431600Y0230552D03*
X0431500Y0230552D03*
X0431400Y0230552D03*
X0431300Y0230552D03*
X0431200Y0230552D03*
X0431100Y0230552D03*
X0431000Y0230552D03*
X0430900Y0230552D03*
X0430800Y0230552D03*
X0430700Y0230552D03*
X0430600Y0230552D03*
X0430500Y0230552D03*
X0430400Y0230552D03*
X0430300Y0230552D03*
X0430200Y0230552D03*
X0430100Y0230552D03*
X0430000Y0230552D03*
X0430200Y0219652D03*
X0430300Y0219652D03*
X0430400Y0219652D03*
X0430500Y0219652D03*
X0430600Y0219652D03*
X0430700Y0219652D03*
X0430800Y0219652D03*
X0430900Y0219652D03*
X0431000Y0219652D03*
X0431100Y0219652D03*
X0431200Y0219652D03*
X0431300Y0219652D03*
X0431400Y0219652D03*
X0431500Y0219652D03*
X0431600Y0219652D03*
X0431700Y0219652D03*
X0431800Y0219652D03*
X0431900Y0219652D03*
X0432000Y0219652D03*
X0432100Y0219652D03*
X0432200Y0219652D03*
X0432300Y0219652D03*
X0432400Y0219652D03*
X0432500Y0219652D03*
X0432600Y0219652D03*
X0432700Y0219652D03*
X0432800Y0219652D03*
X0432900Y0219652D03*
X0433000Y0219652D03*
X0433100Y0219652D03*
X0433200Y0219652D03*
X0433300Y0219652D03*
X0433400Y0219652D03*
X0433500Y0219652D03*
X0433600Y0219652D03*
X0433700Y0219652D03*
X0433800Y0219652D03*
X0433900Y0219652D03*
X0434000Y0219652D03*
X0434100Y0219652D03*
X0434200Y0219652D03*
X0434300Y0219652D03*
X0434400Y0219652D03*
X0434500Y0219652D03*
X0434600Y0219652D03*
X0434700Y0219652D03*
X0434800Y0219652D03*
X0434900Y0219652D03*
X0435000Y0219652D03*
X0435100Y0219652D03*
X0435200Y0219652D03*
X0435300Y0219652D03*
X0435400Y0219652D03*
X0435500Y0219652D03*
X0435600Y0219652D03*
X0435700Y0219652D03*
X0435800Y0219652D03*
X0435900Y0219652D03*
X0436000Y0219652D03*
X0436100Y0219652D03*
X0436200Y0219652D03*
X0436300Y0219652D03*
X0436400Y0219652D03*
X0436500Y0219652D03*
X0436600Y0219652D03*
X0436700Y0219652D03*
X0436800Y0219652D03*
X0436900Y0219652D03*
X0437000Y0219652D03*
X0437100Y0219652D03*
X0437200Y0219652D03*
X0437200Y0207252D03*
X0437100Y0207252D03*
X0437000Y0207252D03*
X0436900Y0207252D03*
X0436800Y0207252D03*
X0436700Y0207252D03*
X0436600Y0207252D03*
X0436500Y0207252D03*
X0436400Y0207252D03*
X0436300Y0207252D03*
X0436200Y0207252D03*
X0436100Y0207252D03*
X0436000Y0207252D03*
X0435900Y0207252D03*
X0435800Y0207252D03*
X0435700Y0207252D03*
X0435600Y0207252D03*
X0435500Y0207252D03*
X0435400Y0207252D03*
X0435300Y0207252D03*
X0435200Y0207252D03*
X0435100Y0207252D03*
X0435000Y0207252D03*
X0434900Y0207252D03*
X0434800Y0207252D03*
X0434700Y0207252D03*
X0434600Y0207252D03*
X0434500Y0207252D03*
X0434400Y0207252D03*
X0434300Y0207252D03*
X0434200Y0207252D03*
X0434100Y0207252D03*
X0434000Y0207252D03*
X0433900Y0207252D03*
X0433800Y0207252D03*
X0433700Y0207252D03*
X0433600Y0207252D03*
X0433500Y0207252D03*
X0433400Y0207252D03*
X0433300Y0207252D03*
X0433200Y0207252D03*
X0433100Y0207252D03*
X0433000Y0207252D03*
X0432900Y0207252D03*
X0432800Y0207252D03*
X0432700Y0207252D03*
X0432600Y0207252D03*
X0432500Y0207252D03*
X0432400Y0207252D03*
X0432300Y0207252D03*
X0432200Y0207252D03*
X0432100Y0207252D03*
X0432000Y0207252D03*
X0431900Y0207252D03*
X0431800Y0207252D03*
X0431700Y0207252D03*
X0431600Y0207252D03*
X0431500Y0207252D03*
X0431400Y0207252D03*
X0431300Y0207252D03*
X0431200Y0207252D03*
X0431100Y0207252D03*
X0431000Y0207252D03*
X0430900Y0207252D03*
X0430800Y0207252D03*
X0430700Y0207252D03*
X0430600Y0207252D03*
X0430500Y0207252D03*
X0430400Y0207252D03*
X0430300Y0207252D03*
X0430200Y0207252D03*
X0430100Y0207252D03*
X0442000Y0205452D03*
X0434700Y0194852D03*
X0434600Y0194852D03*
X0434600Y0191252D03*
X0434500Y0191252D03*
X0434400Y0191252D03*
X0434300Y0191252D03*
X0434200Y0191252D03*
X0434100Y0191252D03*
X0434000Y0191252D03*
X0433900Y0191252D03*
X0433800Y0191252D03*
X0433700Y0191252D03*
X0433600Y0191252D03*
X0434700Y0191252D03*
X0434800Y0191252D03*
X0434900Y0191252D03*
X0435000Y0191252D03*
X0435100Y0191252D03*
X0435200Y0191252D03*
X0435300Y0191252D03*
X0435400Y0191252D03*
X0435500Y0191252D03*
X0435600Y0191252D03*
X0435700Y0191252D03*
X0435800Y0191252D03*
X0435900Y0191252D03*
X0436000Y0191252D03*
X0436100Y0191252D03*
X0436200Y0191252D03*
X0436300Y0191252D03*
X0436400Y0191252D03*
X0436500Y0191252D03*
X0436600Y0191252D03*
X0436700Y0191252D03*
X0436800Y0191252D03*
X0436900Y0191252D03*
X0437000Y0191252D03*
X0437100Y0191252D03*
X0437200Y0191252D03*
X0431600Y0191252D03*
X0431500Y0191252D03*
X0431400Y0191252D03*
X0431300Y0191252D03*
X0431200Y0191252D03*
X0431100Y0191252D03*
X0431000Y0191252D03*
X0430900Y0191252D03*
X0430800Y0191252D03*
X0430700Y0191252D03*
X0430600Y0191252D03*
X0430500Y0191252D03*
X0430400Y0191252D03*
X0430300Y0191252D03*
X0430200Y0191252D03*
X0430100Y0191252D03*
X0430000Y0191252D03*
X0429900Y0191252D03*
X0429800Y0191252D03*
X0429700Y0191252D03*
X0429600Y0191252D03*
X0429500Y0191252D03*
X0429400Y0191252D03*
X0429300Y0191252D03*
X0429200Y0191252D03*
X0429100Y0191252D03*
X0429000Y0191252D03*
X0428900Y0191252D03*
X0428800Y0191252D03*
X0428700Y0191252D03*
X0428600Y0191252D03*
X0430900Y0194852D03*
X0431000Y0194852D03*
D23*
X0430800Y0194902D03*
X0430700Y0194902D03*
X0431700Y0191202D03*
X0431800Y0191202D03*
X0433400Y0191202D03*
X0433500Y0191202D03*
X0434800Y0194902D03*
X0434900Y0194902D03*
X0430000Y0207302D03*
X0432100Y0210702D03*
X0433300Y0211202D03*
X0434400Y0211702D03*
X0434500Y0211702D03*
X0434900Y0211902D03*
X0435600Y0212202D03*
X0435700Y0212202D03*
X0435700Y0214702D03*
X0435600Y0214702D03*
X0435100Y0214902D03*
X0434900Y0215002D03*
X0434500Y0215202D03*
X0434400Y0215202D03*
X0434300Y0215202D03*
X0433300Y0215702D03*
X0433200Y0215702D03*
X0432100Y0216202D03*
X0430100Y0219602D03*
X0430000Y0219602D03*
X0429900Y0230502D03*
X0429800Y0230502D03*
X0432000Y0230502D03*
X0432100Y0230502D03*
X0433400Y0230502D03*
X0433500Y0230502D03*
X0435800Y0230502D03*
X0435900Y0230502D03*
X0420600Y0238002D03*
X0420800Y0243902D03*
X0420900Y0244002D03*
X0421100Y0244102D03*
X0421200Y0244202D03*
X0421300Y0244202D03*
X0428900Y0250502D03*
X0429000Y0250502D03*
X0429100Y0250502D03*
X0429200Y0250502D03*
X0429300Y0250502D03*
X0429400Y0250502D03*
X0429500Y0250502D03*
X0430100Y0250402D03*
X0416000Y0256002D03*
X0447200Y0243402D03*
X0447300Y0243202D03*
X0415700Y0229902D03*
X0413100Y0230702D03*
X0430100Y0179102D03*
X0430200Y0179102D03*
X0430300Y0179102D03*
X0430400Y0179102D03*
X0430500Y0179102D03*
X0430600Y0179102D03*
X0430700Y0179102D03*
X0430800Y0179102D03*
X0430900Y0179102D03*
X0431000Y0179102D03*
X0431100Y0179102D03*
X0431200Y0179102D03*
X0431300Y0179102D03*
X0431400Y0179102D03*
X0431500Y0179102D03*
X0431600Y0179102D03*
X0431700Y0179102D03*
X0431800Y0179102D03*
X0433700Y0179102D03*
X0433800Y0179102D03*
X0433900Y0179102D03*
X0434000Y0179102D03*
X0434100Y0179102D03*
X0434200Y0179102D03*
X0434300Y0179102D03*
X0434400Y0179102D03*
X0434500Y0179102D03*
X0434600Y0179102D03*
X0434700Y0179102D03*
X0434800Y0179102D03*
X0434900Y0179102D03*
X0435000Y0179102D03*
X0435100Y0179102D03*
X0435200Y0179102D03*
X0435300Y0179102D03*
X0435400Y0179102D03*
X0435500Y0179102D03*
X0435600Y0179102D03*
X0435700Y0179102D03*
D24*
X0435800Y0179052D03*
X0435900Y0179052D03*
X0433600Y0179052D03*
X0433500Y0179052D03*
X0433400Y0179052D03*
X0432100Y0179052D03*
X0432000Y0179052D03*
X0431900Y0179052D03*
X0430000Y0179052D03*
X0429900Y0179052D03*
X0429800Y0179052D03*
X0431900Y0191152D03*
X0430600Y0194952D03*
X0430500Y0194952D03*
X0435000Y0194952D03*
X0435100Y0194952D03*
X0435200Y0194952D03*
X0442000Y0200152D03*
X0444800Y0200152D03*
X0434700Y0203552D03*
X0434600Y0203552D03*
X0434500Y0203552D03*
X0434400Y0203552D03*
X0434300Y0203552D03*
X0434200Y0203552D03*
X0434100Y0203552D03*
X0434000Y0203552D03*
X0433900Y0203552D03*
X0433800Y0203552D03*
X0433700Y0203552D03*
X0433600Y0203552D03*
X0433500Y0203552D03*
X0433400Y0203552D03*
X0433300Y0203552D03*
X0433200Y0203552D03*
X0433100Y0203552D03*
X0433000Y0203552D03*
X0432900Y0203552D03*
X0432800Y0203552D03*
X0432700Y0203552D03*
X0432600Y0203552D03*
X0432500Y0203552D03*
X0432400Y0203552D03*
X0432300Y0203552D03*
X0432200Y0203552D03*
X0432100Y0203552D03*
X0432000Y0203552D03*
X0431900Y0203552D03*
X0431800Y0203552D03*
X0431700Y0203552D03*
X0431600Y0203552D03*
X0431500Y0203552D03*
X0431400Y0203552D03*
X0431300Y0203552D03*
X0431200Y0203552D03*
X0431100Y0203552D03*
X0431000Y0203552D03*
X0430900Y0203552D03*
X0430800Y0203552D03*
X0430400Y0203352D03*
X0430300Y0203352D03*
X0429900Y0207352D03*
X0430300Y0209952D03*
X0430700Y0210152D03*
X0430800Y0210152D03*
X0430900Y0210152D03*
X0431000Y0210252D03*
X0431500Y0210452D03*
X0431900Y0210652D03*
X0432000Y0210652D03*
X0432200Y0210752D03*
X0432300Y0210752D03*
X0432400Y0210852D03*
X0432900Y0211052D03*
X0433000Y0211152D03*
X0433100Y0211152D03*
X0433200Y0211152D03*
X0433400Y0211252D03*
X0433500Y0211252D03*
X0433700Y0211352D03*
X0433800Y0211452D03*
X0434200Y0211652D03*
X0434300Y0211652D03*
X0434600Y0211752D03*
X0435000Y0211952D03*
X0435100Y0211952D03*
X0435200Y0212052D03*
X0435400Y0212152D03*
X0435500Y0212152D03*
X0435800Y0212252D03*
X0435800Y0214652D03*
X0435500Y0214752D03*
X0435400Y0214752D03*
X0435300Y0214752D03*
X0435200Y0214852D03*
X0435000Y0214952D03*
X0434600Y0215152D03*
X0434200Y0215252D03*
X0434100Y0215252D03*
X0433800Y0215452D03*
X0433700Y0215552D03*
X0433600Y0215552D03*
X0433500Y0215552D03*
X0433400Y0215652D03*
X0433100Y0215752D03*
X0433000Y0215752D03*
X0432900Y0215852D03*
X0432700Y0215952D03*
X0432400Y0216052D03*
X0432300Y0216052D03*
X0432200Y0216152D03*
X0432000Y0216252D03*
X0431900Y0216252D03*
X0431700Y0216352D03*
X0431500Y0216452D03*
X0431300Y0216552D03*
X0431000Y0216652D03*
X0430900Y0216752D03*
X0430800Y0216752D03*
X0430700Y0216752D03*
X0430100Y0217052D03*
X0429900Y0219552D03*
X0442000Y0214852D03*
X0444800Y0214852D03*
X0436000Y0230452D03*
X0429700Y0230452D03*
X0429700Y0239852D03*
X0429600Y0239852D03*
X0429500Y0239852D03*
X0429400Y0239852D03*
X0429300Y0239852D03*
X0429200Y0239852D03*
X0429100Y0239852D03*
X0429000Y0239852D03*
X0428900Y0239852D03*
X0428800Y0239852D03*
X0428700Y0239852D03*
X0428600Y0239852D03*
X0429800Y0239852D03*
X0429900Y0239852D03*
X0430000Y0239852D03*
X0430100Y0239852D03*
X0430200Y0239852D03*
X0430300Y0239852D03*
X0430400Y0239852D03*
X0430500Y0239852D03*
X0430600Y0239852D03*
X0430700Y0239852D03*
X0430800Y0239852D03*
X0430900Y0239852D03*
X0431000Y0239852D03*
X0431100Y0239852D03*
X0431200Y0239852D03*
X0431300Y0239852D03*
X0431400Y0239852D03*
X0431500Y0239852D03*
X0431600Y0239852D03*
X0431700Y0239852D03*
X0431800Y0239852D03*
X0431900Y0239852D03*
X0432000Y0239852D03*
X0432100Y0239852D03*
X0432200Y0239852D03*
X0432300Y0239852D03*
X0432400Y0239852D03*
X0432500Y0239852D03*
X0432600Y0239852D03*
X0432700Y0239852D03*
X0432800Y0239852D03*
X0432900Y0239852D03*
X0433000Y0239852D03*
X0433100Y0239852D03*
X0433200Y0239852D03*
X0433300Y0239852D03*
X0433400Y0239852D03*
X0433500Y0239852D03*
X0433600Y0239852D03*
X0433700Y0239852D03*
X0433800Y0239852D03*
X0433900Y0239852D03*
X0434000Y0239852D03*
X0434100Y0239852D03*
X0434200Y0239852D03*
X0434300Y0239852D03*
X0434400Y0239852D03*
X0434500Y0239852D03*
X0434600Y0239852D03*
X0434700Y0239852D03*
X0434800Y0239852D03*
X0434900Y0239852D03*
X0435000Y0239852D03*
X0435100Y0239852D03*
X0435200Y0239852D03*
X0435300Y0239852D03*
X0435400Y0239852D03*
X0435500Y0239852D03*
X0435600Y0239852D03*
X0435700Y0239852D03*
X0435800Y0239852D03*
X0446900Y0243752D03*
X0447000Y0243552D03*
X0447100Y0243552D03*
X0428800Y0250552D03*
X0428700Y0250552D03*
X0421000Y0244052D03*
X0420500Y0237752D03*
X0416100Y0256052D03*
D25*
X0416200Y0256102D03*
X0427700Y0250602D03*
X0427800Y0250602D03*
X0427900Y0250602D03*
X0428000Y0250602D03*
X0428100Y0250602D03*
X0428200Y0250602D03*
X0428300Y0250602D03*
X0428400Y0250602D03*
X0428500Y0250602D03*
X0428600Y0250602D03*
X0420700Y0243802D03*
X0420500Y0243702D03*
X0420400Y0243602D03*
X0420300Y0243502D03*
X0420400Y0237502D03*
X0413200Y0230702D03*
X0432200Y0230402D03*
X0433300Y0230402D03*
X0435900Y0239802D03*
X0446500Y0244402D03*
X0446400Y0244502D03*
X0446600Y0244202D03*
X0446700Y0244102D03*
X0446800Y0244002D03*
X0434800Y0215102D03*
X0434700Y0215102D03*
X0434000Y0215402D03*
X0433900Y0215402D03*
X0432800Y0215902D03*
X0432600Y0216002D03*
X0432500Y0216002D03*
X0431800Y0216302D03*
X0431600Y0216402D03*
X0431400Y0216502D03*
X0431200Y0216602D03*
X0431100Y0216602D03*
X0430600Y0216802D03*
X0430500Y0216902D03*
X0430400Y0216902D03*
X0430300Y0216902D03*
X0430200Y0217002D03*
X0430000Y0217102D03*
X0435900Y0214502D03*
X0435900Y0212402D03*
X0435300Y0212102D03*
X0434800Y0211802D03*
X0434700Y0211802D03*
X0434100Y0211602D03*
X0434000Y0211502D03*
X0433900Y0211502D03*
X0433600Y0211302D03*
X0432800Y0211002D03*
X0432700Y0210902D03*
X0432600Y0210902D03*
X0432500Y0210902D03*
X0431800Y0210602D03*
X0431700Y0210602D03*
X0431600Y0210502D03*
X0431400Y0210402D03*
X0431300Y0210302D03*
X0431200Y0210302D03*
X0431100Y0210302D03*
X0430600Y0210102D03*
X0430500Y0210002D03*
X0430400Y0210002D03*
X0430200Y0209902D03*
X0430100Y0209802D03*
X0430000Y0209802D03*
X0429900Y0209702D03*
X0430700Y0203502D03*
X0430600Y0203402D03*
X0430500Y0203402D03*
X0430200Y0203302D03*
X0434800Y0203502D03*
X0435100Y0203402D03*
X0435200Y0203402D03*
X0435300Y0203302D03*
X0435300Y0195002D03*
X0435400Y0195002D03*
X0433300Y0191102D03*
X0432000Y0191102D03*
X0430400Y0195002D03*
X0429700Y0179002D03*
X0432200Y0179002D03*
X0436000Y0179002D03*
D26*
X0433300Y0178952D03*
X0435500Y0195052D03*
X0430300Y0195052D03*
X0430100Y0203252D03*
X0434900Y0203452D03*
X0435000Y0203452D03*
X0435400Y0203252D03*
X0429900Y0217152D03*
X0422800Y0217152D03*
X0420300Y0237452D03*
X0420000Y0243252D03*
X0420200Y0243452D03*
X0420600Y0243752D03*
X0425700Y0250652D03*
X0425800Y0250652D03*
X0425900Y0250652D03*
X0426000Y0250652D03*
X0426100Y0250652D03*
X0426200Y0250652D03*
X0426300Y0250652D03*
X0426400Y0250652D03*
X0426500Y0250652D03*
X0426600Y0250652D03*
X0426700Y0250652D03*
X0426800Y0250652D03*
X0426900Y0250652D03*
X0427000Y0250652D03*
X0427100Y0250652D03*
X0427200Y0250652D03*
X0427300Y0250652D03*
X0427400Y0250652D03*
X0427500Y0250652D03*
X0427600Y0250652D03*
X0416300Y0256152D03*
X0445700Y0245452D03*
X0446000Y0245052D03*
X0446100Y0244952D03*
X0446200Y0244852D03*
X0446300Y0244652D03*
D27*
X0445900Y0245202D03*
X0445800Y0245302D03*
X0445600Y0245602D03*
X0445500Y0245702D03*
X0445400Y0245802D03*
X0445200Y0246102D03*
X0445100Y0246202D03*
X0444900Y0246502D03*
X0444600Y0246802D03*
X0444500Y0246902D03*
X0425600Y0250702D03*
X0425500Y0250702D03*
X0425400Y0250702D03*
X0425300Y0250702D03*
X0425200Y0250702D03*
X0425100Y0250702D03*
X0425000Y0250702D03*
X0424900Y0250702D03*
X0424800Y0250702D03*
X0424600Y0250602D03*
X0424500Y0250602D03*
X0424400Y0250602D03*
X0424300Y0250602D03*
X0424200Y0250602D03*
X0424100Y0250602D03*
X0424000Y0250602D03*
X0423900Y0250602D03*
X0420100Y0243302D03*
X0419900Y0243202D03*
X0420200Y0237202D03*
X0420100Y0236902D03*
X0430000Y0203202D03*
X0429900Y0203102D03*
X0435500Y0203202D03*
X0435600Y0195102D03*
X0430200Y0195102D03*
X0431300Y0186802D03*
X0431200Y0186702D03*
X0433700Y0187102D03*
X0433800Y0187002D03*
D28*
X0433900Y0186952D03*
X0434000Y0186752D03*
X0434100Y0186652D03*
X0434200Y0186552D03*
X0433500Y0187352D03*
X0433300Y0187652D03*
X0432000Y0187652D03*
X0431900Y0187552D03*
X0431800Y0187452D03*
X0431700Y0187352D03*
X0431600Y0187252D03*
X0431500Y0187052D03*
X0431400Y0186952D03*
X0431100Y0186652D03*
X0430700Y0186152D03*
X0430100Y0195152D03*
X0430000Y0195252D03*
X0429900Y0195352D03*
X0435700Y0195152D03*
X0435600Y0203152D03*
X0419300Y0242652D03*
X0419400Y0242752D03*
X0419500Y0242852D03*
X0419600Y0242852D03*
X0419700Y0243052D03*
X0419800Y0243152D03*
X0423800Y0250552D03*
X0424700Y0250652D03*
X0416400Y0256152D03*
X0443100Y0248352D03*
X0443600Y0247852D03*
X0444100Y0247352D03*
X0444400Y0247052D03*
X0444700Y0246752D03*
X0444800Y0246652D03*
X0445300Y0245952D03*
D29*
X0445000Y0246302D03*
X0444300Y0247202D03*
X0444200Y0247302D03*
X0444000Y0247502D03*
X0443900Y0247602D03*
X0443800Y0247702D03*
X0443700Y0247802D03*
X0443500Y0248002D03*
X0443400Y0248102D03*
X0443300Y0248202D03*
X0443200Y0248302D03*
X0443000Y0248502D03*
X0442900Y0248602D03*
X0442800Y0248702D03*
X0442700Y0248802D03*
X0442600Y0248902D03*
X0442500Y0249002D03*
X0442400Y0249102D03*
X0442300Y0249202D03*
X0442200Y0249302D03*
X0442100Y0249402D03*
X0442000Y0249502D03*
X0441900Y0249602D03*
X0441800Y0249702D03*
X0441600Y0249802D03*
X0441200Y0250202D03*
X0423700Y0250502D03*
X0423600Y0250502D03*
X0423500Y0250502D03*
X0423400Y0250502D03*
X0423300Y0250502D03*
X0423200Y0250502D03*
X0422700Y0250402D03*
X0416500Y0256202D03*
X0435700Y0203102D03*
X0435800Y0203002D03*
X0433400Y0187502D03*
X0433600Y0187202D03*
X0434300Y0186402D03*
X0434400Y0186302D03*
X0434500Y0186202D03*
X0434600Y0186102D03*
X0434700Y0186002D03*
X0434900Y0185802D03*
X0435000Y0185602D03*
X0435100Y0185502D03*
X0435200Y0185402D03*
X0435300Y0185302D03*
X0435400Y0185202D03*
X0435500Y0185102D03*
X0435600Y0185002D03*
X0435700Y0184902D03*
X0435800Y0184802D03*
X0431000Y0186502D03*
X0430600Y0186002D03*
X0430500Y0185802D03*
X0430400Y0185702D03*
X0430300Y0185602D03*
X0430200Y0185502D03*
X0430000Y0185202D03*
X0429900Y0185102D03*
X0429800Y0185002D03*
X0429700Y0184902D03*
X0429200Y0184302D03*
D30*
X0443600Y0191152D03*
X0443700Y0191052D03*
X0443800Y0190952D03*
X0443900Y0190852D03*
X0444800Y0192652D03*
X0443000Y0192752D03*
X0442200Y0194952D03*
X0442100Y0195052D03*
X0442300Y0197052D03*
X0442500Y0197052D03*
X0442600Y0197052D03*
X0442600Y0203252D03*
X0442500Y0203252D03*
X0442400Y0203252D03*
X0442300Y0203252D03*
X0442200Y0203252D03*
X0442100Y0203252D03*
X0442000Y0203252D03*
X0442700Y0203252D03*
X0442800Y0203252D03*
X0442900Y0203252D03*
X0443000Y0203252D03*
X0443100Y0203252D03*
X0443200Y0203252D03*
X0443300Y0203252D03*
X0443400Y0203252D03*
X0443500Y0203252D03*
X0443600Y0203252D03*
X0443700Y0203252D03*
X0443800Y0203252D03*
X0443900Y0203252D03*
X0444000Y0203252D03*
X0444100Y0203252D03*
X0444200Y0203252D03*
X0444300Y0203252D03*
X0444400Y0203252D03*
X0444500Y0203252D03*
X0444600Y0203252D03*
X0444700Y0203252D03*
X0444700Y0205352D03*
X0444600Y0207552D03*
X0444200Y0207552D03*
X0444700Y0209552D03*
X0444600Y0209652D03*
X0442200Y0205552D03*
X0441700Y0205552D03*
X0440500Y0203252D03*
X0440400Y0203252D03*
X0443800Y0218052D03*
X0443700Y0218152D03*
X0443100Y0219852D03*
X0443000Y0219952D03*
X0442900Y0220052D03*
X0442700Y0220152D03*
X0442600Y0220152D03*
X0420300Y0218452D03*
X0412600Y0231152D03*
X0422100Y0240352D03*
X0422200Y0240452D03*
X0426500Y0246552D03*
X0427300Y0246752D03*
X0427700Y0246852D03*
X0421200Y0253452D03*
X0438200Y0247752D03*
X0438600Y0247552D03*
X0438700Y0247552D03*
X0438800Y0247452D03*
X0438900Y0247452D03*
D31*
X0439800Y0246902D03*
X0440000Y0246802D03*
X0440200Y0246702D03*
X0428900Y0247002D03*
X0428800Y0247002D03*
X0428700Y0247002D03*
X0428600Y0247002D03*
X0422700Y0241102D03*
X0422600Y0241002D03*
X0413600Y0241902D03*
X0412400Y0231402D03*
X0420100Y0218402D03*
X0442000Y0218402D03*
X0442100Y0218302D03*
X0442200Y0218202D03*
X0442000Y0219802D03*
X0442100Y0219902D03*
X0442200Y0220002D03*
X0442400Y0199102D03*
X0442600Y0199002D03*
X0444200Y0199002D03*
X0442300Y0192902D03*
X0442000Y0191202D03*
X0442100Y0191102D03*
X0442200Y0191002D03*
X0444700Y0191002D03*
X0421300Y0253302D03*
X0415000Y0255802D03*
D32*
X0415600Y0255952D03*
X0434500Y0249252D03*
X0434600Y0249252D03*
X0434700Y0249252D03*
X0434800Y0249252D03*
X0434900Y0249152D03*
X0435000Y0249152D03*
X0435100Y0249152D03*
X0435400Y0248952D03*
X0435500Y0248952D03*
X0424300Y0245852D03*
X0423800Y0245652D03*
X0423700Y0245652D03*
X0423600Y0245552D03*
X0421200Y0239052D03*
X0412800Y0242152D03*
X0412900Y0230852D03*
X0443300Y0219252D03*
X0441900Y0214952D03*
X0441900Y0200152D03*
D33*
X0441800Y0200152D03*
X0441800Y0205552D03*
X0443200Y0192452D03*
X0443200Y0219652D03*
X0416100Y0230152D03*
X0421700Y0239852D03*
X0421800Y0239952D03*
X0425700Y0246352D03*
X0425800Y0246352D03*
X0426000Y0246452D03*
X0426100Y0246452D03*
X0426200Y0246452D03*
X0426800Y0246652D03*
X0437400Y0248152D03*
X0437500Y0248152D03*
X0437600Y0248052D03*
X0437700Y0248052D03*
X0437800Y0247952D03*
X0438100Y0247852D03*
X0438400Y0247652D03*
X0415200Y0255852D03*
X0413100Y0242052D03*
D34*
X0442700Y0232352D03*
X0442800Y0232352D03*
X0442900Y0232352D03*
X0443000Y0232352D03*
X0443100Y0232352D03*
D35*
X0443100Y0179252D03*
X0443000Y0179252D03*
X0442900Y0179252D03*
X0442800Y0179252D03*
X0442700Y0179252D03*
D36*
X0437100Y0183252D03*
X0437000Y0183352D03*
X0436800Y0183552D03*
X0436700Y0183652D03*
X0436500Y0183952D03*
X0436400Y0184152D03*
X0436300Y0184252D03*
X0436200Y0184352D03*
X0436100Y0184452D03*
X0436000Y0184552D03*
X0435900Y0184652D03*
X0434800Y0185952D03*
X0430900Y0186352D03*
X0430800Y0186252D03*
X0429600Y0184752D03*
X0429500Y0184652D03*
X0429400Y0184552D03*
X0429300Y0184452D03*
X0429100Y0184152D03*
X0429000Y0184052D03*
X0428900Y0183952D03*
X0428700Y0183752D03*
X0435800Y0195252D03*
X0418800Y0242152D03*
X0419000Y0242252D03*
X0419100Y0242452D03*
X0419200Y0242552D03*
X0422100Y0250352D03*
X0422200Y0250352D03*
X0422300Y0250352D03*
X0422400Y0250352D03*
X0422500Y0250352D03*
X0422600Y0250352D03*
X0422800Y0250452D03*
X0422900Y0250452D03*
X0423000Y0250452D03*
X0423100Y0250452D03*
X0437500Y0252852D03*
X0437600Y0252752D03*
X0437800Y0252652D03*
X0438000Y0252552D03*
X0439000Y0251852D03*
X0439100Y0251852D03*
X0439200Y0251752D03*
X0439300Y0251652D03*
X0439400Y0251552D03*
X0439600Y0251452D03*
X0439700Y0251352D03*
X0439800Y0251252D03*
X0439900Y0251152D03*
X0440000Y0251152D03*
X0440100Y0251052D03*
X0440200Y0250952D03*
X0440400Y0250852D03*
X0440500Y0250752D03*
X0440600Y0250652D03*
X0441000Y0250352D03*
X0441100Y0250252D03*
X0441300Y0250052D03*
X0441500Y0249852D03*
X0441700Y0249752D03*
D37*
X0441400Y0250002D03*
X0440900Y0250402D03*
X0440800Y0250502D03*
X0440700Y0250602D03*
X0440300Y0250902D03*
X0439500Y0251502D03*
X0438900Y0251902D03*
X0438800Y0252002D03*
X0438700Y0252102D03*
X0438600Y0252102D03*
X0438500Y0252202D03*
X0438400Y0252302D03*
X0438300Y0252402D03*
X0438200Y0252402D03*
X0438100Y0252502D03*
X0437900Y0252602D03*
X0437700Y0252702D03*
X0437400Y0252902D03*
X0437200Y0253002D03*
X0437000Y0253102D03*
X0436900Y0253202D03*
X0436800Y0253202D03*
X0436700Y0253302D03*
X0436600Y0253402D03*
X0436500Y0253402D03*
X0436100Y0253602D03*
X0435900Y0253702D03*
X0435700Y0253802D03*
X0422000Y0250302D03*
X0421900Y0250302D03*
X0421800Y0250302D03*
X0421700Y0250202D03*
X0421600Y0250102D03*
X0421500Y0250102D03*
X0421400Y0250102D03*
X0421300Y0250102D03*
X0421200Y0250102D03*
X0416600Y0256202D03*
X0418900Y0242202D03*
X0418700Y0242002D03*
X0420000Y0236602D03*
X0429800Y0202902D03*
X0430100Y0185402D03*
X0428800Y0183802D03*
X0428600Y0183602D03*
X0436600Y0183802D03*
X0436900Y0183502D03*
X0437200Y0183202D03*
D38*
X0429800Y0195552D03*
X0419800Y0236252D03*
X0419900Y0236452D03*
X0418400Y0241652D03*
X0418600Y0241952D03*
X0420500Y0249952D03*
X0420600Y0249952D03*
X0420700Y0249952D03*
X0420800Y0249952D03*
X0420900Y0250052D03*
X0421000Y0250052D03*
X0421100Y0250052D03*
X0434100Y0254552D03*
X0434000Y0254652D03*
X0433900Y0254652D03*
X0433700Y0254752D03*
X0434300Y0254452D03*
X0434400Y0254452D03*
X0434500Y0254452D03*
X0434600Y0254352D03*
X0434900Y0254252D03*
X0435000Y0254152D03*
X0435100Y0254152D03*
X0435200Y0254052D03*
X0435400Y0253952D03*
X0435500Y0253952D03*
X0435600Y0253852D03*
X0435800Y0253752D03*
X0436000Y0253652D03*
X0436200Y0253552D03*
X0436300Y0253452D03*
X0436400Y0253452D03*
X0437100Y0253052D03*
X0437300Y0252952D03*
D39*
X0437200Y0236952D03*
X0437100Y0236952D03*
X0437000Y0236952D03*
X0436900Y0236952D03*
X0436800Y0236952D03*
X0436700Y0236952D03*
X0436600Y0236952D03*
X0436500Y0236952D03*
X0436400Y0236952D03*
X0436300Y0236952D03*
X0436200Y0236952D03*
X0436100Y0236952D03*
X0436000Y0236952D03*
X0413900Y0232052D03*
D40*
X0428600Y0226902D03*
X0428700Y0226902D03*
X0428800Y0226902D03*
X0428900Y0226902D03*
X0429000Y0226902D03*
X0429100Y0226902D03*
X0429200Y0226902D03*
X0429300Y0226902D03*
X0429400Y0226902D03*
X0429500Y0226902D03*
X0429600Y0226902D03*
X0436100Y0226902D03*
X0436200Y0226902D03*
X0436300Y0226902D03*
X0436400Y0226902D03*
X0436500Y0226902D03*
X0436600Y0226902D03*
X0436700Y0226902D03*
X0436800Y0226902D03*
X0436900Y0226902D03*
X0437000Y0226902D03*
X0437100Y0226902D03*
X0437200Y0226902D03*
D41*
X0422700Y0217752D03*
X0437100Y0213452D03*
X0437200Y0213452D03*
X0417800Y0240952D03*
X0418300Y0249152D03*
X0418500Y0249252D03*
X0418600Y0249252D03*
X0418800Y0249352D03*
X0429000Y0256152D03*
X0429100Y0256152D03*
X0429200Y0256152D03*
X0429300Y0256152D03*
X0429400Y0256152D03*
X0429900Y0255952D03*
X0430000Y0255952D03*
X0430100Y0255952D03*
X0431100Y0255652D03*
D42*
X0412100Y0244402D03*
X0408400Y0243102D03*
X0415700Y0236702D03*
X0413700Y0231802D03*
X0419400Y0224402D03*
X0437200Y0199102D03*
D43*
X0436700Y0199152D03*
X0436700Y0175452D03*
X0436600Y0175452D03*
X0436500Y0175452D03*
X0436400Y0175452D03*
X0436300Y0175452D03*
X0436200Y0175452D03*
X0436100Y0175452D03*
X0436800Y0175452D03*
X0436900Y0175452D03*
X0437000Y0175452D03*
X0437100Y0175452D03*
X0437200Y0175452D03*
X0429600Y0175452D03*
X0429500Y0175452D03*
X0429400Y0175452D03*
X0429300Y0175452D03*
X0429200Y0175452D03*
X0429100Y0175452D03*
X0429000Y0175452D03*
X0428900Y0175452D03*
X0428800Y0175452D03*
X0428700Y0175452D03*
X0428600Y0175452D03*
X0418400Y0229252D03*
X0414200Y0232152D03*
D44*
X0437100Y0199102D03*
D45*
X0437000Y0213452D03*
X0436900Y0213452D03*
X0436800Y0213452D03*
X0436700Y0213452D03*
X0422100Y0218352D03*
X0421900Y0218452D03*
X0417400Y0240352D03*
X0417500Y0240552D03*
X0417400Y0248752D03*
X0417800Y0248952D03*
X0418000Y0249052D03*
X0426900Y0256552D03*
X0427000Y0256552D03*
X0427100Y0256552D03*
X0427200Y0256552D03*
X0427300Y0256552D03*
X0427600Y0256452D03*
D46*
X0437000Y0199102D03*
D47*
X0436900Y0199152D03*
D48*
X0436800Y0199152D03*
X0414100Y0232152D03*
D49*
X0419500Y0235152D03*
X0416800Y0248452D03*
X0417100Y0248652D03*
X0417300Y0256352D03*
X0425300Y0256652D03*
X0421600Y0218852D03*
X0422400Y0218252D03*
X0436500Y0213452D03*
X0436600Y0213452D03*
D50*
X0436600Y0199152D03*
D51*
X0436500Y0199152D03*
X0418500Y0229252D03*
D52*
X0416900Y0239552D03*
X0417000Y0239752D03*
X0417100Y0239852D03*
X0416100Y0248052D03*
X0416200Y0248152D03*
X0417500Y0256452D03*
X0422400Y0256752D03*
X0422500Y0256752D03*
X0422600Y0256752D03*
X0422700Y0256752D03*
X0422800Y0256752D03*
X0422900Y0256752D03*
X0423000Y0256752D03*
X0423100Y0256752D03*
X0423200Y0256752D03*
X0423300Y0256752D03*
X0423400Y0256752D03*
X0423500Y0256752D03*
X0423600Y0256752D03*
X0421400Y0219152D03*
X0422500Y0218252D03*
X0436400Y0213452D03*
D53*
X0436400Y0199152D03*
X0436300Y0199152D03*
X0429500Y0199252D03*
D54*
X0428800Y0208352D03*
X0428700Y0208352D03*
X0436100Y0213452D03*
X0436200Y0213452D03*
X0436300Y0213452D03*
X0428800Y0218552D03*
X0428700Y0218552D03*
X0421300Y0219252D03*
X0421200Y0219352D03*
X0416800Y0239452D03*
X0415400Y0247652D03*
X0415500Y0247752D03*
X0415700Y0247852D03*
X0421200Y0256552D03*
X0421300Y0256552D03*
X0421500Y0256652D03*
X0421600Y0256652D03*
D55*
X0436100Y0199152D03*
X0436200Y0199152D03*
D56*
X0429300Y0208452D03*
X0436000Y0213452D03*
X0429300Y0218452D03*
X0429200Y0218452D03*
X0416700Y0239252D03*
X0414600Y0247152D03*
X0414800Y0247252D03*
X0414900Y0247352D03*
X0415200Y0247552D03*
X0421100Y0256452D03*
D57*
X0414400Y0232252D03*
X0436000Y0199152D03*
D58*
X0435900Y0195502D03*
X0429700Y0195702D03*
X0429700Y0202802D03*
X0435900Y0202802D03*
X0418300Y0241602D03*
X0418500Y0241802D03*
X0420300Y0249902D03*
X0420400Y0249902D03*
X0416700Y0256302D03*
X0432900Y0255002D03*
X0433000Y0255002D03*
X0433100Y0255002D03*
X0433300Y0254902D03*
X0433400Y0254902D03*
X0433500Y0254802D03*
X0433600Y0254802D03*
X0433800Y0254702D03*
X0434200Y0254502D03*
X0434700Y0254302D03*
X0434800Y0254302D03*
X0435300Y0254002D03*
D59*
X0433200Y0254952D03*
X0432800Y0255052D03*
X0432600Y0255152D03*
X0432500Y0255252D03*
X0432400Y0255252D03*
X0432300Y0255252D03*
X0432200Y0255352D03*
X0432100Y0255352D03*
X0432000Y0255352D03*
X0431900Y0255452D03*
X0431800Y0255452D03*
X0431700Y0255452D03*
X0431600Y0255552D03*
X0431500Y0255552D03*
X0431400Y0255552D03*
X0430400Y0255852D03*
X0420200Y0249852D03*
X0420100Y0249752D03*
X0420000Y0249752D03*
X0419900Y0249752D03*
X0419700Y0249652D03*
X0419400Y0249552D03*
X0419300Y0249552D03*
X0419100Y0249452D03*
X0416800Y0256252D03*
X0418200Y0241452D03*
X0418100Y0241352D03*
D60*
X0432300Y0226952D03*
X0432400Y0226952D03*
X0432500Y0226952D03*
X0432600Y0226952D03*
X0432700Y0226952D03*
X0432800Y0226952D03*
X0432900Y0226952D03*
X0433000Y0226952D03*
X0433100Y0226952D03*
X0433200Y0226952D03*
X0429000Y0199252D03*
X0432300Y0175552D03*
X0432400Y0175552D03*
X0432500Y0175552D03*
X0432600Y0175552D03*
X0432700Y0175552D03*
X0432800Y0175552D03*
X0432900Y0175552D03*
X0433000Y0175552D03*
X0433100Y0175552D03*
X0433200Y0175552D03*
D61*
X0433200Y0189302D03*
X0410600Y0243502D03*
X0409000Y0243002D03*
X0419600Y0256602D03*
D62*
X0418800Y0256802D03*
X0410400Y0243402D03*
X0410300Y0243302D03*
X0409300Y0242902D03*
X0416000Y0237602D03*
X0419600Y0223602D03*
X0432100Y0189402D03*
X0433100Y0189402D03*
D63*
X0433000Y0189452D03*
X0420400Y0220652D03*
X0419700Y0223052D03*
X0413500Y0231652D03*
X0419200Y0233652D03*
X0410100Y0243152D03*
X0410200Y0243252D03*
X0409400Y0242952D03*
X0418700Y0256752D03*
X0421000Y0255852D03*
D64*
X0420900Y0255902D03*
X0418600Y0256702D03*
X0410000Y0243102D03*
X0409900Y0243002D03*
X0409500Y0242902D03*
X0416100Y0237802D03*
X0420500Y0220502D03*
X0432200Y0189502D03*
X0432300Y0189502D03*
X0432800Y0189502D03*
X0432900Y0189502D03*
D65*
X0419700Y0235902D03*
X0417900Y0241102D03*
X0418000Y0241202D03*
X0418900Y0249402D03*
X0419000Y0249402D03*
X0419200Y0249502D03*
X0419500Y0249602D03*
X0419600Y0249602D03*
X0419800Y0249702D03*
X0416900Y0256302D03*
X0429500Y0256102D03*
X0429600Y0256102D03*
X0429700Y0256102D03*
X0429800Y0256002D03*
X0430200Y0255902D03*
X0430300Y0255902D03*
X0430500Y0255802D03*
X0430600Y0255802D03*
X0430700Y0255802D03*
X0430800Y0255802D03*
X0430900Y0255702D03*
X0431000Y0255702D03*
X0431200Y0255602D03*
X0431300Y0255602D03*
X0432700Y0255102D03*
D66*
X0420800Y0255952D03*
X0420700Y0255952D03*
X0420600Y0255952D03*
X0412800Y0245652D03*
X0409800Y0242952D03*
X0409700Y0242952D03*
X0409600Y0242952D03*
X0419900Y0222552D03*
X0432400Y0189552D03*
X0432500Y0189552D03*
X0432600Y0189552D03*
X0432700Y0189552D03*
D67*
X0429800Y0208552D03*
X0429800Y0218352D03*
X0429700Y0218352D03*
X0421000Y0219652D03*
X0416500Y0238852D03*
X0417900Y0256552D03*
D68*
X0417800Y0256502D03*
X0414700Y0247202D03*
X0414500Y0247102D03*
X0414400Y0247002D03*
X0419400Y0234702D03*
X0419300Y0234402D03*
X0413300Y0231402D03*
X0421100Y0219502D03*
X0429400Y0218402D03*
X0429500Y0218402D03*
X0429600Y0218402D03*
X0429600Y0208502D03*
X0429500Y0208502D03*
X0429400Y0208502D03*
X0429700Y0208502D03*
D69*
X0429600Y0199202D03*
X0414300Y0232202D03*
D70*
X0429400Y0199202D03*
D71*
X0429300Y0199202D03*
X0429200Y0199202D03*
D72*
X0429200Y0208402D03*
X0429100Y0208402D03*
X0429000Y0208402D03*
X0428900Y0208402D03*
X0428900Y0218502D03*
X0429000Y0218502D03*
X0429100Y0218502D03*
X0415000Y0247402D03*
X0415100Y0247502D03*
X0415300Y0247602D03*
X0415600Y0247802D03*
X0417700Y0256502D03*
D73*
X0429100Y0199202D03*
D74*
X0422000Y0218402D03*
X0421800Y0218502D03*
X0417600Y0240702D03*
X0417700Y0240802D03*
X0417900Y0249002D03*
X0418100Y0249102D03*
X0418200Y0249102D03*
X0418400Y0249202D03*
X0418700Y0249302D03*
X0417100Y0256302D03*
X0417000Y0256302D03*
X0427700Y0256402D03*
X0427800Y0256402D03*
X0427900Y0256402D03*
X0428000Y0256402D03*
X0428100Y0256402D03*
X0428200Y0256402D03*
X0428300Y0256302D03*
X0428400Y0256302D03*
X0428500Y0256202D03*
X0428600Y0256202D03*
X0428700Y0256202D03*
X0428800Y0256202D03*
X0428900Y0256202D03*
D75*
X0428900Y0199202D03*
D76*
X0428800Y0199252D03*
D77*
X0428700Y0199252D03*
D78*
X0428600Y0208302D03*
X0428600Y0218602D03*
X0422600Y0218202D03*
X0415800Y0247902D03*
X0415900Y0248002D03*
X0416000Y0248002D03*
X0417600Y0256502D03*
X0421400Y0256602D03*
X0421700Y0256702D03*
X0421800Y0256702D03*
X0421900Y0256702D03*
X0422000Y0256702D03*
X0422100Y0256702D03*
X0422200Y0256702D03*
X0422300Y0256702D03*
D79*
X0413800Y0232052D03*
X0419200Y0225552D03*
X0428600Y0199252D03*
D80*
X0428500Y0199252D03*
X0411300Y0243952D03*
X0419300Y0256952D03*
D81*
X0417200Y0256302D03*
X0425400Y0256602D03*
X0425500Y0256602D03*
X0425600Y0256602D03*
X0425700Y0256602D03*
X0425800Y0256602D03*
X0425900Y0256602D03*
X0426000Y0256602D03*
X0426100Y0256602D03*
X0426200Y0256602D03*
X0426300Y0256602D03*
X0426400Y0256602D03*
X0426500Y0256602D03*
X0426600Y0256602D03*
X0426700Y0256602D03*
X0426800Y0256602D03*
X0427400Y0256502D03*
X0427500Y0256502D03*
X0417700Y0248902D03*
X0417600Y0248902D03*
X0417500Y0248802D03*
X0417300Y0248702D03*
X0417200Y0248702D03*
X0417000Y0248602D03*
X0417300Y0240302D03*
X0419600Y0235502D03*
X0421700Y0218702D03*
X0422200Y0218302D03*
X0422300Y0218302D03*
D82*
X0421500Y0219002D03*
X0417200Y0240102D03*
X0416300Y0248202D03*
X0416400Y0248302D03*
X0416500Y0248302D03*
X0416600Y0248402D03*
X0416700Y0248402D03*
X0416900Y0248502D03*
X0417400Y0256402D03*
X0423700Y0256702D03*
X0423800Y0256702D03*
X0423900Y0256702D03*
X0424000Y0256702D03*
X0424100Y0256702D03*
X0424200Y0256702D03*
X0424300Y0256702D03*
X0424400Y0256702D03*
X0424500Y0256702D03*
X0424600Y0256702D03*
X0424700Y0256702D03*
X0424800Y0256702D03*
X0424900Y0256702D03*
X0425000Y0256702D03*
X0425100Y0256702D03*
X0425200Y0256702D03*
D83*
X0418000Y0256602D03*
X0414300Y0246902D03*
X0414100Y0246702D03*
X0414000Y0246702D03*
X0413900Y0246602D03*
X0416600Y0238902D03*
X0420300Y0221302D03*
X0420900Y0219802D03*
D84*
X0420800Y0219952D03*
X0414200Y0246852D03*
X0418100Y0256652D03*
D85*
X0418300Y0256702D03*
X0413200Y0246002D03*
X0413100Y0245902D03*
X0418100Y0229302D03*
X0420700Y0220102D03*
D86*
X0420600Y0220302D03*
X0420500Y0256002D03*
X0420400Y0256002D03*
X0419800Y0256202D03*
X0419700Y0256302D03*
X0418500Y0256702D03*
X0418400Y0256702D03*
D87*
X0419900Y0256152D03*
X0420000Y0256052D03*
X0420100Y0256052D03*
X0420200Y0256052D03*
X0420300Y0256052D03*
X0413000Y0245852D03*
X0412900Y0245752D03*
X0419800Y0222752D03*
X0420000Y0222252D03*
D88*
X0420100Y0221902D03*
X0420200Y0221602D03*
X0413400Y0231502D03*
X0416400Y0238602D03*
X0413400Y0246202D03*
X0413500Y0246302D03*
X0413700Y0246502D03*
X0413800Y0246502D03*
D89*
X0410800Y0243602D03*
X0408900Y0243002D03*
X0415800Y0237102D03*
X0419500Y0256702D03*
X0419100Y0256902D03*
D90*
X0411100Y0243852D03*
X0411000Y0243752D03*
X0410900Y0243652D03*
X0408800Y0243052D03*
X0419500Y0223952D03*
D91*
X0413600Y0231802D03*
X0408700Y0243102D03*
X0411200Y0243902D03*
X0419200Y0256902D03*
X0419400Y0256902D03*
D92*
X0412000Y0244352D03*
X0411900Y0244352D03*
X0411800Y0244252D03*
X0408500Y0243152D03*
X0419300Y0224752D03*
D93*
X0419100Y0229102D03*
D94*
X0415900Y0237352D03*
X0410700Y0243552D03*
X0419000Y0256852D03*
D95*
X0419000Y0229052D03*
D96*
X0410500Y0243452D03*
X0409200Y0242952D03*
X0409100Y0242952D03*
X0418900Y0256852D03*
D97*
X0418900Y0229052D03*
D98*
X0418800Y0229102D03*
D99*
X0418700Y0229102D03*
D100*
X0418600Y0229202D03*
D101*
X0418300Y0229202D03*
D102*
X0416200Y0238152D03*
X0416300Y0238352D03*
X0413300Y0246052D03*
X0413600Y0246352D03*
X0418200Y0256652D03*
D103*
X0418200Y0229252D03*
D104*
X0414800Y0232902D03*
X0414900Y0233002D03*
X0415000Y0233202D03*
X0415100Y0233302D03*
X0415200Y0233602D03*
X0415400Y0233902D03*
X0415500Y0234102D03*
X0415600Y0234202D03*
D105*
X0415300Y0233752D03*
D106*
X0414700Y0232652D03*
X0414600Y0232452D03*
D107*
X0414500Y0232302D03*
D108*
X0414000Y0232102D03*
D109*
X0412300Y0244502D03*
X0412400Y0244602D03*
X0412600Y0244702D03*
X0412700Y0244702D03*
D110*
X0412500Y0244652D03*
X0412200Y0244452D03*
D111*
X0411700Y0244202D03*
X0411600Y0244202D03*
X0411500Y0244102D03*
X0411400Y0244002D03*
X0408600Y0243102D03*
D112*
X0475854Y0242957D02*
X0475854Y0244692D01*
X0475854Y0243825D02*
X0479323Y0243825D01*
X0479323Y0242957D01*
X0478456Y0241270D02*
X0475854Y0241270D01*
X0478456Y0241270D02*
X0479323Y0240403D01*
X0479323Y0237801D01*
X0475854Y0237801D01*
X0479323Y0236106D02*
X0479323Y0235239D01*
X0477589Y0233504D01*
X0477589Y0231817D02*
X0477589Y0228347D01*
X0478456Y0228347D02*
X0479323Y0229215D01*
X0479323Y0230950D01*
X0478456Y0231817D01*
X0477589Y0231817D01*
X0475854Y0230950D02*
X0475854Y0229215D01*
X0476721Y0228347D01*
X0478456Y0228347D01*
X0479323Y0226661D02*
X0479323Y0224058D01*
X0478456Y0223191D01*
X0476721Y0223191D01*
X0475854Y0224058D01*
X0475854Y0226661D01*
X0481058Y0226661D01*
X0478456Y0221504D02*
X0476721Y0221504D01*
X0475854Y0220637D01*
X0475854Y0218902D01*
X0476721Y0218035D01*
X0478456Y0218035D01*
X0479323Y0218902D01*
X0479323Y0220637D01*
X0478456Y0221504D01*
X0478456Y0216348D02*
X0475854Y0216348D01*
X0475854Y0214613D02*
X0478456Y0214613D01*
X0479323Y0215480D01*
X0478456Y0216348D01*
X0478456Y0214613D02*
X0479323Y0213746D01*
X0479323Y0212878D01*
X0475854Y0212878D01*
X0475854Y0206019D02*
X0475854Y0204284D01*
X0475854Y0205152D02*
X0481058Y0205152D01*
X0481058Y0204284D01*
X0481058Y0201714D02*
X0475854Y0201714D01*
X0475854Y0200847D02*
X0475854Y0202581D01*
X0477589Y0199160D02*
X0477589Y0195690D01*
X0478456Y0195690D02*
X0479323Y0196558D01*
X0479323Y0198292D01*
X0478456Y0199160D01*
X0477589Y0199160D01*
X0475854Y0198292D02*
X0475854Y0196558D01*
X0476721Y0195690D01*
X0478456Y0195690D01*
X0478456Y0194003D02*
X0479323Y0193136D01*
X0479323Y0190534D01*
X0479323Y0188839D02*
X0479323Y0187972D01*
X0477589Y0186237D01*
X0479323Y0186237D02*
X0475854Y0186237D01*
X0476721Y0184550D02*
X0478456Y0184550D01*
X0479323Y0183683D01*
X0479323Y0181948D01*
X0478456Y0181080D01*
X0476721Y0181080D01*
X0475854Y0181948D01*
X0475854Y0183683D01*
X0476721Y0184550D01*
X0476721Y0179394D02*
X0478456Y0179394D01*
X0479323Y0178526D01*
X0479323Y0176791D01*
X0478456Y0175924D01*
X0476721Y0175924D01*
X0475854Y0176791D01*
X0475854Y0178526D01*
X0476721Y0179394D01*
X0472658Y0177659D02*
X0467454Y0177659D01*
X0467454Y0175924D02*
X0467454Y0179394D01*
X0470923Y0175924D02*
X0472658Y0177659D01*
X0470923Y0174237D02*
X0467454Y0172502D01*
X0470923Y0170768D01*
X0475854Y0170768D02*
X0475854Y0173370D01*
X0476721Y0174237D01*
X0480191Y0174237D01*
X0481058Y0173370D01*
X0481058Y0170768D01*
X0475854Y0170768D01*
X0475854Y0190534D02*
X0475854Y0193136D01*
X0476721Y0194003D01*
X0478456Y0194003D01*
X0481058Y0190534D02*
X0475854Y0190534D01*
X0481058Y0200847D02*
X0481058Y0201714D01*
X0479323Y0233504D02*
X0475854Y0233504D01*
X0481058Y0243825D02*
X0481926Y0243825D01*
X0479323Y0246395D02*
X0479323Y0249864D01*
X0475854Y0246395D01*
X0475854Y0249864D01*
X0475854Y0251551D02*
X0479323Y0251551D01*
X0477589Y0251551D02*
X0479323Y0253286D01*
X0479323Y0254153D01*
X0480191Y0261005D02*
X0481058Y0261872D01*
X0481058Y0263607D01*
X0480191Y0264474D01*
X0479323Y0264474D01*
X0475854Y0261005D01*
X0475854Y0264474D01*
D113*
X0412526Y0239616D02*
X0412528Y0239690D01*
X0412534Y0239764D01*
X0412544Y0239837D01*
X0412558Y0239910D01*
X0412575Y0239982D01*
X0412597Y0240052D01*
X0412622Y0240122D01*
X0412651Y0240190D01*
X0412684Y0240256D01*
X0412720Y0240321D01*
X0412760Y0240383D01*
X0412802Y0240444D01*
X0412848Y0240502D01*
X0412897Y0240557D01*
X0412949Y0240610D01*
X0413004Y0240660D01*
X0413061Y0240706D01*
X0413121Y0240750D01*
X0413183Y0240790D01*
X0413247Y0240827D01*
X0413313Y0240861D01*
X0413381Y0240891D01*
X0413450Y0240917D01*
X0413521Y0240940D01*
X0413592Y0240958D01*
X0413665Y0240973D01*
X0413738Y0240984D01*
X0413812Y0240991D01*
X0413886Y0240994D01*
X0413959Y0240993D01*
X0414033Y0240988D01*
X0414107Y0240979D01*
X0414180Y0240966D01*
X0414252Y0240949D01*
X0414323Y0240929D01*
X0414393Y0240904D01*
X0414461Y0240876D01*
X0414528Y0240845D01*
X0414593Y0240809D01*
X0414656Y0240771D01*
X0414717Y0240729D01*
X0414776Y0240683D01*
X0414832Y0240635D01*
X0414885Y0240584D01*
X0414935Y0240530D01*
X0414983Y0240473D01*
X0415027Y0240414D01*
X0415069Y0240352D01*
X0415107Y0240289D01*
X0415141Y0240223D01*
X0415172Y0240156D01*
X0415199Y0240087D01*
X0415222Y0240017D01*
X0415242Y0239946D01*
X0415258Y0239873D01*
X0415270Y0239800D01*
X0415278Y0239727D01*
X0415282Y0239653D01*
X0415282Y0239579D01*
X0415278Y0239505D01*
X0415270Y0239432D01*
X0415258Y0239359D01*
X0415242Y0239286D01*
X0415222Y0239215D01*
X0415199Y0239145D01*
X0415172Y0239076D01*
X0415141Y0239009D01*
X0415107Y0238943D01*
X0415069Y0238880D01*
X0415027Y0238818D01*
X0414983Y0238759D01*
X0414935Y0238702D01*
X0414885Y0238648D01*
X0414832Y0238597D01*
X0414776Y0238549D01*
X0414717Y0238503D01*
X0414656Y0238461D01*
X0414593Y0238423D01*
X0414528Y0238387D01*
X0414461Y0238356D01*
X0414393Y0238328D01*
X0414323Y0238303D01*
X0414252Y0238283D01*
X0414180Y0238266D01*
X0414107Y0238253D01*
X0414033Y0238244D01*
X0413959Y0238239D01*
X0413886Y0238238D01*
X0413812Y0238241D01*
X0413738Y0238248D01*
X0413665Y0238259D01*
X0413592Y0238274D01*
X0413521Y0238292D01*
X0413450Y0238315D01*
X0413381Y0238341D01*
X0413313Y0238371D01*
X0413247Y0238405D01*
X0413183Y0238442D01*
X0413121Y0238482D01*
X0413061Y0238526D01*
X0413004Y0238572D01*
X0412949Y0238622D01*
X0412897Y0238675D01*
X0412848Y0238730D01*
X0412802Y0238788D01*
X0412760Y0238849D01*
X0412720Y0238911D01*
X0412684Y0238976D01*
X0412651Y0239042D01*
X0412622Y0239110D01*
X0412597Y0239180D01*
X0412575Y0239250D01*
X0412558Y0239322D01*
X0412544Y0239395D01*
X0412534Y0239468D01*
X0412528Y0239542D01*
X0412526Y0239616D01*
X0412526Y0232923D02*
X0412528Y0232997D01*
X0412534Y0233071D01*
X0412544Y0233144D01*
X0412558Y0233217D01*
X0412575Y0233289D01*
X0412597Y0233359D01*
X0412622Y0233429D01*
X0412651Y0233497D01*
X0412684Y0233563D01*
X0412720Y0233628D01*
X0412760Y0233690D01*
X0412802Y0233751D01*
X0412848Y0233809D01*
X0412897Y0233864D01*
X0412949Y0233917D01*
X0413004Y0233967D01*
X0413061Y0234013D01*
X0413121Y0234057D01*
X0413183Y0234097D01*
X0413247Y0234134D01*
X0413313Y0234168D01*
X0413381Y0234198D01*
X0413450Y0234224D01*
X0413521Y0234247D01*
X0413592Y0234265D01*
X0413665Y0234280D01*
X0413738Y0234291D01*
X0413812Y0234298D01*
X0413886Y0234301D01*
X0413959Y0234300D01*
X0414033Y0234295D01*
X0414107Y0234286D01*
X0414180Y0234273D01*
X0414252Y0234256D01*
X0414323Y0234236D01*
X0414393Y0234211D01*
X0414461Y0234183D01*
X0414528Y0234152D01*
X0414593Y0234116D01*
X0414656Y0234078D01*
X0414717Y0234036D01*
X0414776Y0233990D01*
X0414832Y0233942D01*
X0414885Y0233891D01*
X0414935Y0233837D01*
X0414983Y0233780D01*
X0415027Y0233721D01*
X0415069Y0233659D01*
X0415107Y0233596D01*
X0415141Y0233530D01*
X0415172Y0233463D01*
X0415199Y0233394D01*
X0415222Y0233324D01*
X0415242Y0233253D01*
X0415258Y0233180D01*
X0415270Y0233107D01*
X0415278Y0233034D01*
X0415282Y0232960D01*
X0415282Y0232886D01*
X0415278Y0232812D01*
X0415270Y0232739D01*
X0415258Y0232666D01*
X0415242Y0232593D01*
X0415222Y0232522D01*
X0415199Y0232452D01*
X0415172Y0232383D01*
X0415141Y0232316D01*
X0415107Y0232250D01*
X0415069Y0232187D01*
X0415027Y0232125D01*
X0414983Y0232066D01*
X0414935Y0232009D01*
X0414885Y0231955D01*
X0414832Y0231904D01*
X0414776Y0231856D01*
X0414717Y0231810D01*
X0414656Y0231768D01*
X0414593Y0231730D01*
X0414528Y0231694D01*
X0414461Y0231663D01*
X0414393Y0231635D01*
X0414323Y0231610D01*
X0414252Y0231590D01*
X0414180Y0231573D01*
X0414107Y0231560D01*
X0414033Y0231551D01*
X0413959Y0231546D01*
X0413886Y0231545D01*
X0413812Y0231548D01*
X0413738Y0231555D01*
X0413665Y0231566D01*
X0413592Y0231581D01*
X0413521Y0231599D01*
X0413450Y0231622D01*
X0413381Y0231648D01*
X0413313Y0231678D01*
X0413247Y0231712D01*
X0413183Y0231749D01*
X0413121Y0231789D01*
X0413061Y0231833D01*
X0413004Y0231879D01*
X0412949Y0231929D01*
X0412897Y0231982D01*
X0412848Y0232037D01*
X0412802Y0232095D01*
X0412760Y0232156D01*
X0412720Y0232218D01*
X0412684Y0232283D01*
X0412651Y0232349D01*
X0412622Y0232417D01*
X0412597Y0232487D01*
X0412575Y0232557D01*
X0412558Y0232629D01*
X0412544Y0232702D01*
X0412534Y0232775D01*
X0412528Y0232849D01*
X0412526Y0232923D01*
X0412526Y0212558D02*
X0412528Y0212632D01*
X0412534Y0212706D01*
X0412544Y0212779D01*
X0412558Y0212852D01*
X0412575Y0212924D01*
X0412597Y0212994D01*
X0412622Y0213064D01*
X0412651Y0213132D01*
X0412684Y0213198D01*
X0412720Y0213263D01*
X0412760Y0213325D01*
X0412802Y0213386D01*
X0412848Y0213444D01*
X0412897Y0213499D01*
X0412949Y0213552D01*
X0413004Y0213602D01*
X0413061Y0213648D01*
X0413121Y0213692D01*
X0413183Y0213732D01*
X0413247Y0213769D01*
X0413313Y0213803D01*
X0413381Y0213833D01*
X0413450Y0213859D01*
X0413521Y0213882D01*
X0413592Y0213900D01*
X0413665Y0213915D01*
X0413738Y0213926D01*
X0413812Y0213933D01*
X0413886Y0213936D01*
X0413959Y0213935D01*
X0414033Y0213930D01*
X0414107Y0213921D01*
X0414180Y0213908D01*
X0414252Y0213891D01*
X0414323Y0213871D01*
X0414393Y0213846D01*
X0414461Y0213818D01*
X0414528Y0213787D01*
X0414593Y0213751D01*
X0414656Y0213713D01*
X0414717Y0213671D01*
X0414776Y0213625D01*
X0414832Y0213577D01*
X0414885Y0213526D01*
X0414935Y0213472D01*
X0414983Y0213415D01*
X0415027Y0213356D01*
X0415069Y0213294D01*
X0415107Y0213231D01*
X0415141Y0213165D01*
X0415172Y0213098D01*
X0415199Y0213029D01*
X0415222Y0212959D01*
X0415242Y0212888D01*
X0415258Y0212815D01*
X0415270Y0212742D01*
X0415278Y0212669D01*
X0415282Y0212595D01*
X0415282Y0212521D01*
X0415278Y0212447D01*
X0415270Y0212374D01*
X0415258Y0212301D01*
X0415242Y0212228D01*
X0415222Y0212157D01*
X0415199Y0212087D01*
X0415172Y0212018D01*
X0415141Y0211951D01*
X0415107Y0211885D01*
X0415069Y0211822D01*
X0415027Y0211760D01*
X0414983Y0211701D01*
X0414935Y0211644D01*
X0414885Y0211590D01*
X0414832Y0211539D01*
X0414776Y0211491D01*
X0414717Y0211445D01*
X0414656Y0211403D01*
X0414593Y0211365D01*
X0414528Y0211329D01*
X0414461Y0211298D01*
X0414393Y0211270D01*
X0414323Y0211245D01*
X0414252Y0211225D01*
X0414180Y0211208D01*
X0414107Y0211195D01*
X0414033Y0211186D01*
X0413959Y0211181D01*
X0413886Y0211180D01*
X0413812Y0211183D01*
X0413738Y0211190D01*
X0413665Y0211201D01*
X0413592Y0211216D01*
X0413521Y0211234D01*
X0413450Y0211257D01*
X0413381Y0211283D01*
X0413313Y0211313D01*
X0413247Y0211347D01*
X0413183Y0211384D01*
X0413121Y0211424D01*
X0413061Y0211468D01*
X0413004Y0211514D01*
X0412949Y0211564D01*
X0412897Y0211617D01*
X0412848Y0211672D01*
X0412802Y0211730D01*
X0412760Y0211791D01*
X0412720Y0211853D01*
X0412684Y0211918D01*
X0412651Y0211984D01*
X0412622Y0212052D01*
X0412597Y0212122D01*
X0412575Y0212192D01*
X0412558Y0212264D01*
X0412544Y0212337D01*
X0412534Y0212410D01*
X0412528Y0212484D01*
X0412526Y0212558D01*
X0412526Y0205865D02*
X0412528Y0205939D01*
X0412534Y0206013D01*
X0412544Y0206086D01*
X0412558Y0206159D01*
X0412575Y0206231D01*
X0412597Y0206301D01*
X0412622Y0206371D01*
X0412651Y0206439D01*
X0412684Y0206505D01*
X0412720Y0206570D01*
X0412760Y0206632D01*
X0412802Y0206693D01*
X0412848Y0206751D01*
X0412897Y0206806D01*
X0412949Y0206859D01*
X0413004Y0206909D01*
X0413061Y0206955D01*
X0413121Y0206999D01*
X0413183Y0207039D01*
X0413247Y0207076D01*
X0413313Y0207110D01*
X0413381Y0207140D01*
X0413450Y0207166D01*
X0413521Y0207189D01*
X0413592Y0207207D01*
X0413665Y0207222D01*
X0413738Y0207233D01*
X0413812Y0207240D01*
X0413886Y0207243D01*
X0413959Y0207242D01*
X0414033Y0207237D01*
X0414107Y0207228D01*
X0414180Y0207215D01*
X0414252Y0207198D01*
X0414323Y0207178D01*
X0414393Y0207153D01*
X0414461Y0207125D01*
X0414528Y0207094D01*
X0414593Y0207058D01*
X0414656Y0207020D01*
X0414717Y0206978D01*
X0414776Y0206932D01*
X0414832Y0206884D01*
X0414885Y0206833D01*
X0414935Y0206779D01*
X0414983Y0206722D01*
X0415027Y0206663D01*
X0415069Y0206601D01*
X0415107Y0206538D01*
X0415141Y0206472D01*
X0415172Y0206405D01*
X0415199Y0206336D01*
X0415222Y0206266D01*
X0415242Y0206195D01*
X0415258Y0206122D01*
X0415270Y0206049D01*
X0415278Y0205976D01*
X0415282Y0205902D01*
X0415282Y0205828D01*
X0415278Y0205754D01*
X0415270Y0205681D01*
X0415258Y0205608D01*
X0415242Y0205535D01*
X0415222Y0205464D01*
X0415199Y0205394D01*
X0415172Y0205325D01*
X0415141Y0205258D01*
X0415107Y0205192D01*
X0415069Y0205129D01*
X0415027Y0205067D01*
X0414983Y0205008D01*
X0414935Y0204951D01*
X0414885Y0204897D01*
X0414832Y0204846D01*
X0414776Y0204798D01*
X0414717Y0204752D01*
X0414656Y0204710D01*
X0414593Y0204672D01*
X0414528Y0204636D01*
X0414461Y0204605D01*
X0414393Y0204577D01*
X0414323Y0204552D01*
X0414252Y0204532D01*
X0414180Y0204515D01*
X0414107Y0204502D01*
X0414033Y0204493D01*
X0413959Y0204488D01*
X0413886Y0204487D01*
X0413812Y0204490D01*
X0413738Y0204497D01*
X0413665Y0204508D01*
X0413592Y0204523D01*
X0413521Y0204541D01*
X0413450Y0204564D01*
X0413381Y0204590D01*
X0413313Y0204620D01*
X0413247Y0204654D01*
X0413183Y0204691D01*
X0413121Y0204731D01*
X0413061Y0204775D01*
X0413004Y0204821D01*
X0412949Y0204871D01*
X0412897Y0204924D01*
X0412848Y0204979D01*
X0412802Y0205037D01*
X0412760Y0205098D01*
X0412720Y0205160D01*
X0412684Y0205225D01*
X0412651Y0205291D01*
X0412622Y0205359D01*
X0412597Y0205429D01*
X0412575Y0205499D01*
X0412558Y0205571D01*
X0412544Y0205644D01*
X0412534Y0205717D01*
X0412528Y0205791D01*
X0412526Y0205865D01*
M02*
