G75*
%MOIN*%
%OFA0B0*%
%FSLAX25Y25*%
%IPPOS*%
%LPD*%
%AMOC8*
5,1,8,0,0,1.08239X$1,22.5*
%
%ADD10C,0.02400*%
%ADD11C,0.00300*%
%ADD12C,0.00500*%
%ADD13C,0.00400*%
%ADD14C,0.00600*%
%ADD15C,0.00800*%
%ADD16C,0.00200*%
%ADD17C,0.01181*%
%ADD18C,0.00000*%
%ADD19C,0.00787*%
%ADD20R,0.00984X0.05118*%
D10*
X0372094Y0046210D02*
X0372094Y0085580D01*
X0372127Y0085721D02*
X0376606Y0085721D01*
X0376626Y0085719D01*
X0376646Y0085715D01*
X0376665Y0085707D01*
X0376682Y0085696D01*
X0376697Y0085683D01*
X0376710Y0085668D01*
X0376721Y0085651D01*
X0376729Y0085632D01*
X0376733Y0085612D01*
X0376735Y0085592D01*
X0416134Y0066838D02*
X0416134Y0059313D01*
X0416134Y0054513D02*
X0416134Y0046988D01*
X0416363Y0046759D01*
X0443519Y0046053D02*
X0443551Y0046051D01*
X0443583Y0046046D01*
X0443613Y0046037D01*
X0443643Y0046025D01*
X0443671Y0046009D01*
X0443697Y0045991D01*
X0443721Y0045969D01*
X0443743Y0045945D01*
X0443761Y0045919D01*
X0443777Y0045891D01*
X0443789Y0045861D01*
X0443798Y0045831D01*
X0443803Y0045799D01*
X0443805Y0045767D01*
X0445913Y0046210D02*
X0372094Y0046210D01*
X0416134Y0066838D02*
X0418337Y0069040D01*
X0421731Y0072434D02*
X0423933Y0074637D01*
X0423933Y0083482D01*
X0423933Y0088282D02*
X0423933Y0097128D01*
X0429441Y0102635D01*
X0431389Y0102635D01*
X0432869Y0109076D01*
X0433797Y0110093D01*
X0433881Y0116528D01*
X0433943Y0121328D02*
X0434027Y0127763D01*
X0438131Y0134341D02*
X0438137Y0134507D01*
X0438140Y0134674D01*
X0438139Y0134841D01*
X0438133Y0135007D01*
X0438124Y0135174D01*
X0438111Y0135340D01*
X0438094Y0135506D01*
X0438073Y0135671D01*
X0438048Y0135836D01*
X0438019Y0136000D01*
X0437987Y0136164D01*
X0437950Y0136327D01*
X0437910Y0136488D01*
X0437866Y0136649D01*
X0437818Y0136809D01*
X0437767Y0136967D01*
X0437711Y0137125D01*
X0437652Y0137281D01*
X0437590Y0137435D01*
X0437780Y0140416D01*
X0438087Y0145206D02*
X0438277Y0148187D01*
X0438313Y0148301D01*
X0438346Y0148416D01*
X0438375Y0148532D01*
X0438400Y0148649D01*
X0438422Y0148766D01*
X0438440Y0148884D01*
X0438454Y0149003D01*
X0438464Y0149122D01*
X0438470Y0149242D01*
X0438473Y0149362D01*
X0438472Y0149481D01*
X0438467Y0149601D01*
X0438458Y0149720D01*
X0438445Y0149839D01*
X0438428Y0149957D01*
X0438408Y0150075D01*
X0438384Y0150192D01*
X0438356Y0150309D01*
X0438324Y0150424D01*
X0438289Y0150539D01*
X0438250Y0150652D01*
X0438208Y0150763D01*
X0438161Y0150874D01*
X0438112Y0150983D01*
X0438059Y0151090D01*
X0438002Y0151195D01*
X0437942Y0151299D01*
X0437879Y0151401D01*
X0437813Y0151500D01*
X0437743Y0151598D01*
X0437671Y0151693D01*
X0437595Y0151785D01*
X0437517Y0151876D01*
X0437435Y0151963D01*
X0437351Y0152048D01*
X0437264Y0152131D01*
X0437175Y0152210D01*
X0437083Y0152287D01*
X0436989Y0152360D01*
X0436892Y0152431D01*
X0436793Y0152498D01*
X0436692Y0152562D01*
X0436589Y0152623D01*
X0436484Y0152681D01*
X0436378Y0152735D01*
X0436269Y0152786D01*
X0436159Y0152833D01*
X0436048Y0152877D01*
X0435935Y0152917D01*
X0435076Y0152763D02*
X0429231Y0152718D01*
X0424432Y0152682D02*
X0418587Y0152637D01*
X0413787Y0152601D02*
X0407943Y0152556D01*
X0433788Y0128158D02*
X0433941Y0128224D01*
X0434093Y0128294D01*
X0434242Y0128367D01*
X0434390Y0128444D01*
X0434536Y0128525D01*
X0434681Y0128608D01*
X0434823Y0128695D01*
X0434963Y0128786D01*
X0435101Y0128879D01*
X0435237Y0128976D01*
X0435370Y0129076D01*
X0435501Y0129179D01*
X0435629Y0129286D01*
X0435755Y0129395D01*
X0435879Y0129507D01*
X0436000Y0129622D01*
X0436117Y0129740D01*
X0436233Y0129860D01*
X0436345Y0129983D01*
X0463297Y0127940D02*
X0463096Y0123123D01*
X0462895Y0118327D02*
X0462693Y0113510D01*
X0462492Y0108714D02*
X0462290Y0103898D01*
X0465815Y0100039D01*
X0466899Y0099291D02*
X0475731Y0099056D01*
X0487030Y0105077D02*
X0487220Y0105360D01*
X0487402Y0105647D01*
X0487577Y0105939D01*
X0487745Y0106235D01*
X0487906Y0106535D01*
X0488059Y0106839D01*
X0488205Y0107146D01*
X0488343Y0107457D01*
X0488473Y0107771D01*
X0488596Y0108089D01*
X0488711Y0108409D01*
X0488818Y0108732D01*
X0488918Y0109057D01*
X0489009Y0109385D01*
X0489092Y0109715D01*
X0489167Y0110047D01*
X0489234Y0110381D01*
X0489292Y0110716D01*
X0489343Y0111052D01*
X0489385Y0111390D01*
X0489419Y0111729D01*
X0489444Y0112068D01*
X0489462Y0112408D01*
X0489471Y0112748D01*
X0489471Y0113088D01*
X0494833Y0113205D01*
X0499632Y0113309D02*
X0504994Y0113426D01*
X0509793Y0113530D02*
X0515155Y0113647D01*
X0534496Y0115107D02*
X0534496Y0252903D01*
X0534497Y0252903D02*
X0534488Y0253617D01*
X0534463Y0254330D01*
X0534419Y0255042D01*
X0534359Y0255753D01*
X0534282Y0256462D01*
X0534187Y0257169D01*
X0534076Y0257874D01*
X0533947Y0258576D01*
X0533801Y0259275D01*
X0533639Y0259970D01*
X0533460Y0260660D01*
X0533264Y0261346D01*
X0533052Y0262028D01*
X0532823Y0262704D01*
X0532578Y0263374D01*
X0532317Y0264038D01*
X0532040Y0264695D01*
X0531747Y0265346D01*
X0531439Y0265990D01*
X0531115Y0266625D01*
X0530776Y0267253D01*
X0530421Y0267873D01*
X0530052Y0268483D01*
X0529668Y0269085D01*
X0529270Y0269677D01*
X0528858Y0270259D01*
X0528431Y0270831D01*
X0527991Y0271393D01*
X0527538Y0271944D01*
X0527071Y0272484D01*
X0526591Y0273012D01*
X0526099Y0273529D01*
X0525595Y0274033D01*
X0525078Y0274525D01*
X0524550Y0275005D01*
X0524010Y0275472D01*
X0523459Y0275925D01*
X0522897Y0276365D01*
X0522325Y0276792D01*
X0521743Y0277204D01*
X0521151Y0277602D01*
X0520549Y0277986D01*
X0519939Y0278355D01*
X0519319Y0278710D01*
X0518691Y0279049D01*
X0518056Y0279373D01*
X0517412Y0279681D01*
X0516761Y0279974D01*
X0516104Y0280251D01*
X0515440Y0280512D01*
X0514770Y0280757D01*
X0514094Y0280986D01*
X0513412Y0281198D01*
X0512726Y0281394D01*
X0512036Y0281573D01*
X0511341Y0281735D01*
X0510642Y0281881D01*
X0509940Y0282010D01*
X0509235Y0282121D01*
X0508528Y0282216D01*
X0507819Y0282293D01*
X0507108Y0282353D01*
X0506396Y0282397D01*
X0505683Y0282422D01*
X0504969Y0282431D01*
X0504969Y0282430D02*
X0445913Y0282430D01*
X0454280Y0279721D02*
X0457824Y0279721D01*
X0457824Y0265155D01*
X0461761Y0265155D01*
X0461761Y0279328D01*
X0466485Y0279328D01*
X0466485Y0265155D01*
X0471210Y0265155D01*
X0471210Y0279328D01*
X0475540Y0279328D01*
X0475540Y0265548D01*
X0479871Y0265548D01*
X0479871Y0279328D01*
X0495619Y0279328D01*
X0454280Y0279721D02*
X0454280Y0260430D01*
X0454280Y0260036D02*
X0454280Y0257674D01*
X0479871Y0257674D01*
X0445913Y0282430D02*
X0444962Y0282419D01*
X0444011Y0282384D01*
X0443061Y0282327D01*
X0442113Y0282246D01*
X0441167Y0282143D01*
X0440224Y0282017D01*
X0439285Y0281868D01*
X0438349Y0281697D01*
X0437418Y0281502D01*
X0436491Y0281286D01*
X0435570Y0281047D01*
X0434655Y0280786D01*
X0433747Y0280503D01*
X0432846Y0280198D01*
X0431952Y0279872D01*
X0431067Y0279523D01*
X0430190Y0279154D01*
X0429322Y0278764D01*
X0428465Y0278352D01*
X0427617Y0277920D01*
X0426780Y0277468D01*
X0425954Y0276996D01*
X0425140Y0276504D01*
X0424338Y0275992D01*
X0423548Y0275461D01*
X0422772Y0274911D01*
X0422009Y0274343D01*
X0421260Y0273756D01*
X0420526Y0273151D01*
X0419806Y0272529D01*
X0419101Y0271889D01*
X0418413Y0271233D01*
X0417740Y0270560D01*
X0417084Y0269872D01*
X0416444Y0269167D01*
X0415822Y0268447D01*
X0415217Y0267713D01*
X0414630Y0266964D01*
X0414062Y0266201D01*
X0413512Y0265425D01*
X0412981Y0264635D01*
X0412469Y0263833D01*
X0411977Y0263019D01*
X0411505Y0262193D01*
X0411053Y0261356D01*
X0410621Y0260508D01*
X0410209Y0259651D01*
X0409819Y0258783D01*
X0409450Y0257906D01*
X0409101Y0257021D01*
X0408775Y0256127D01*
X0408470Y0255226D01*
X0408187Y0254318D01*
X0407926Y0253403D01*
X0407687Y0252482D01*
X0407471Y0251555D01*
X0407276Y0250624D01*
X0407105Y0249688D01*
X0406956Y0248749D01*
X0406830Y0247806D01*
X0406727Y0246860D01*
X0406646Y0245912D01*
X0406589Y0244962D01*
X0406554Y0244011D01*
X0406543Y0243060D01*
X0406543Y0115107D01*
X0406544Y0115107D02*
X0406535Y0114393D01*
X0406510Y0113680D01*
X0406466Y0112968D01*
X0406406Y0112257D01*
X0406329Y0111548D01*
X0406234Y0110841D01*
X0406123Y0110136D01*
X0405994Y0109434D01*
X0405848Y0108735D01*
X0405686Y0108040D01*
X0405507Y0107350D01*
X0405311Y0106664D01*
X0405099Y0105982D01*
X0404870Y0105306D01*
X0404625Y0104636D01*
X0404364Y0103972D01*
X0404087Y0103315D01*
X0403794Y0102664D01*
X0403486Y0102020D01*
X0403162Y0101385D01*
X0402823Y0100757D01*
X0402468Y0100137D01*
X0402099Y0099527D01*
X0401715Y0098925D01*
X0401317Y0098333D01*
X0400905Y0097751D01*
X0400478Y0097179D01*
X0400038Y0096617D01*
X0399585Y0096066D01*
X0399118Y0095526D01*
X0398638Y0094998D01*
X0398146Y0094481D01*
X0397642Y0093977D01*
X0397125Y0093485D01*
X0396597Y0093005D01*
X0396057Y0092538D01*
X0395506Y0092085D01*
X0394944Y0091645D01*
X0394372Y0091218D01*
X0393790Y0090806D01*
X0393198Y0090408D01*
X0392596Y0090024D01*
X0391986Y0089655D01*
X0391366Y0089300D01*
X0390738Y0088961D01*
X0390103Y0088637D01*
X0389459Y0088329D01*
X0388808Y0088036D01*
X0388151Y0087759D01*
X0387487Y0087498D01*
X0386817Y0087253D01*
X0386141Y0087024D01*
X0385459Y0086812D01*
X0384773Y0086616D01*
X0384083Y0086437D01*
X0383388Y0086275D01*
X0382689Y0086129D01*
X0381987Y0086000D01*
X0381282Y0085889D01*
X0380575Y0085794D01*
X0379866Y0085717D01*
X0379155Y0085657D01*
X0378443Y0085613D01*
X0377730Y0085588D01*
X0377016Y0085579D01*
X0445913Y0046210D02*
X0445913Y0036367D01*
X0445914Y0036367D02*
X0445916Y0036229D01*
X0445922Y0036091D01*
X0445931Y0035953D01*
X0445945Y0035816D01*
X0445962Y0035679D01*
X0445984Y0035543D01*
X0446009Y0035407D01*
X0446037Y0035272D01*
X0446070Y0035138D01*
X0446106Y0035005D01*
X0446146Y0034873D01*
X0446190Y0034742D01*
X0446238Y0034612D01*
X0446289Y0034484D01*
X0446343Y0034357D01*
X0446401Y0034232D01*
X0446463Y0034108D01*
X0446528Y0033987D01*
X0446596Y0033867D01*
X0446668Y0033749D01*
X0446743Y0033633D01*
X0446822Y0033519D01*
X0446903Y0033408D01*
X0446988Y0033299D01*
X0447075Y0033192D01*
X0447166Y0033088D01*
X0447259Y0032986D01*
X0447355Y0032887D01*
X0447454Y0032791D01*
X0447556Y0032698D01*
X0447660Y0032607D01*
X0447767Y0032520D01*
X0447876Y0032435D01*
X0447987Y0032354D01*
X0448101Y0032275D01*
X0448217Y0032200D01*
X0448335Y0032128D01*
X0448455Y0032060D01*
X0448576Y0031995D01*
X0448700Y0031933D01*
X0448825Y0031875D01*
X0448952Y0031821D01*
X0449080Y0031770D01*
X0449210Y0031722D01*
X0449341Y0031678D01*
X0449473Y0031638D01*
X0449606Y0031602D01*
X0449740Y0031569D01*
X0449875Y0031541D01*
X0450011Y0031516D01*
X0450147Y0031494D01*
X0450284Y0031477D01*
X0450421Y0031463D01*
X0450559Y0031454D01*
X0450697Y0031448D01*
X0450835Y0031446D01*
X0485283Y0031446D01*
X0485421Y0031448D01*
X0485559Y0031454D01*
X0485697Y0031463D01*
X0485834Y0031477D01*
X0485971Y0031494D01*
X0486107Y0031516D01*
X0486243Y0031541D01*
X0486378Y0031569D01*
X0486512Y0031602D01*
X0486645Y0031638D01*
X0486777Y0031678D01*
X0486908Y0031722D01*
X0487038Y0031770D01*
X0487166Y0031821D01*
X0487293Y0031875D01*
X0487418Y0031933D01*
X0487542Y0031995D01*
X0487663Y0032060D01*
X0487783Y0032128D01*
X0487901Y0032200D01*
X0488017Y0032275D01*
X0488131Y0032354D01*
X0488242Y0032435D01*
X0488351Y0032520D01*
X0488458Y0032607D01*
X0488562Y0032698D01*
X0488664Y0032791D01*
X0488763Y0032887D01*
X0488859Y0032986D01*
X0488952Y0033088D01*
X0489043Y0033192D01*
X0489130Y0033299D01*
X0489215Y0033408D01*
X0489296Y0033519D01*
X0489375Y0033633D01*
X0489450Y0033749D01*
X0489522Y0033867D01*
X0489590Y0033987D01*
X0489655Y0034108D01*
X0489717Y0034232D01*
X0489775Y0034357D01*
X0489829Y0034484D01*
X0489880Y0034612D01*
X0489928Y0034742D01*
X0489972Y0034873D01*
X0490012Y0035005D01*
X0490048Y0035138D01*
X0490081Y0035272D01*
X0490109Y0035407D01*
X0490134Y0035543D01*
X0490156Y0035679D01*
X0490173Y0035816D01*
X0490187Y0035953D01*
X0490196Y0036091D01*
X0490202Y0036229D01*
X0490204Y0036367D01*
X0490205Y0036367D02*
X0490205Y0046210D01*
X0568945Y0046210D01*
X0568945Y0085580D01*
X0568819Y0085696D02*
X0563694Y0085696D01*
X0563679Y0085695D01*
X0563664Y0085690D01*
X0563651Y0085683D01*
X0563639Y0085673D01*
X0563629Y0085661D01*
X0563622Y0085648D01*
X0563617Y0085633D01*
X0563616Y0085618D01*
X0526748Y0087961D02*
X0526675Y0081291D01*
X0526623Y0076492D02*
X0526550Y0069822D01*
X0526498Y0065022D02*
X0526425Y0058353D01*
X0526373Y0053553D02*
X0526300Y0046884D01*
X0526800Y0092760D02*
X0526873Y0099430D01*
X0526873Y0099429D02*
X0526830Y0099420D01*
X0526786Y0099414D01*
X0526742Y0099412D01*
X0526698Y0099414D01*
X0526654Y0099420D01*
X0526611Y0099429D01*
X0526569Y0099442D01*
X0526528Y0099459D01*
X0526489Y0099480D01*
X0526452Y0099503D01*
X0526417Y0099530D01*
X0526384Y0099560D01*
X0526355Y0099593D01*
X0526328Y0099628D01*
X0526304Y0099665D01*
X0526284Y0099704D01*
X0526267Y0099745D01*
X0526253Y0099787D01*
X0526784Y0100523D02*
X0526799Y0100816D01*
X0526806Y0101110D01*
X0526806Y0101403D01*
X0526800Y0101697D01*
X0526786Y0101990D01*
X0526766Y0102283D01*
X0526738Y0102575D01*
X0526704Y0102866D01*
X0526663Y0103157D01*
X0526614Y0103446D01*
X0526560Y0103735D01*
X0526498Y0104022D01*
X0526429Y0104307D01*
X0526354Y0104591D01*
X0526272Y0104873D01*
X0526183Y0105153D01*
X0526088Y0105430D01*
X0525986Y0105705D01*
X0525878Y0105978D01*
X0525764Y0106249D01*
X0525643Y0106516D01*
X0525515Y0106780D01*
X0525382Y0107042D01*
X0525242Y0107300D01*
X0525096Y0107555D01*
X0521933Y0111125D02*
X0521697Y0111300D01*
X0521458Y0111470D01*
X0521214Y0111634D01*
X0520967Y0111792D01*
X0520716Y0111944D01*
X0520462Y0112091D01*
X0520204Y0112231D01*
X0519943Y0112365D01*
X0519679Y0112493D01*
X0519412Y0112615D01*
X0519142Y0112730D01*
X0518869Y0112839D01*
X0518594Y0112941D01*
X0518317Y0113037D01*
X0518037Y0113126D01*
X0517755Y0113209D01*
X0517472Y0113285D01*
X0517186Y0113354D01*
X0516900Y0113416D01*
X0516611Y0113472D01*
X0516322Y0113520D01*
X0516031Y0113562D01*
X0515740Y0113597D01*
X0515448Y0113625D01*
X0515155Y0113646D01*
X0483689Y0101665D02*
X0483410Y0101470D01*
X0483127Y0101281D01*
X0482839Y0101100D01*
X0482546Y0100926D01*
X0482250Y0100759D01*
X0481949Y0100599D01*
X0481645Y0100447D01*
X0481337Y0100302D01*
X0481026Y0100165D01*
X0480711Y0100036D01*
X0480393Y0099914D01*
X0480073Y0099800D01*
X0479749Y0099694D01*
X0479423Y0099596D01*
X0479095Y0099506D01*
X0478765Y0099424D01*
X0478433Y0099350D01*
X0478099Y0099284D01*
X0477764Y0099227D01*
X0477427Y0099178D01*
X0477089Y0099137D01*
X0476751Y0099104D01*
X0476411Y0099080D01*
X0476071Y0099064D01*
X0475731Y0099056D01*
X0463498Y0132735D02*
X0463700Y0137552D01*
X0463630Y0137745D02*
X0463630Y0145188D01*
X0463630Y0149988D02*
X0463630Y0157430D01*
X0463629Y0157430D02*
X0463623Y0157526D01*
X0463621Y0157621D01*
X0463623Y0157717D01*
X0463628Y0157812D01*
X0463638Y0157907D01*
X0463651Y0158001D01*
X0463668Y0158095D01*
X0463688Y0158189D01*
X0463713Y0158281D01*
X0463741Y0158372D01*
X0463773Y0158462D01*
X0463808Y0158551D01*
X0463847Y0158638D01*
X0463890Y0158723D01*
X0463936Y0158807D01*
X0463985Y0158889D01*
X0464037Y0158968D01*
X0464093Y0159046D01*
X0464151Y0159121D01*
X0464213Y0159194D01*
X0464278Y0159265D01*
X0464345Y0159332D01*
X0464415Y0159397D01*
X0464488Y0159459D01*
X0464563Y0159518D01*
X0464640Y0159574D01*
X0464719Y0159627D01*
X0464801Y0159677D01*
X0464884Y0159723D01*
X0464970Y0159766D01*
X0465057Y0159805D01*
X0465145Y0159841D01*
X0465235Y0159873D01*
X0465326Y0159902D01*
X0465418Y0159927D01*
X0465511Y0159948D01*
X0465605Y0159965D01*
X0465700Y0159979D01*
X0465794Y0159989D01*
X0465795Y0159988D02*
X0469104Y0160011D01*
X0473904Y0160044D02*
X0477213Y0160067D01*
X0477323Y0160025D01*
X0477432Y0159980D01*
X0477539Y0159931D01*
X0477644Y0159879D01*
X0477748Y0159823D01*
X0477850Y0159764D01*
X0477950Y0159701D01*
X0478047Y0159636D01*
X0478143Y0159567D01*
X0478236Y0159495D01*
X0478327Y0159420D01*
X0478415Y0159342D01*
X0478501Y0159262D01*
X0478584Y0159178D01*
X0478665Y0159092D01*
X0478742Y0159003D01*
X0478816Y0158912D01*
X0478888Y0158819D01*
X0478956Y0158723D01*
X0479021Y0158625D01*
X0479083Y0158525D01*
X0479142Y0158422D01*
X0479197Y0158319D01*
X0479249Y0158213D01*
X0479297Y0158105D01*
X0479342Y0157997D01*
X0479383Y0157886D01*
X0479421Y0157775D01*
X0479455Y0157662D01*
X0479485Y0157548D01*
X0479512Y0157433D01*
X0479534Y0157318D01*
X0479553Y0157202D01*
X0479568Y0157085D01*
X0479580Y0156968D01*
X0479587Y0156850D01*
X0479591Y0156733D01*
X0479590Y0156615D01*
X0479586Y0156497D01*
X0479578Y0156380D01*
X0479566Y0156262D01*
X0479551Y0156146D01*
X0479531Y0156030D01*
X0479508Y0155914D01*
X0479481Y0155800D01*
X0479450Y0155686D01*
X0479416Y0155573D01*
X0479378Y0155462D01*
X0479377Y0155462D02*
X0479380Y0155230D01*
X0479388Y0154999D01*
X0479402Y0154767D01*
X0479421Y0154536D01*
X0479445Y0154306D01*
X0479475Y0154076D01*
X0479510Y0153847D01*
X0479551Y0153619D01*
X0479597Y0153392D01*
X0479649Y0153166D01*
X0479705Y0152941D01*
X0479767Y0152718D01*
X0479835Y0152496D01*
X0479907Y0152276D01*
X0479985Y0152057D01*
X0480067Y0151841D01*
X0480155Y0151626D01*
X0480248Y0151414D01*
X0480346Y0151204D01*
X0480448Y0150996D01*
X0480556Y0150791D01*
X0480668Y0150588D01*
X0480785Y0150388D01*
X0484146Y0147027D02*
X0484346Y0146910D01*
X0484549Y0146798D01*
X0484754Y0146690D01*
X0484962Y0146588D01*
X0485172Y0146490D01*
X0485384Y0146397D01*
X0485599Y0146309D01*
X0485815Y0146227D01*
X0486034Y0146149D01*
X0486254Y0146077D01*
X0486476Y0146009D01*
X0486699Y0145947D01*
X0486924Y0145891D01*
X0487150Y0145839D01*
X0487377Y0145793D01*
X0487605Y0145752D01*
X0487834Y0145717D01*
X0488064Y0145687D01*
X0488294Y0145663D01*
X0488525Y0145644D01*
X0488757Y0145630D01*
X0488988Y0145622D01*
X0489220Y0145619D01*
X0489782Y0145673D02*
X0494773Y0145673D01*
X0499573Y0145673D02*
X0504565Y0145673D01*
X0509365Y0145673D02*
X0514356Y0145673D01*
X0519156Y0145673D02*
X0524147Y0145673D01*
X0528947Y0145673D02*
X0533938Y0145673D01*
X0534496Y0115107D02*
X0534505Y0114393D01*
X0534530Y0113680D01*
X0534574Y0112968D01*
X0534634Y0112257D01*
X0534711Y0111548D01*
X0534806Y0110841D01*
X0534917Y0110136D01*
X0535046Y0109434D01*
X0535192Y0108735D01*
X0535354Y0108040D01*
X0535533Y0107350D01*
X0535729Y0106664D01*
X0535941Y0105982D01*
X0536170Y0105306D01*
X0536415Y0104636D01*
X0536676Y0103972D01*
X0536953Y0103315D01*
X0537246Y0102664D01*
X0537554Y0102020D01*
X0537878Y0101385D01*
X0538217Y0100757D01*
X0538572Y0100137D01*
X0538941Y0099527D01*
X0539325Y0098925D01*
X0539723Y0098333D01*
X0540135Y0097751D01*
X0540562Y0097179D01*
X0541002Y0096617D01*
X0541455Y0096066D01*
X0541922Y0095526D01*
X0542402Y0094998D01*
X0542894Y0094481D01*
X0543398Y0093977D01*
X0543915Y0093485D01*
X0544443Y0093005D01*
X0544983Y0092538D01*
X0545534Y0092085D01*
X0546096Y0091645D01*
X0546668Y0091218D01*
X0547250Y0090806D01*
X0547842Y0090408D01*
X0548444Y0090024D01*
X0549054Y0089655D01*
X0549674Y0089300D01*
X0550302Y0088961D01*
X0550937Y0088637D01*
X0551581Y0088329D01*
X0552232Y0088036D01*
X0552889Y0087759D01*
X0553553Y0087498D01*
X0554223Y0087253D01*
X0554899Y0087024D01*
X0555581Y0086812D01*
X0556267Y0086616D01*
X0556957Y0086437D01*
X0557652Y0086275D01*
X0558351Y0086129D01*
X0559053Y0086000D01*
X0559758Y0085889D01*
X0560465Y0085794D01*
X0561174Y0085717D01*
X0561885Y0085657D01*
X0562597Y0085613D01*
X0563310Y0085588D01*
X0564024Y0085579D01*
D11*
X0555978Y0055384D02*
X0555978Y0051681D01*
X0555361Y0051681D02*
X0556595Y0051681D01*
X0557816Y0052298D02*
X0558433Y0052915D01*
X0560285Y0052915D01*
X0560285Y0053532D02*
X0560285Y0051681D01*
X0558433Y0051681D01*
X0557816Y0052298D01*
X0558433Y0054150D02*
X0559668Y0054150D01*
X0560285Y0053532D01*
X0561499Y0054150D02*
X0561499Y0052298D01*
X0562117Y0051681D01*
X0563968Y0051681D01*
X0563968Y0051064D02*
X0563351Y0050447D01*
X0562734Y0050447D01*
X0563968Y0051064D02*
X0563968Y0054150D01*
X0555978Y0055384D02*
X0555361Y0055384D01*
X0553529Y0054150D02*
X0554146Y0053532D01*
X0554146Y0052915D01*
X0551678Y0052915D01*
X0551678Y0052298D02*
X0551678Y0053532D01*
X0552295Y0054150D01*
X0553529Y0054150D01*
X0553529Y0051681D02*
X0552295Y0051681D01*
X0551678Y0052298D01*
X0550460Y0054150D02*
X0549843Y0054150D01*
X0548608Y0052915D01*
X0548608Y0051681D02*
X0548608Y0054150D01*
X0543704Y0051681D02*
X0542470Y0051681D01*
X0543087Y0051681D02*
X0543087Y0055384D01*
X0542470Y0055384D01*
X0540632Y0055384D02*
X0540632Y0051681D01*
X0541249Y0051681D02*
X0540014Y0051681D01*
X0538800Y0052915D02*
X0536331Y0052915D01*
X0536331Y0052298D02*
X0536331Y0053532D01*
X0536948Y0054150D01*
X0538183Y0054150D01*
X0538800Y0053532D01*
X0538800Y0052915D01*
X0538183Y0051681D02*
X0536948Y0051681D01*
X0536331Y0052298D01*
X0535117Y0052298D02*
X0535117Y0053532D01*
X0534500Y0054150D01*
X0532648Y0054150D01*
X0532648Y0055384D02*
X0532648Y0051681D01*
X0534500Y0051681D01*
X0535117Y0052298D01*
X0540014Y0055384D02*
X0540632Y0055384D01*
X0411627Y0050555D02*
X0410392Y0050555D01*
X0411009Y0050555D02*
X0411009Y0054258D01*
X0410392Y0054258D01*
X0408561Y0053024D02*
X0409178Y0052406D01*
X0409178Y0050555D01*
X0407326Y0050555D01*
X0406709Y0051172D01*
X0407326Y0051789D01*
X0409178Y0051789D01*
X0408561Y0053024D02*
X0407326Y0053024D01*
X0405495Y0052406D02*
X0405495Y0050555D01*
X0405495Y0052406D02*
X0404878Y0053024D01*
X0403026Y0053024D01*
X0403026Y0050555D01*
X0401812Y0050555D02*
X0399960Y0050555D01*
X0399343Y0051172D01*
X0399343Y0052406D01*
X0399960Y0053024D01*
X0401812Y0053024D01*
X0401812Y0049938D01*
X0401194Y0049320D01*
X0400577Y0049320D01*
X0398122Y0050555D02*
X0396887Y0050555D01*
X0397505Y0050555D02*
X0397505Y0053024D01*
X0396887Y0053024D01*
X0395673Y0053024D02*
X0393821Y0053024D01*
X0393204Y0052406D01*
X0393821Y0051789D01*
X0395056Y0051789D01*
X0395673Y0051172D01*
X0395056Y0050555D01*
X0393204Y0050555D01*
X0388300Y0050555D02*
X0387066Y0050555D01*
X0387683Y0050555D02*
X0387683Y0054258D01*
X0387066Y0054258D01*
X0385227Y0054258D02*
X0385227Y0050555D01*
X0384610Y0050555D02*
X0385845Y0050555D01*
X0383396Y0051789D02*
X0380927Y0051789D01*
X0380927Y0051172D02*
X0380927Y0052406D01*
X0381544Y0053024D01*
X0382779Y0053024D01*
X0383396Y0052406D01*
X0383396Y0051789D01*
X0382779Y0050555D02*
X0381544Y0050555D01*
X0380927Y0051172D01*
X0379713Y0051172D02*
X0379713Y0052406D01*
X0379096Y0053024D01*
X0377244Y0053024D01*
X0377244Y0054258D02*
X0377244Y0050555D01*
X0379096Y0050555D01*
X0379713Y0051172D01*
X0384610Y0054258D02*
X0385227Y0054258D01*
X0397505Y0054258D02*
X0397505Y0054875D01*
X0408790Y0080384D02*
X0411259Y0080384D01*
X0381385Y0080073D02*
X0378916Y0080073D01*
X0380151Y0081307D02*
X0380151Y0078839D01*
X0410289Y0106735D02*
X0412758Y0106735D01*
X0411523Y0106735D02*
X0410289Y0107969D01*
X0410289Y0108587D01*
X0410906Y0109804D02*
X0410289Y0110422D01*
X0410289Y0111656D01*
X0410906Y0112273D01*
X0411523Y0112273D01*
X0411523Y0109804D01*
X0410906Y0109804D02*
X0412141Y0109804D01*
X0412758Y0110422D01*
X0412758Y0111656D01*
X0412758Y0113488D02*
X0412758Y0115339D01*
X0412141Y0115956D01*
X0411523Y0115339D01*
X0411523Y0114105D01*
X0410906Y0113488D01*
X0410289Y0114105D01*
X0410289Y0115956D01*
X0410906Y0117171D02*
X0410289Y0117788D01*
X0410289Y0119022D01*
X0410906Y0119639D01*
X0411523Y0119639D01*
X0411523Y0117171D01*
X0410906Y0117171D02*
X0412141Y0117171D01*
X0412758Y0117788D01*
X0412758Y0119022D01*
X0412141Y0121471D02*
X0412758Y0122088D01*
X0412141Y0121471D02*
X0409672Y0121471D01*
X0410289Y0120854D02*
X0410289Y0122088D01*
X0410289Y0126992D02*
X0412758Y0129461D01*
X0412758Y0128227D02*
X0411523Y0129461D01*
X0410289Y0128227D02*
X0409672Y0128227D01*
X0409055Y0127610D01*
X0409672Y0126992D01*
X0410289Y0126992D01*
X0411523Y0126992D02*
X0410289Y0128227D01*
X0411523Y0126992D02*
X0412141Y0126992D01*
X0412758Y0127610D01*
X0412758Y0128227D01*
X0412141Y0134359D02*
X0410906Y0134359D01*
X0410289Y0134976D01*
X0410289Y0136210D01*
X0410906Y0136827D01*
X0411523Y0136827D01*
X0411523Y0134359D01*
X0412141Y0134359D02*
X0412758Y0134976D01*
X0412758Y0136210D01*
X0412758Y0138042D02*
X0410289Y0138042D01*
X0411523Y0138042D02*
X0410289Y0139276D01*
X0410289Y0139893D01*
X0410289Y0141728D02*
X0410289Y0142963D01*
X0410906Y0143580D01*
X0412758Y0143580D01*
X0412758Y0141728D01*
X0412141Y0141111D01*
X0411523Y0141728D01*
X0411523Y0143580D01*
X0410906Y0144794D02*
X0410289Y0145411D01*
X0410289Y0147263D01*
X0410906Y0148477D02*
X0410289Y0149095D01*
X0410289Y0150329D01*
X0410906Y0150946D01*
X0411523Y0150946D01*
X0411523Y0148477D01*
X0410906Y0148477D02*
X0412141Y0148477D01*
X0412758Y0149095D01*
X0412758Y0150329D01*
X0412141Y0147263D02*
X0411523Y0146646D01*
X0411523Y0145411D01*
X0410906Y0144794D01*
X0412758Y0144794D02*
X0412758Y0146646D01*
X0412141Y0147263D01*
X0412758Y0155844D02*
X0412758Y0157695D01*
X0412141Y0158312D01*
X0411523Y0157695D01*
X0411523Y0156461D01*
X0410906Y0155844D01*
X0410289Y0156461D01*
X0410289Y0158312D01*
X0410906Y0159527D02*
X0410289Y0160144D01*
X0410289Y0161378D01*
X0410906Y0161996D01*
X0411523Y0161996D01*
X0411523Y0159527D01*
X0410906Y0159527D02*
X0412141Y0159527D01*
X0412758Y0160144D01*
X0412758Y0161378D01*
X0412141Y0163827D02*
X0412758Y0164444D01*
X0412141Y0163827D02*
X0409672Y0163827D01*
X0410289Y0163210D02*
X0410289Y0164444D01*
X0410289Y0165665D02*
X0410289Y0166900D01*
X0409672Y0166283D02*
X0412141Y0166283D01*
X0412758Y0166900D01*
X0412758Y0168121D02*
X0412758Y0169355D01*
X0412758Y0168738D02*
X0410289Y0168738D01*
X0410289Y0168121D01*
X0409055Y0168738D02*
X0408437Y0168738D01*
X0410289Y0170576D02*
X0410289Y0172428D01*
X0410906Y0173045D01*
X0412758Y0173045D01*
X0412141Y0174259D02*
X0412758Y0174877D01*
X0412758Y0176728D01*
X0413375Y0176728D02*
X0410289Y0176728D01*
X0410289Y0174877D01*
X0410906Y0174259D01*
X0412141Y0174259D01*
X0413992Y0175494D02*
X0413992Y0176111D01*
X0413375Y0176728D01*
X0412758Y0177943D02*
X0412758Y0179794D01*
X0412141Y0180411D01*
X0411523Y0179794D01*
X0411523Y0178560D01*
X0410906Y0177943D01*
X0410289Y0178560D01*
X0410289Y0180411D01*
X0410289Y0170576D02*
X0412758Y0170576D01*
X0470670Y0142060D02*
X0471287Y0142677D01*
X0472521Y0142677D01*
X0473138Y0142060D01*
X0473138Y0141443D01*
X0472521Y0140825D01*
X0473138Y0140208D01*
X0473138Y0139591D01*
X0472521Y0138974D01*
X0471287Y0138974D01*
X0470670Y0139591D01*
X0471904Y0140825D02*
X0472521Y0140825D01*
X0474353Y0139591D02*
X0474970Y0139591D01*
X0474970Y0138974D01*
X0474353Y0138974D01*
X0474353Y0139591D01*
X0476194Y0139591D02*
X0476812Y0138974D01*
X0478046Y0138974D01*
X0478663Y0139591D01*
X0478663Y0140208D01*
X0478046Y0140825D01*
X0477429Y0140825D01*
X0478046Y0140825D02*
X0478663Y0141443D01*
X0478663Y0142060D01*
X0478046Y0142677D01*
X0476812Y0142677D01*
X0476194Y0142060D01*
X0479878Y0141443D02*
X0481112Y0138974D01*
X0482346Y0141443D01*
X0487244Y0141443D02*
X0487861Y0140825D01*
X0489095Y0140825D01*
X0489713Y0140208D01*
X0489713Y0139591D01*
X0489095Y0138974D01*
X0487861Y0138974D01*
X0487244Y0139591D01*
X0487244Y0141443D02*
X0487244Y0142060D01*
X0487861Y0142677D01*
X0489095Y0142677D01*
X0489713Y0142060D01*
X0490927Y0140825D02*
X0490927Y0139591D01*
X0491544Y0138974D01*
X0492779Y0138974D01*
X0493396Y0139591D01*
X0493396Y0140825D01*
X0492779Y0141443D01*
X0491544Y0141443D01*
X0490927Y0140825D01*
X0494610Y0141443D02*
X0494610Y0138974D01*
X0495237Y0136677D02*
X0495237Y0134208D01*
X0494003Y0132974D01*
X0492769Y0134208D01*
X0492769Y0136677D01*
X0491554Y0136060D02*
X0491554Y0135443D01*
X0490937Y0134825D01*
X0491554Y0134208D01*
X0491554Y0133591D01*
X0490937Y0132974D01*
X0489703Y0132974D01*
X0489085Y0133591D01*
X0487871Y0133591D02*
X0487254Y0132974D01*
X0486019Y0132974D01*
X0485402Y0133591D01*
X0487871Y0136060D01*
X0487871Y0133591D01*
X0485402Y0133591D02*
X0485402Y0136060D01*
X0486019Y0136677D01*
X0487254Y0136677D01*
X0487871Y0136060D01*
X0489085Y0136060D02*
X0489703Y0136677D01*
X0490937Y0136677D01*
X0491554Y0136060D01*
X0490937Y0134825D02*
X0490320Y0134825D01*
X0484188Y0134825D02*
X0481719Y0134825D01*
X0480505Y0133591D02*
X0480505Y0136060D01*
X0479888Y0136677D01*
X0478036Y0136677D01*
X0478036Y0132974D01*
X0479888Y0132974D01*
X0480505Y0133591D01*
X0476822Y0132974D02*
X0475587Y0134208D01*
X0476204Y0134208D02*
X0474353Y0134208D01*
X0473138Y0134208D02*
X0473138Y0133591D01*
X0472521Y0132974D01*
X0471287Y0132974D01*
X0470670Y0133591D01*
X0471287Y0134825D02*
X0472521Y0134825D01*
X0473138Y0134208D01*
X0474353Y0132974D02*
X0474353Y0136677D01*
X0476204Y0136677D01*
X0476822Y0136060D01*
X0476822Y0134825D01*
X0476204Y0134208D01*
X0473138Y0136060D02*
X0472521Y0136677D01*
X0471287Y0136677D01*
X0470670Y0136060D01*
X0470670Y0135443D01*
X0471287Y0134825D01*
X0494610Y0141443D02*
X0496462Y0141443D01*
X0497079Y0140825D01*
X0497079Y0138974D01*
X0498293Y0139591D02*
X0498910Y0138974D01*
X0500762Y0138974D01*
X0500762Y0138357D02*
X0500762Y0141443D01*
X0498910Y0141443D01*
X0498293Y0140825D01*
X0498293Y0139591D01*
X0499528Y0137739D02*
X0500145Y0137739D01*
X0500762Y0138357D01*
X0501976Y0138974D02*
X0503211Y0138974D01*
X0502594Y0138974D02*
X0502594Y0142677D01*
X0501976Y0142677D01*
X0504432Y0140825D02*
X0505049Y0141443D01*
X0506283Y0141443D01*
X0506901Y0140825D01*
X0506901Y0140208D01*
X0504432Y0140208D01*
X0504432Y0139591D02*
X0504432Y0140825D01*
X0504432Y0139591D02*
X0505049Y0138974D01*
X0506283Y0138974D01*
X0508118Y0136677D02*
X0507501Y0136060D01*
X0507501Y0135443D01*
X0508118Y0134825D01*
X0509353Y0134825D01*
X0509970Y0134208D01*
X0509970Y0133591D01*
X0509353Y0132974D01*
X0508118Y0132974D01*
X0507501Y0133591D01*
X0506287Y0134825D02*
X0503818Y0134825D01*
X0502604Y0133591D02*
X0501986Y0132974D01*
X0500752Y0132974D01*
X0500135Y0133591D01*
X0500135Y0136060D01*
X0500752Y0136677D01*
X0501986Y0136677D01*
X0502604Y0136060D01*
X0498920Y0136060D02*
X0498303Y0136677D01*
X0496452Y0136677D01*
X0496452Y0132974D01*
X0498303Y0132974D01*
X0498920Y0133591D01*
X0498920Y0136060D01*
X0508118Y0136677D02*
X0509353Y0136677D01*
X0509970Y0136060D01*
X0511184Y0136677D02*
X0511184Y0132974D01*
X0513653Y0132974D01*
X0514867Y0134825D02*
X0517336Y0134825D01*
X0518551Y0133591D02*
X0519168Y0132974D01*
X0520402Y0132974D01*
X0521019Y0133591D01*
X0518551Y0133591D02*
X0518551Y0136060D01*
X0519168Y0136677D01*
X0520402Y0136677D01*
X0521019Y0136060D01*
X0521623Y0138974D02*
X0521006Y0139591D01*
X0521623Y0140208D01*
X0523475Y0140208D01*
X0523475Y0140825D02*
X0523475Y0138974D01*
X0521623Y0138974D01*
X0519785Y0138974D02*
X0518551Y0138974D01*
X0519168Y0138974D02*
X0519168Y0142677D01*
X0518551Y0142677D01*
X0516719Y0141443D02*
X0517336Y0140825D01*
X0517336Y0140208D01*
X0514867Y0140208D01*
X0514867Y0139591D02*
X0514867Y0140825D01*
X0515485Y0141443D01*
X0516719Y0141443D01*
X0516719Y0138974D02*
X0515485Y0138974D01*
X0514867Y0139591D01*
X0513650Y0141443D02*
X0513033Y0141443D01*
X0511798Y0140208D01*
X0511798Y0138974D02*
X0511798Y0141443D01*
X0521623Y0141443D02*
X0522858Y0141443D01*
X0523475Y0140825D01*
X0524689Y0141443D02*
X0524689Y0139591D01*
X0525306Y0138974D01*
X0527158Y0138974D01*
X0527158Y0138357D02*
X0526541Y0137739D01*
X0525924Y0137739D01*
X0527158Y0138357D02*
X0527158Y0141443D01*
X0497778Y0165925D02*
X0497778Y0169628D01*
X0495927Y0167777D01*
X0498395Y0167777D01*
X0494712Y0169011D02*
X0494095Y0169628D01*
X0492861Y0169628D01*
X0492243Y0169011D01*
X0492243Y0166542D01*
X0492861Y0165925D01*
X0494095Y0165925D01*
X0494712Y0166542D01*
X0425169Y0230014D02*
X0422701Y0230014D01*
X0423935Y0230014D02*
X0422701Y0231248D01*
X0422701Y0231865D01*
X0423318Y0233083D02*
X0422701Y0233700D01*
X0422701Y0234935D01*
X0423318Y0235552D01*
X0423935Y0235552D01*
X0423935Y0233083D01*
X0424552Y0233083D02*
X0423318Y0233083D01*
X0424552Y0233083D02*
X0425169Y0233700D01*
X0425169Y0234935D01*
X0425169Y0236766D02*
X0425169Y0238618D01*
X0424552Y0239235D01*
X0423935Y0238618D01*
X0423935Y0237384D01*
X0423318Y0236766D01*
X0422701Y0237384D01*
X0422701Y0239235D01*
X0423318Y0240449D02*
X0422701Y0241067D01*
X0422701Y0242301D01*
X0423318Y0242918D01*
X0423935Y0242918D01*
X0423935Y0240449D01*
X0424552Y0240449D02*
X0423318Y0240449D01*
X0424552Y0240449D02*
X0425169Y0241067D01*
X0425169Y0242301D01*
X0424552Y0244750D02*
X0425169Y0245367D01*
X0424552Y0244750D02*
X0422084Y0244750D01*
X0422701Y0244133D02*
X0422701Y0245367D01*
D12*
X0421187Y0246506D02*
X0421187Y0225837D01*
X0415085Y0225837D01*
X0415085Y0224262D01*
X0408589Y0224262D01*
X0408589Y0248278D01*
X0414888Y0248278D01*
X0414888Y0246506D01*
X0415085Y0246506D02*
X0421187Y0246506D01*
X0441682Y0253737D02*
X0441682Y0282477D01*
X0504674Y0282477D01*
X0504674Y0253737D01*
X0512524Y0256214D02*
X0517524Y0256214D01*
X0517524Y0267214D01*
X0512524Y0267214D01*
X0512524Y0256214D01*
X0520101Y0256214D02*
X0525101Y0256214D01*
X0525101Y0267214D01*
X0520101Y0267214D01*
X0520101Y0256214D01*
X0517888Y0250919D02*
X0522888Y0250919D01*
X0522888Y0239919D01*
X0517888Y0239919D01*
X0517888Y0250919D01*
X0435816Y0256214D02*
X0430816Y0256214D01*
X0430816Y0267214D01*
X0435816Y0267214D01*
X0435816Y0256214D01*
X0414888Y0221220D02*
X0408589Y0221220D01*
X0408589Y0197204D01*
X0415085Y0197204D01*
X0415085Y0198779D01*
X0421187Y0198779D01*
X0421187Y0219448D01*
X0415085Y0219448D01*
X0414888Y0219448D02*
X0414888Y0221220D01*
X0420581Y0197418D02*
X0420581Y0192418D01*
X0431581Y0192418D01*
X0431581Y0197418D01*
X0420581Y0197418D01*
X0441682Y0187989D02*
X0504674Y0187989D01*
X0473210Y0180629D02*
X0473210Y0175629D01*
X0462210Y0175629D01*
X0462210Y0180629D01*
X0473210Y0180629D01*
X0434437Y0167064D02*
X0434437Y0139505D01*
X0433506Y0139505D01*
X0415368Y0139505D02*
X0414437Y0139505D01*
X0414437Y0167064D01*
X0415368Y0167064D01*
X0433506Y0167064D02*
X0434437Y0167064D01*
X0514573Y0168901D02*
X0514573Y0163901D01*
X0525573Y0163901D01*
X0525573Y0168901D01*
X0514573Y0168901D01*
X0414747Y0101423D02*
X0409747Y0101423D01*
X0409747Y0090423D01*
X0414747Y0090423D01*
X0414747Y0101423D01*
X0416550Y0088842D02*
X0415799Y0088092D01*
X0415799Y0086590D01*
X0416550Y0085840D01*
X0415799Y0084238D02*
X0420303Y0084238D01*
X0415799Y0081236D01*
X0420303Y0081236D01*
X0419552Y0079634D02*
X0416550Y0079634D01*
X0415799Y0078884D01*
X0415799Y0077382D01*
X0416550Y0076632D01*
X0419552Y0076632D01*
X0420303Y0077382D01*
X0420303Y0078884D01*
X0419552Y0079634D01*
X0419552Y0075030D02*
X0420303Y0074280D01*
X0420303Y0072779D01*
X0419552Y0072028D01*
X0416550Y0072028D01*
X0415799Y0072779D01*
X0415799Y0074280D01*
X0416550Y0075030D01*
X0420303Y0085840D02*
X0417300Y0088842D01*
X0416550Y0088842D01*
X0420303Y0088842D02*
X0420303Y0085840D01*
X0435412Y0085472D02*
X0435412Y0090472D01*
X0446412Y0090472D01*
X0446412Y0085472D01*
X0435412Y0085472D01*
X0435412Y0079972D02*
X0435412Y0074972D01*
X0446412Y0074972D01*
X0446412Y0079972D01*
X0435412Y0079972D01*
X0450606Y0073499D02*
X0490606Y0073499D01*
X0490606Y0087499D01*
X0450606Y0087499D01*
X0450606Y0073499D01*
X0451856Y0076749D02*
X0451858Y0076819D01*
X0451864Y0076889D01*
X0451874Y0076958D01*
X0451887Y0077027D01*
X0451905Y0077095D01*
X0451926Y0077162D01*
X0451951Y0077227D01*
X0451980Y0077291D01*
X0452012Y0077354D01*
X0452048Y0077414D01*
X0452087Y0077472D01*
X0452129Y0077528D01*
X0452174Y0077582D01*
X0452222Y0077633D01*
X0452273Y0077681D01*
X0452327Y0077726D01*
X0452383Y0077768D01*
X0452441Y0077807D01*
X0452501Y0077843D01*
X0452564Y0077875D01*
X0452628Y0077904D01*
X0452693Y0077929D01*
X0452760Y0077950D01*
X0452828Y0077968D01*
X0452897Y0077981D01*
X0452966Y0077991D01*
X0453036Y0077997D01*
X0453106Y0077999D01*
X0453176Y0077997D01*
X0453246Y0077991D01*
X0453315Y0077981D01*
X0453384Y0077968D01*
X0453452Y0077950D01*
X0453519Y0077929D01*
X0453584Y0077904D01*
X0453648Y0077875D01*
X0453711Y0077843D01*
X0453771Y0077807D01*
X0453829Y0077768D01*
X0453885Y0077726D01*
X0453939Y0077681D01*
X0453990Y0077633D01*
X0454038Y0077582D01*
X0454083Y0077528D01*
X0454125Y0077472D01*
X0454164Y0077414D01*
X0454200Y0077354D01*
X0454232Y0077291D01*
X0454261Y0077227D01*
X0454286Y0077162D01*
X0454307Y0077095D01*
X0454325Y0077027D01*
X0454338Y0076958D01*
X0454348Y0076889D01*
X0454354Y0076819D01*
X0454356Y0076749D01*
X0454354Y0076679D01*
X0454348Y0076609D01*
X0454338Y0076540D01*
X0454325Y0076471D01*
X0454307Y0076403D01*
X0454286Y0076336D01*
X0454261Y0076271D01*
X0454232Y0076207D01*
X0454200Y0076144D01*
X0454164Y0076084D01*
X0454125Y0076026D01*
X0454083Y0075970D01*
X0454038Y0075916D01*
X0453990Y0075865D01*
X0453939Y0075817D01*
X0453885Y0075772D01*
X0453829Y0075730D01*
X0453771Y0075691D01*
X0453711Y0075655D01*
X0453648Y0075623D01*
X0453584Y0075594D01*
X0453519Y0075569D01*
X0453452Y0075548D01*
X0453384Y0075530D01*
X0453315Y0075517D01*
X0453246Y0075507D01*
X0453176Y0075501D01*
X0453106Y0075499D01*
X0453036Y0075501D01*
X0452966Y0075507D01*
X0452897Y0075517D01*
X0452828Y0075530D01*
X0452760Y0075548D01*
X0452693Y0075569D01*
X0452628Y0075594D01*
X0452564Y0075623D01*
X0452501Y0075655D01*
X0452441Y0075691D01*
X0452383Y0075730D01*
X0452327Y0075772D01*
X0452273Y0075817D01*
X0452222Y0075865D01*
X0452174Y0075916D01*
X0452129Y0075970D01*
X0452087Y0076026D01*
X0452048Y0076084D01*
X0452012Y0076144D01*
X0451980Y0076207D01*
X0451951Y0076271D01*
X0451926Y0076336D01*
X0451905Y0076403D01*
X0451887Y0076471D01*
X0451874Y0076540D01*
X0451864Y0076609D01*
X0451858Y0076679D01*
X0451856Y0076749D01*
X0485662Y0063248D02*
X0487237Y0063248D01*
X0490387Y0063248D02*
X0491962Y0063248D01*
X0491962Y0058129D02*
X0490387Y0058129D01*
X0487237Y0058129D02*
X0485662Y0058129D01*
X0482513Y0055964D02*
X0482515Y0056020D01*
X0482521Y0056075D01*
X0482531Y0056129D01*
X0482544Y0056183D01*
X0482562Y0056236D01*
X0482583Y0056287D01*
X0482607Y0056337D01*
X0482635Y0056385D01*
X0482667Y0056431D01*
X0482701Y0056475D01*
X0482739Y0056516D01*
X0482779Y0056554D01*
X0482822Y0056589D01*
X0482867Y0056621D01*
X0482915Y0056650D01*
X0482964Y0056676D01*
X0483015Y0056698D01*
X0483067Y0056716D01*
X0483121Y0056730D01*
X0483176Y0056741D01*
X0483231Y0056748D01*
X0483286Y0056751D01*
X0483342Y0056750D01*
X0483397Y0056745D01*
X0483452Y0056736D01*
X0483506Y0056724D01*
X0483559Y0056707D01*
X0483611Y0056687D01*
X0483661Y0056663D01*
X0483709Y0056636D01*
X0483756Y0056606D01*
X0483800Y0056572D01*
X0483842Y0056535D01*
X0483880Y0056495D01*
X0483917Y0056453D01*
X0483950Y0056408D01*
X0483979Y0056362D01*
X0484006Y0056313D01*
X0484028Y0056262D01*
X0484048Y0056210D01*
X0484063Y0056156D01*
X0484075Y0056102D01*
X0484083Y0056047D01*
X0484087Y0055992D01*
X0484087Y0055936D01*
X0484083Y0055881D01*
X0484075Y0055826D01*
X0484063Y0055772D01*
X0484048Y0055718D01*
X0484028Y0055666D01*
X0484006Y0055615D01*
X0483979Y0055566D01*
X0483950Y0055520D01*
X0483917Y0055475D01*
X0483880Y0055433D01*
X0483842Y0055393D01*
X0483800Y0055356D01*
X0483756Y0055322D01*
X0483709Y0055292D01*
X0483661Y0055265D01*
X0483611Y0055241D01*
X0483559Y0055221D01*
X0483506Y0055204D01*
X0483452Y0055192D01*
X0483397Y0055183D01*
X0483342Y0055178D01*
X0483286Y0055177D01*
X0483231Y0055180D01*
X0483176Y0055187D01*
X0483121Y0055198D01*
X0483067Y0055212D01*
X0483015Y0055230D01*
X0482964Y0055252D01*
X0482915Y0055278D01*
X0482867Y0055307D01*
X0482822Y0055339D01*
X0482779Y0055374D01*
X0482739Y0055412D01*
X0482701Y0055453D01*
X0482667Y0055497D01*
X0482635Y0055543D01*
X0482607Y0055591D01*
X0482583Y0055641D01*
X0482562Y0055692D01*
X0482544Y0055745D01*
X0482531Y0055799D01*
X0482521Y0055853D01*
X0482515Y0055908D01*
X0482513Y0055964D01*
X0482995Y0050457D02*
X0482995Y0044158D01*
X0482995Y0050457D02*
X0481223Y0050457D01*
X0455239Y0050457D02*
X0453467Y0050457D01*
X0453467Y0044158D01*
X0453467Y0033921D02*
X0453467Y0033331D01*
X0482995Y0033331D01*
X0482995Y0033921D01*
X0510690Y0065822D02*
X0513690Y0065822D01*
X0510690Y0065822D02*
X0510690Y0069322D01*
X0504148Y0069079D02*
X0504148Y0074079D01*
X0493148Y0074079D01*
X0493148Y0069079D01*
X0504148Y0069079D01*
X0504148Y0075040D02*
X0493148Y0075040D01*
X0493148Y0080040D01*
X0504148Y0080040D01*
X0504148Y0075040D01*
X0504278Y0081978D02*
X0493278Y0081978D01*
X0493278Y0086978D01*
X0504278Y0086978D01*
X0504278Y0081978D01*
X0504246Y0087956D02*
X0493246Y0087956D01*
X0493246Y0092956D01*
X0504246Y0092956D01*
X0504246Y0087956D01*
X0510690Y0088813D02*
X0510690Y0092313D01*
X0513690Y0092313D01*
X0519190Y0092313D02*
X0522190Y0092313D01*
X0522190Y0088813D01*
X0528486Y0089893D02*
X0528486Y0086890D01*
X0529237Y0086140D01*
X0530738Y0086140D01*
X0531489Y0086890D01*
X0533090Y0086890D02*
X0533841Y0086140D01*
X0535342Y0086140D01*
X0536093Y0086890D01*
X0536093Y0089893D01*
X0535342Y0090643D01*
X0533841Y0090643D01*
X0533090Y0089893D01*
X0533090Y0086890D01*
X0531489Y0089893D02*
X0530738Y0090643D01*
X0529237Y0090643D01*
X0528486Y0089893D01*
X0537694Y0090643D02*
X0537694Y0086140D01*
X0540696Y0086140D02*
X0537694Y0090643D01*
X0540696Y0090643D02*
X0540696Y0086140D01*
X0542298Y0086140D02*
X0545300Y0086140D01*
X0543799Y0086140D02*
X0543799Y0090643D01*
X0542298Y0089142D01*
X0550134Y0076649D02*
X0549384Y0075898D01*
X0550134Y0076649D02*
X0551636Y0076649D01*
X0552386Y0075898D01*
X0552386Y0075148D01*
X0549384Y0072145D01*
X0552386Y0072145D01*
X0532886Y0072145D02*
X0529884Y0072145D01*
X0531385Y0072145D02*
X0531385Y0076649D01*
X0529884Y0075148D01*
X0522190Y0069322D02*
X0522190Y0065822D01*
X0519190Y0065822D01*
X0399762Y0072018D02*
X0396760Y0072018D01*
X0399762Y0075020D01*
X0399762Y0075771D01*
X0399012Y0076522D01*
X0397511Y0076522D01*
X0396760Y0075771D01*
X0380262Y0072018D02*
X0377260Y0072018D01*
X0378761Y0072018D02*
X0378761Y0076522D01*
X0377260Y0075020D01*
D13*
X0405678Y0090253D02*
X0405678Y0091805D01*
X0406195Y0092322D01*
X0407229Y0092322D01*
X0407746Y0091805D01*
X0407746Y0090253D01*
X0407746Y0091287D02*
X0408780Y0092322D01*
X0407229Y0093476D02*
X0407229Y0095544D01*
X0405678Y0095027D02*
X0407229Y0093476D01*
X0408780Y0095027D02*
X0405678Y0095027D01*
X0405678Y0090253D02*
X0408780Y0090253D01*
X0436112Y0092189D02*
X0436629Y0091672D01*
X0437663Y0091672D01*
X0438180Y0092189D01*
X0439335Y0091672D02*
X0441403Y0091672D01*
X0440369Y0091672D02*
X0440369Y0094775D01*
X0439335Y0093740D01*
X0438180Y0094257D02*
X0437663Y0094775D01*
X0436629Y0094775D01*
X0436112Y0094257D01*
X0436112Y0092189D01*
X0436629Y0084274D02*
X0436112Y0083757D01*
X0436112Y0081689D01*
X0436629Y0081172D01*
X0437663Y0081172D01*
X0438180Y0081689D01*
X0439335Y0081689D02*
X0439852Y0081172D01*
X0440886Y0081172D01*
X0441403Y0081689D01*
X0441403Y0082206D01*
X0440886Y0082723D01*
X0440369Y0082723D01*
X0440886Y0082723D02*
X0441403Y0083240D01*
X0441403Y0083757D01*
X0440886Y0084274D01*
X0439852Y0084274D01*
X0439335Y0083757D01*
X0438180Y0083757D02*
X0437663Y0084274D01*
X0436629Y0084274D01*
X0461503Y0082469D02*
X0463038Y0082469D01*
X0462271Y0082469D02*
X0462271Y0077865D01*
X0463038Y0077865D02*
X0461503Y0077865D01*
X0464573Y0078632D02*
X0465340Y0077865D01*
X0466874Y0077865D01*
X0467642Y0078632D01*
X0469176Y0078632D02*
X0469944Y0077865D01*
X0471478Y0077865D01*
X0472246Y0078632D01*
X0472246Y0079400D01*
X0471478Y0080167D01*
X0470711Y0080167D01*
X0471478Y0080167D02*
X0472246Y0080934D01*
X0472246Y0081702D01*
X0471478Y0082469D01*
X0469944Y0082469D01*
X0469176Y0081702D01*
X0467642Y0081702D02*
X0466874Y0082469D01*
X0465340Y0082469D01*
X0464573Y0081702D01*
X0464573Y0078632D01*
X0447259Y0067526D02*
X0447259Y0062922D01*
X0445725Y0062922D02*
X0448794Y0062922D01*
X0445725Y0065991D02*
X0447259Y0067526D01*
X0444190Y0066759D02*
X0443423Y0067526D01*
X0441121Y0067526D01*
X0441121Y0062922D01*
X0443423Y0062922D01*
X0444190Y0063689D01*
X0444190Y0066759D01*
X0447809Y0055053D02*
X0449346Y0055053D01*
X0448577Y0055053D02*
X0448577Y0051210D01*
X0447809Y0050442D01*
X0447040Y0050442D01*
X0446272Y0051210D01*
X0450882Y0050442D02*
X0453957Y0050442D01*
X0452419Y0050442D02*
X0452419Y0055053D01*
X0450882Y0053516D01*
X0486970Y0055990D02*
X0488004Y0054956D01*
X0488004Y0053405D01*
X0488004Y0054956D02*
X0489038Y0055990D01*
X0489038Y0056507D01*
X0490192Y0055473D02*
X0491227Y0056507D01*
X0491227Y0053405D01*
X0492261Y0053405D02*
X0490192Y0053405D01*
X0486970Y0055990D02*
X0486970Y0056507D01*
X0504885Y0070212D02*
X0504885Y0073315D01*
X0506437Y0073315D01*
X0506954Y0072798D01*
X0506954Y0071764D01*
X0506437Y0071246D01*
X0504885Y0071246D01*
X0505920Y0071246D02*
X0506954Y0070212D01*
X0508108Y0070729D02*
X0508108Y0071246D01*
X0508625Y0071764D01*
X0509659Y0071764D01*
X0510177Y0071246D01*
X0510177Y0070729D01*
X0509659Y0070212D01*
X0508625Y0070212D01*
X0508108Y0070729D01*
X0508625Y0071764D02*
X0508108Y0072281D01*
X0508108Y0072798D01*
X0508625Y0073315D01*
X0509659Y0073315D01*
X0510177Y0072798D01*
X0510177Y0072281D01*
X0509659Y0071764D01*
X0510350Y0075771D02*
X0508282Y0075771D01*
X0510350Y0077839D01*
X0510350Y0078356D01*
X0509833Y0078873D01*
X0508799Y0078873D01*
X0508282Y0078356D01*
X0507127Y0078356D02*
X0507127Y0077322D01*
X0506610Y0076805D01*
X0505059Y0076805D01*
X0506093Y0076805D02*
X0507127Y0075771D01*
X0505059Y0075771D02*
X0505059Y0078873D01*
X0506610Y0078873D01*
X0507127Y0078356D01*
X0507285Y0083072D02*
X0506251Y0084106D01*
X0506768Y0084106D02*
X0505216Y0084106D01*
X0505216Y0083072D02*
X0505216Y0086174D01*
X0506768Y0086174D01*
X0507285Y0085657D01*
X0507285Y0084623D01*
X0506768Y0084106D01*
X0508439Y0083589D02*
X0508956Y0083072D01*
X0509991Y0083072D01*
X0510508Y0083589D01*
X0510508Y0085657D01*
X0509991Y0086174D01*
X0508956Y0086174D01*
X0508439Y0085657D01*
X0508439Y0085140D01*
X0508956Y0084623D01*
X0510508Y0084623D01*
X0503154Y0094319D02*
X0502120Y0094319D01*
X0501603Y0094836D01*
X0503671Y0096904D01*
X0503671Y0094836D01*
X0503154Y0094319D01*
X0501603Y0094836D02*
X0501603Y0096904D01*
X0502120Y0097421D01*
X0503154Y0097421D01*
X0503671Y0096904D01*
X0506354Y0096177D02*
X0506871Y0095660D01*
X0507906Y0095660D01*
X0508423Y0096177D01*
X0508423Y0098247D01*
X0507906Y0098764D01*
X0506871Y0098764D01*
X0506354Y0098247D01*
X0506354Y0096177D01*
X0507388Y0096695D02*
X0508423Y0095660D01*
X0509578Y0095660D02*
X0511647Y0095660D01*
X0510612Y0095660D02*
X0510612Y0098764D01*
X0509578Y0097729D01*
X0500448Y0094319D02*
X0498380Y0094319D01*
X0499414Y0094319D02*
X0499414Y0097421D01*
X0498380Y0096387D01*
X0497226Y0096904D02*
X0497226Y0095870D01*
X0496709Y0095353D01*
X0495157Y0095353D01*
X0495157Y0094319D02*
X0495157Y0097421D01*
X0496709Y0097421D01*
X0497226Y0096904D01*
X0496191Y0095353D02*
X0497226Y0094319D01*
X0434160Y0111661D02*
X0434160Y0113963D01*
X0433393Y0114730D01*
X0430323Y0114730D01*
X0429556Y0113963D01*
X0429556Y0111661D01*
X0434160Y0111661D01*
X0434160Y0116265D02*
X0431091Y0119334D01*
X0430323Y0119334D01*
X0429556Y0118567D01*
X0429556Y0117032D01*
X0430323Y0116265D01*
X0434160Y0116265D02*
X0434160Y0119334D01*
X0438552Y0127184D02*
X0440087Y0127184D01*
X0439320Y0127184D02*
X0439320Y0131788D01*
X0440087Y0131788D02*
X0438552Y0131788D01*
X0441622Y0131020D02*
X0441622Y0127951D01*
X0442389Y0127184D01*
X0443924Y0127184D01*
X0444691Y0127951D01*
X0446226Y0127184D02*
X0449295Y0130253D01*
X0449295Y0131020D01*
X0448528Y0131788D01*
X0446993Y0131788D01*
X0446226Y0131020D01*
X0444691Y0131020D02*
X0443924Y0131788D01*
X0442389Y0131788D01*
X0441622Y0131020D01*
X0446226Y0127184D02*
X0449295Y0127184D01*
X0427688Y0143638D02*
X0424619Y0143638D01*
X0426153Y0143638D02*
X0426153Y0148242D01*
X0424619Y0146707D01*
X0423084Y0148242D02*
X0420015Y0145173D01*
X0420782Y0145940D02*
X0423084Y0143638D01*
X0420015Y0143638D02*
X0420015Y0148242D01*
X0418480Y0147475D02*
X0417713Y0148242D01*
X0416178Y0148242D01*
X0415411Y0147475D01*
X0415411Y0144405D01*
X0416178Y0143638D01*
X0417713Y0143638D01*
X0418480Y0144405D01*
X0418480Y0147475D01*
X0461920Y0172159D02*
X0462437Y0171642D01*
X0463471Y0171642D01*
X0463988Y0172159D01*
X0465143Y0171642D02*
X0467211Y0173711D01*
X0467211Y0174228D01*
X0466694Y0174745D01*
X0465660Y0174745D01*
X0465143Y0174228D01*
X0463988Y0174228D02*
X0463471Y0174745D01*
X0462437Y0174745D01*
X0461920Y0174228D01*
X0461920Y0172159D01*
X0465143Y0171642D02*
X0467211Y0171642D01*
X0479775Y0169972D02*
X0479775Y0167610D01*
X0486468Y0160917D01*
X0505365Y0160917D01*
X0505365Y0169972D01*
X0505365Y0177452D02*
X0505365Y0186508D01*
X0486468Y0186508D01*
X0479775Y0179815D01*
X0479775Y0177452D01*
X0480955Y0177452D02*
X0481050Y0177735D01*
X0481152Y0178016D01*
X0481261Y0178293D01*
X0481376Y0178569D01*
X0481498Y0178841D01*
X0481627Y0179110D01*
X0481762Y0179376D01*
X0481904Y0179638D01*
X0482052Y0179897D01*
X0482206Y0180153D01*
X0482367Y0180404D01*
X0482534Y0180652D01*
X0482706Y0180895D01*
X0482885Y0181134D01*
X0483069Y0181369D01*
X0483259Y0181599D01*
X0483455Y0181824D01*
X0483656Y0182044D01*
X0483862Y0182260D01*
X0484074Y0182470D01*
X0484290Y0182675D01*
X0484512Y0182875D01*
X0484739Y0183069D01*
X0484970Y0183258D01*
X0485205Y0183441D01*
X0485445Y0183618D01*
X0485690Y0183789D01*
X0485938Y0183954D01*
X0486191Y0184113D01*
X0486447Y0184266D01*
X0486707Y0184413D01*
X0486970Y0184553D01*
X0487237Y0184687D01*
X0487507Y0184814D01*
X0487780Y0184934D01*
X0488055Y0185048D01*
X0488334Y0185155D01*
X0488615Y0185255D01*
X0488898Y0185348D01*
X0489184Y0185435D01*
X0489472Y0185514D01*
X0489761Y0185586D01*
X0490052Y0185651D01*
X0490345Y0185709D01*
X0490639Y0185760D01*
X0490934Y0185804D01*
X0491230Y0185840D01*
X0491527Y0185869D01*
X0491825Y0185891D01*
X0492123Y0185906D01*
X0492421Y0185913D01*
X0492719Y0185913D01*
X0493017Y0185906D01*
X0493315Y0185891D01*
X0493613Y0185869D01*
X0493910Y0185840D01*
X0494206Y0185804D01*
X0494501Y0185760D01*
X0494795Y0185709D01*
X0495088Y0185651D01*
X0495379Y0185586D01*
X0495668Y0185514D01*
X0495956Y0185435D01*
X0496242Y0185348D01*
X0496525Y0185255D01*
X0496806Y0185155D01*
X0497085Y0185048D01*
X0497360Y0184934D01*
X0497633Y0184814D01*
X0497903Y0184687D01*
X0498170Y0184553D01*
X0498433Y0184413D01*
X0498693Y0184266D01*
X0498949Y0184113D01*
X0499202Y0183954D01*
X0499450Y0183789D01*
X0499695Y0183618D01*
X0499935Y0183441D01*
X0500170Y0183258D01*
X0500401Y0183069D01*
X0500628Y0182875D01*
X0500850Y0182675D01*
X0501066Y0182470D01*
X0501278Y0182260D01*
X0501484Y0182044D01*
X0501685Y0181824D01*
X0501881Y0181599D01*
X0502071Y0181369D01*
X0502255Y0181134D01*
X0502434Y0180895D01*
X0502606Y0180652D01*
X0502773Y0180404D01*
X0502934Y0180153D01*
X0503088Y0179897D01*
X0503236Y0179638D01*
X0503378Y0179376D01*
X0503513Y0179110D01*
X0503642Y0178841D01*
X0503764Y0178569D01*
X0503879Y0178293D01*
X0503988Y0178016D01*
X0504090Y0177735D01*
X0504185Y0177452D01*
X0504185Y0169972D02*
X0504090Y0169689D01*
X0503988Y0169408D01*
X0503879Y0169131D01*
X0503764Y0168855D01*
X0503642Y0168583D01*
X0503513Y0168314D01*
X0503378Y0168048D01*
X0503236Y0167786D01*
X0503088Y0167527D01*
X0502934Y0167271D01*
X0502773Y0167020D01*
X0502606Y0166772D01*
X0502434Y0166529D01*
X0502255Y0166290D01*
X0502071Y0166055D01*
X0501881Y0165825D01*
X0501685Y0165600D01*
X0501484Y0165380D01*
X0501278Y0165164D01*
X0501066Y0164954D01*
X0500850Y0164749D01*
X0500628Y0164549D01*
X0500401Y0164355D01*
X0500170Y0164166D01*
X0499935Y0163983D01*
X0499695Y0163806D01*
X0499450Y0163635D01*
X0499202Y0163470D01*
X0498949Y0163311D01*
X0498693Y0163158D01*
X0498433Y0163011D01*
X0498170Y0162871D01*
X0497903Y0162737D01*
X0497633Y0162610D01*
X0497360Y0162490D01*
X0497085Y0162376D01*
X0496806Y0162269D01*
X0496525Y0162169D01*
X0496242Y0162076D01*
X0495956Y0161989D01*
X0495668Y0161910D01*
X0495379Y0161838D01*
X0495088Y0161773D01*
X0494795Y0161715D01*
X0494501Y0161664D01*
X0494206Y0161620D01*
X0493910Y0161584D01*
X0493613Y0161555D01*
X0493315Y0161533D01*
X0493017Y0161518D01*
X0492719Y0161511D01*
X0492421Y0161511D01*
X0492123Y0161518D01*
X0491825Y0161533D01*
X0491527Y0161555D01*
X0491230Y0161584D01*
X0490934Y0161620D01*
X0490639Y0161664D01*
X0490345Y0161715D01*
X0490052Y0161773D01*
X0489761Y0161838D01*
X0489472Y0161910D01*
X0489184Y0161989D01*
X0488898Y0162076D01*
X0488615Y0162169D01*
X0488334Y0162269D01*
X0488055Y0162376D01*
X0487780Y0162490D01*
X0487507Y0162610D01*
X0487237Y0162737D01*
X0486970Y0162871D01*
X0486707Y0163011D01*
X0486447Y0163158D01*
X0486191Y0163311D01*
X0485938Y0163470D01*
X0485690Y0163635D01*
X0485445Y0163806D01*
X0485205Y0163983D01*
X0484970Y0164166D01*
X0484739Y0164355D01*
X0484512Y0164549D01*
X0484290Y0164749D01*
X0484074Y0164954D01*
X0483862Y0165164D01*
X0483656Y0165380D01*
X0483455Y0165600D01*
X0483259Y0165825D01*
X0483069Y0166055D01*
X0482885Y0166290D01*
X0482706Y0166529D01*
X0482534Y0166772D01*
X0482367Y0167020D01*
X0482206Y0167271D01*
X0482052Y0167527D01*
X0481904Y0167786D01*
X0481762Y0168048D01*
X0481627Y0168314D01*
X0481498Y0168583D01*
X0481376Y0168855D01*
X0481261Y0169131D01*
X0481152Y0169408D01*
X0481050Y0169689D01*
X0480955Y0169972D01*
X0513602Y0163121D02*
X0513602Y0160019D01*
X0513602Y0161053D02*
X0515154Y0161053D01*
X0515671Y0161570D01*
X0515671Y0162604D01*
X0515154Y0163121D01*
X0513602Y0163121D01*
X0514637Y0161053D02*
X0515671Y0160019D01*
X0516825Y0160536D02*
X0517342Y0160019D01*
X0518377Y0160019D01*
X0518894Y0160536D01*
X0518894Y0161570D01*
X0518377Y0162087D01*
X0517859Y0162087D01*
X0516825Y0161570D01*
X0516825Y0163121D01*
X0518894Y0163121D01*
X0428825Y0200808D02*
X0426756Y0198740D01*
X0426756Y0198223D01*
X0425602Y0198223D02*
X0424568Y0199257D01*
X0425085Y0199257D02*
X0423534Y0199257D01*
X0423534Y0198223D02*
X0423534Y0201325D01*
X0425085Y0201325D01*
X0425602Y0200808D01*
X0425602Y0199774D01*
X0425085Y0199257D01*
X0426756Y0201325D02*
X0428825Y0201325D01*
X0428825Y0200808D01*
X0427937Y0210600D02*
X0428704Y0211367D01*
X0428704Y0212902D01*
X0427937Y0213669D01*
X0427169Y0213669D01*
X0426402Y0212902D01*
X0426402Y0211367D01*
X0425635Y0210600D01*
X0424867Y0210600D01*
X0424100Y0211367D01*
X0424100Y0212902D01*
X0424867Y0213669D01*
X0424100Y0215204D02*
X0428704Y0215204D01*
X0427169Y0216738D01*
X0428704Y0218273D01*
X0424100Y0218273D01*
X0424867Y0219808D02*
X0424100Y0220575D01*
X0424100Y0222110D01*
X0424867Y0222877D01*
X0425635Y0222877D01*
X0428704Y0219808D01*
X0428704Y0222877D01*
X0427937Y0237658D02*
X0428704Y0238425D01*
X0428704Y0239960D01*
X0427937Y0240727D01*
X0427169Y0240727D01*
X0426402Y0239960D01*
X0426402Y0238425D01*
X0425635Y0237658D01*
X0424867Y0237658D01*
X0424100Y0238425D01*
X0424100Y0239960D01*
X0424867Y0240727D01*
X0424100Y0242262D02*
X0428704Y0242262D01*
X0427169Y0243796D01*
X0428704Y0245331D01*
X0424100Y0245331D01*
X0425635Y0246866D02*
X0424100Y0248400D01*
X0428704Y0248400D01*
X0428704Y0246866D02*
X0428704Y0249935D01*
X0453146Y0243787D02*
X0453146Y0238583D01*
X0456616Y0238583D01*
X0458302Y0239450D02*
X0459170Y0238583D01*
X0460905Y0238583D01*
X0461772Y0239450D01*
X0461772Y0240318D01*
X0460905Y0241185D01*
X0459170Y0241185D01*
X0458302Y0242052D01*
X0458302Y0242920D01*
X0459170Y0243787D01*
X0460905Y0243787D01*
X0461772Y0242920D01*
X0463459Y0243787D02*
X0463459Y0238583D01*
X0463459Y0240318D02*
X0466061Y0240318D01*
X0466929Y0241185D01*
X0466929Y0242920D01*
X0466061Y0243787D01*
X0463459Y0243787D01*
X0456616Y0243787D02*
X0453146Y0243787D01*
X0453146Y0241185D02*
X0454881Y0241185D01*
X0473772Y0241185D02*
X0477241Y0241185D01*
X0484084Y0242052D02*
X0485819Y0243787D01*
X0485819Y0238583D01*
X0484084Y0238583D02*
X0487554Y0238583D01*
X0489241Y0238583D02*
X0492711Y0242052D01*
X0492711Y0242920D01*
X0491843Y0243787D01*
X0490108Y0243787D01*
X0489241Y0242920D01*
X0489241Y0238583D02*
X0492711Y0238583D01*
X0524085Y0244690D02*
X0524602Y0244173D01*
X0526671Y0244173D01*
X0527188Y0244690D01*
X0527188Y0245724D01*
X0526671Y0246241D01*
X0526671Y0247396D02*
X0527188Y0247913D01*
X0527188Y0248947D01*
X0526671Y0249464D01*
X0525636Y0249464D01*
X0525119Y0248947D01*
X0525119Y0248430D01*
X0525636Y0247396D01*
X0524085Y0247396D01*
X0524085Y0249464D01*
X0524602Y0246241D02*
X0524085Y0245724D01*
X0524085Y0244690D01*
X0511199Y0258321D02*
X0508097Y0258321D01*
X0508097Y0259872D01*
X0508614Y0260389D01*
X0509648Y0260389D01*
X0510165Y0259872D01*
X0510165Y0258321D01*
X0510165Y0259355D02*
X0511199Y0260389D01*
X0510682Y0261544D02*
X0511199Y0262061D01*
X0511199Y0263095D01*
X0510682Y0263612D01*
X0510165Y0263612D01*
X0509648Y0263095D01*
X0509648Y0261544D01*
X0510682Y0261544D01*
X0509648Y0261544D02*
X0508614Y0262578D01*
X0508097Y0263612D01*
X0521007Y0268091D02*
X0521007Y0269642D01*
X0521524Y0270159D01*
X0522559Y0270159D01*
X0523076Y0269642D01*
X0523076Y0268091D01*
X0523076Y0269125D02*
X0524110Y0270159D01*
X0523593Y0271313D02*
X0524110Y0271830D01*
X0524110Y0272865D01*
X0523593Y0273382D01*
X0523076Y0273382D01*
X0522559Y0272865D01*
X0522559Y0272348D01*
X0522559Y0272865D02*
X0522042Y0273382D01*
X0521524Y0273382D01*
X0521007Y0272865D01*
X0521007Y0271830D01*
X0521524Y0271313D01*
X0521007Y0268091D02*
X0524110Y0268091D01*
X0451219Y0268021D02*
X0450351Y0268888D01*
X0451219Y0268021D02*
X0451219Y0266286D01*
X0450351Y0265419D01*
X0446882Y0265419D01*
X0446014Y0266286D01*
X0446014Y0268021D01*
X0446882Y0268888D01*
X0447749Y0270575D02*
X0446014Y0272310D01*
X0451219Y0272310D01*
X0451219Y0270575D02*
X0451219Y0274045D01*
X0451219Y0263716D02*
X0451219Y0261981D01*
X0451219Y0262849D02*
X0446014Y0262849D01*
X0446014Y0263716D02*
X0446014Y0261981D01*
X0429955Y0261814D02*
X0426853Y0261814D01*
X0426853Y0263365D01*
X0427370Y0263882D01*
X0428404Y0263882D01*
X0428921Y0263365D01*
X0428921Y0261814D01*
X0428921Y0262848D02*
X0429955Y0263882D01*
X0429955Y0265037D02*
X0429955Y0267105D01*
X0429955Y0266071D02*
X0426853Y0266071D01*
X0427887Y0265037D01*
X0417720Y0183429D02*
X0418487Y0182662D01*
X0418487Y0181127D01*
X0417720Y0180360D01*
X0417720Y0178825D02*
X0418487Y0178058D01*
X0418487Y0176523D01*
X0417720Y0175756D01*
X0414651Y0175756D01*
X0413883Y0176523D01*
X0413883Y0178058D01*
X0414651Y0178825D01*
X0417720Y0178825D01*
X0418487Y0178825D02*
X0416953Y0177291D01*
X0414651Y0180360D02*
X0413883Y0181127D01*
X0413883Y0182662D01*
X0414651Y0183429D01*
X0415418Y0183429D01*
X0416185Y0182662D01*
X0416953Y0183429D01*
X0417720Y0183429D01*
X0416185Y0182662D02*
X0416185Y0181894D01*
X0518212Y0060622D02*
X0519247Y0060622D01*
X0519764Y0060105D01*
X0519764Y0058035D01*
X0519247Y0057518D01*
X0518212Y0057518D01*
X0517695Y0058035D01*
X0517695Y0060105D01*
X0518212Y0060622D01*
X0518730Y0058553D02*
X0519764Y0057518D01*
X0520919Y0057518D02*
X0522988Y0059587D01*
X0522988Y0060105D01*
X0522471Y0060622D01*
X0521436Y0060622D01*
X0520919Y0060105D01*
X0520919Y0057518D02*
X0522988Y0057518D01*
D14*
X0527834Y0057297D02*
X0527834Y0083297D01*
X0527834Y0084096D01*
X0567134Y0084096D01*
X0567134Y0083297D01*
X0567134Y0057297D01*
X0567134Y0047895D01*
X0527834Y0047895D01*
X0527834Y0057297D01*
X0534134Y0057297D01*
X0541134Y0057297D02*
X0553834Y0057297D01*
X0560834Y0057297D02*
X0567134Y0057297D01*
X0555334Y0078095D02*
X0555336Y0078184D01*
X0555342Y0078273D01*
X0555352Y0078362D01*
X0555366Y0078450D01*
X0555383Y0078537D01*
X0555405Y0078623D01*
X0555431Y0078709D01*
X0555460Y0078793D01*
X0555493Y0078876D01*
X0555529Y0078957D01*
X0555570Y0079037D01*
X0555613Y0079114D01*
X0555660Y0079190D01*
X0555711Y0079263D01*
X0555764Y0079334D01*
X0555821Y0079403D01*
X0555881Y0079469D01*
X0555944Y0079533D01*
X0556009Y0079593D01*
X0556077Y0079651D01*
X0556148Y0079705D01*
X0556221Y0079756D01*
X0556296Y0079804D01*
X0556373Y0079849D01*
X0556452Y0079890D01*
X0556533Y0079927D01*
X0556615Y0079961D01*
X0556699Y0079992D01*
X0556784Y0080018D01*
X0556870Y0080041D01*
X0556957Y0080059D01*
X0557045Y0080074D01*
X0557134Y0080085D01*
X0557223Y0080092D01*
X0557312Y0080095D01*
X0557401Y0080094D01*
X0557490Y0080089D01*
X0557578Y0080080D01*
X0557667Y0080067D01*
X0557754Y0080050D01*
X0557841Y0080030D01*
X0557927Y0080005D01*
X0558011Y0079977D01*
X0558094Y0079945D01*
X0558176Y0079909D01*
X0558256Y0079870D01*
X0558334Y0079827D01*
X0558410Y0079781D01*
X0558484Y0079731D01*
X0558556Y0079678D01*
X0558625Y0079622D01*
X0558692Y0079563D01*
X0558756Y0079501D01*
X0558817Y0079437D01*
X0558876Y0079369D01*
X0558931Y0079299D01*
X0558983Y0079227D01*
X0559032Y0079152D01*
X0559077Y0079076D01*
X0559119Y0078997D01*
X0559157Y0078917D01*
X0559192Y0078835D01*
X0559223Y0078751D01*
X0559251Y0078666D01*
X0559274Y0078580D01*
X0559294Y0078493D01*
X0559310Y0078406D01*
X0559322Y0078317D01*
X0559330Y0078229D01*
X0559334Y0078140D01*
X0559334Y0078050D01*
X0559330Y0077961D01*
X0559322Y0077873D01*
X0559310Y0077784D01*
X0559294Y0077697D01*
X0559274Y0077610D01*
X0559251Y0077524D01*
X0559223Y0077439D01*
X0559192Y0077355D01*
X0559157Y0077273D01*
X0559119Y0077193D01*
X0559077Y0077114D01*
X0559032Y0077038D01*
X0558983Y0076963D01*
X0558931Y0076891D01*
X0558876Y0076821D01*
X0558817Y0076753D01*
X0558756Y0076689D01*
X0558692Y0076627D01*
X0558625Y0076568D01*
X0558556Y0076512D01*
X0558484Y0076459D01*
X0558410Y0076409D01*
X0558334Y0076363D01*
X0558256Y0076320D01*
X0558176Y0076281D01*
X0558094Y0076245D01*
X0558011Y0076213D01*
X0557927Y0076185D01*
X0557841Y0076160D01*
X0557754Y0076140D01*
X0557667Y0076123D01*
X0557578Y0076110D01*
X0557490Y0076101D01*
X0557401Y0076096D01*
X0557312Y0076095D01*
X0557223Y0076098D01*
X0557134Y0076105D01*
X0557045Y0076116D01*
X0556957Y0076131D01*
X0556870Y0076149D01*
X0556784Y0076172D01*
X0556699Y0076198D01*
X0556615Y0076229D01*
X0556533Y0076263D01*
X0556452Y0076300D01*
X0556373Y0076341D01*
X0556296Y0076386D01*
X0556221Y0076434D01*
X0556148Y0076485D01*
X0556077Y0076539D01*
X0556009Y0076597D01*
X0555944Y0076657D01*
X0555881Y0076721D01*
X0555821Y0076787D01*
X0555764Y0076856D01*
X0555711Y0076927D01*
X0555660Y0077000D01*
X0555613Y0077076D01*
X0555570Y0077153D01*
X0555529Y0077233D01*
X0555493Y0077314D01*
X0555460Y0077397D01*
X0555431Y0077481D01*
X0555405Y0077567D01*
X0555383Y0077653D01*
X0555366Y0077740D01*
X0555352Y0077828D01*
X0555342Y0077917D01*
X0555336Y0078006D01*
X0555334Y0078095D01*
X0567134Y0083297D02*
X0527834Y0083297D01*
X0535634Y0078095D02*
X0535636Y0078184D01*
X0535642Y0078273D01*
X0535652Y0078362D01*
X0535666Y0078450D01*
X0535683Y0078537D01*
X0535705Y0078623D01*
X0535731Y0078709D01*
X0535760Y0078793D01*
X0535793Y0078876D01*
X0535829Y0078957D01*
X0535870Y0079037D01*
X0535913Y0079114D01*
X0535960Y0079190D01*
X0536011Y0079263D01*
X0536064Y0079334D01*
X0536121Y0079403D01*
X0536181Y0079469D01*
X0536244Y0079533D01*
X0536309Y0079593D01*
X0536377Y0079651D01*
X0536448Y0079705D01*
X0536521Y0079756D01*
X0536596Y0079804D01*
X0536673Y0079849D01*
X0536752Y0079890D01*
X0536833Y0079927D01*
X0536915Y0079961D01*
X0536999Y0079992D01*
X0537084Y0080018D01*
X0537170Y0080041D01*
X0537257Y0080059D01*
X0537345Y0080074D01*
X0537434Y0080085D01*
X0537523Y0080092D01*
X0537612Y0080095D01*
X0537701Y0080094D01*
X0537790Y0080089D01*
X0537878Y0080080D01*
X0537967Y0080067D01*
X0538054Y0080050D01*
X0538141Y0080030D01*
X0538227Y0080005D01*
X0538311Y0079977D01*
X0538394Y0079945D01*
X0538476Y0079909D01*
X0538556Y0079870D01*
X0538634Y0079827D01*
X0538710Y0079781D01*
X0538784Y0079731D01*
X0538856Y0079678D01*
X0538925Y0079622D01*
X0538992Y0079563D01*
X0539056Y0079501D01*
X0539117Y0079437D01*
X0539176Y0079369D01*
X0539231Y0079299D01*
X0539283Y0079227D01*
X0539332Y0079152D01*
X0539377Y0079076D01*
X0539419Y0078997D01*
X0539457Y0078917D01*
X0539492Y0078835D01*
X0539523Y0078751D01*
X0539551Y0078666D01*
X0539574Y0078580D01*
X0539594Y0078493D01*
X0539610Y0078406D01*
X0539622Y0078317D01*
X0539630Y0078229D01*
X0539634Y0078140D01*
X0539634Y0078050D01*
X0539630Y0077961D01*
X0539622Y0077873D01*
X0539610Y0077784D01*
X0539594Y0077697D01*
X0539574Y0077610D01*
X0539551Y0077524D01*
X0539523Y0077439D01*
X0539492Y0077355D01*
X0539457Y0077273D01*
X0539419Y0077193D01*
X0539377Y0077114D01*
X0539332Y0077038D01*
X0539283Y0076963D01*
X0539231Y0076891D01*
X0539176Y0076821D01*
X0539117Y0076753D01*
X0539056Y0076689D01*
X0538992Y0076627D01*
X0538925Y0076568D01*
X0538856Y0076512D01*
X0538784Y0076459D01*
X0538710Y0076409D01*
X0538634Y0076363D01*
X0538556Y0076320D01*
X0538476Y0076281D01*
X0538394Y0076245D01*
X0538311Y0076213D01*
X0538227Y0076185D01*
X0538141Y0076160D01*
X0538054Y0076140D01*
X0537967Y0076123D01*
X0537878Y0076110D01*
X0537790Y0076101D01*
X0537701Y0076096D01*
X0537612Y0076095D01*
X0537523Y0076098D01*
X0537434Y0076105D01*
X0537345Y0076116D01*
X0537257Y0076131D01*
X0537170Y0076149D01*
X0537084Y0076172D01*
X0536999Y0076198D01*
X0536915Y0076229D01*
X0536833Y0076263D01*
X0536752Y0076300D01*
X0536673Y0076341D01*
X0536596Y0076386D01*
X0536521Y0076434D01*
X0536448Y0076485D01*
X0536377Y0076539D01*
X0536309Y0076597D01*
X0536244Y0076657D01*
X0536181Y0076721D01*
X0536121Y0076787D01*
X0536064Y0076856D01*
X0536011Y0076927D01*
X0535960Y0077000D01*
X0535913Y0077076D01*
X0535870Y0077153D01*
X0535829Y0077233D01*
X0535793Y0077314D01*
X0535760Y0077397D01*
X0535731Y0077481D01*
X0535705Y0077567D01*
X0535683Y0077653D01*
X0535666Y0077740D01*
X0535652Y0077828D01*
X0535642Y0077917D01*
X0535636Y0078006D01*
X0535634Y0078095D01*
X0455980Y0112978D02*
X0455980Y0123659D01*
X0452008Y0123659D01*
X0442256Y0123659D02*
X0438087Y0123659D01*
X0438087Y0112978D01*
X0443347Y0112947D02*
X0444759Y0112947D01*
X0449252Y0112947D02*
X0450665Y0112947D01*
X0414510Y0083969D02*
X0375211Y0083969D01*
X0375211Y0083169D01*
X0414510Y0083169D01*
X0414510Y0057169D01*
X0414510Y0047768D01*
X0375211Y0047768D01*
X0375211Y0057169D01*
X0375211Y0083169D01*
X0383010Y0077968D02*
X0383012Y0078057D01*
X0383018Y0078146D01*
X0383028Y0078235D01*
X0383042Y0078323D01*
X0383059Y0078410D01*
X0383081Y0078496D01*
X0383107Y0078582D01*
X0383136Y0078666D01*
X0383169Y0078749D01*
X0383205Y0078830D01*
X0383246Y0078910D01*
X0383289Y0078987D01*
X0383336Y0079063D01*
X0383387Y0079136D01*
X0383440Y0079207D01*
X0383497Y0079276D01*
X0383557Y0079342D01*
X0383620Y0079406D01*
X0383685Y0079466D01*
X0383753Y0079524D01*
X0383824Y0079578D01*
X0383897Y0079629D01*
X0383972Y0079677D01*
X0384049Y0079722D01*
X0384128Y0079763D01*
X0384209Y0079800D01*
X0384291Y0079834D01*
X0384375Y0079865D01*
X0384460Y0079891D01*
X0384546Y0079914D01*
X0384633Y0079932D01*
X0384721Y0079947D01*
X0384810Y0079958D01*
X0384899Y0079965D01*
X0384988Y0079968D01*
X0385077Y0079967D01*
X0385166Y0079962D01*
X0385254Y0079953D01*
X0385343Y0079940D01*
X0385430Y0079923D01*
X0385517Y0079903D01*
X0385603Y0079878D01*
X0385687Y0079850D01*
X0385770Y0079818D01*
X0385852Y0079782D01*
X0385932Y0079743D01*
X0386010Y0079700D01*
X0386086Y0079654D01*
X0386160Y0079604D01*
X0386232Y0079551D01*
X0386301Y0079495D01*
X0386368Y0079436D01*
X0386432Y0079374D01*
X0386493Y0079310D01*
X0386552Y0079242D01*
X0386607Y0079172D01*
X0386659Y0079100D01*
X0386708Y0079025D01*
X0386753Y0078949D01*
X0386795Y0078870D01*
X0386833Y0078790D01*
X0386868Y0078708D01*
X0386899Y0078624D01*
X0386927Y0078539D01*
X0386950Y0078453D01*
X0386970Y0078366D01*
X0386986Y0078279D01*
X0386998Y0078190D01*
X0387006Y0078102D01*
X0387010Y0078013D01*
X0387010Y0077923D01*
X0387006Y0077834D01*
X0386998Y0077746D01*
X0386986Y0077657D01*
X0386970Y0077570D01*
X0386950Y0077483D01*
X0386927Y0077397D01*
X0386899Y0077312D01*
X0386868Y0077228D01*
X0386833Y0077146D01*
X0386795Y0077066D01*
X0386753Y0076987D01*
X0386708Y0076911D01*
X0386659Y0076836D01*
X0386607Y0076764D01*
X0386552Y0076694D01*
X0386493Y0076626D01*
X0386432Y0076562D01*
X0386368Y0076500D01*
X0386301Y0076441D01*
X0386232Y0076385D01*
X0386160Y0076332D01*
X0386086Y0076282D01*
X0386010Y0076236D01*
X0385932Y0076193D01*
X0385852Y0076154D01*
X0385770Y0076118D01*
X0385687Y0076086D01*
X0385603Y0076058D01*
X0385517Y0076033D01*
X0385430Y0076013D01*
X0385343Y0075996D01*
X0385254Y0075983D01*
X0385166Y0075974D01*
X0385077Y0075969D01*
X0384988Y0075968D01*
X0384899Y0075971D01*
X0384810Y0075978D01*
X0384721Y0075989D01*
X0384633Y0076004D01*
X0384546Y0076022D01*
X0384460Y0076045D01*
X0384375Y0076071D01*
X0384291Y0076102D01*
X0384209Y0076136D01*
X0384128Y0076173D01*
X0384049Y0076214D01*
X0383972Y0076259D01*
X0383897Y0076307D01*
X0383824Y0076358D01*
X0383753Y0076412D01*
X0383685Y0076470D01*
X0383620Y0076530D01*
X0383557Y0076594D01*
X0383497Y0076660D01*
X0383440Y0076729D01*
X0383387Y0076800D01*
X0383336Y0076873D01*
X0383289Y0076949D01*
X0383246Y0077026D01*
X0383205Y0077106D01*
X0383169Y0077187D01*
X0383136Y0077270D01*
X0383107Y0077354D01*
X0383081Y0077440D01*
X0383059Y0077526D01*
X0383042Y0077613D01*
X0383028Y0077701D01*
X0383018Y0077790D01*
X0383012Y0077879D01*
X0383010Y0077968D01*
X0402710Y0077968D02*
X0402712Y0078057D01*
X0402718Y0078146D01*
X0402728Y0078235D01*
X0402742Y0078323D01*
X0402759Y0078410D01*
X0402781Y0078496D01*
X0402807Y0078582D01*
X0402836Y0078666D01*
X0402869Y0078749D01*
X0402905Y0078830D01*
X0402946Y0078910D01*
X0402989Y0078987D01*
X0403036Y0079063D01*
X0403087Y0079136D01*
X0403140Y0079207D01*
X0403197Y0079276D01*
X0403257Y0079342D01*
X0403320Y0079406D01*
X0403385Y0079466D01*
X0403453Y0079524D01*
X0403524Y0079578D01*
X0403597Y0079629D01*
X0403672Y0079677D01*
X0403749Y0079722D01*
X0403828Y0079763D01*
X0403909Y0079800D01*
X0403991Y0079834D01*
X0404075Y0079865D01*
X0404160Y0079891D01*
X0404246Y0079914D01*
X0404333Y0079932D01*
X0404421Y0079947D01*
X0404510Y0079958D01*
X0404599Y0079965D01*
X0404688Y0079968D01*
X0404777Y0079967D01*
X0404866Y0079962D01*
X0404954Y0079953D01*
X0405043Y0079940D01*
X0405130Y0079923D01*
X0405217Y0079903D01*
X0405303Y0079878D01*
X0405387Y0079850D01*
X0405470Y0079818D01*
X0405552Y0079782D01*
X0405632Y0079743D01*
X0405710Y0079700D01*
X0405786Y0079654D01*
X0405860Y0079604D01*
X0405932Y0079551D01*
X0406001Y0079495D01*
X0406068Y0079436D01*
X0406132Y0079374D01*
X0406193Y0079310D01*
X0406252Y0079242D01*
X0406307Y0079172D01*
X0406359Y0079100D01*
X0406408Y0079025D01*
X0406453Y0078949D01*
X0406495Y0078870D01*
X0406533Y0078790D01*
X0406568Y0078708D01*
X0406599Y0078624D01*
X0406627Y0078539D01*
X0406650Y0078453D01*
X0406670Y0078366D01*
X0406686Y0078279D01*
X0406698Y0078190D01*
X0406706Y0078102D01*
X0406710Y0078013D01*
X0406710Y0077923D01*
X0406706Y0077834D01*
X0406698Y0077746D01*
X0406686Y0077657D01*
X0406670Y0077570D01*
X0406650Y0077483D01*
X0406627Y0077397D01*
X0406599Y0077312D01*
X0406568Y0077228D01*
X0406533Y0077146D01*
X0406495Y0077066D01*
X0406453Y0076987D01*
X0406408Y0076911D01*
X0406359Y0076836D01*
X0406307Y0076764D01*
X0406252Y0076694D01*
X0406193Y0076626D01*
X0406132Y0076562D01*
X0406068Y0076500D01*
X0406001Y0076441D01*
X0405932Y0076385D01*
X0405860Y0076332D01*
X0405786Y0076282D01*
X0405710Y0076236D01*
X0405632Y0076193D01*
X0405552Y0076154D01*
X0405470Y0076118D01*
X0405387Y0076086D01*
X0405303Y0076058D01*
X0405217Y0076033D01*
X0405130Y0076013D01*
X0405043Y0075996D01*
X0404954Y0075983D01*
X0404866Y0075974D01*
X0404777Y0075969D01*
X0404688Y0075968D01*
X0404599Y0075971D01*
X0404510Y0075978D01*
X0404421Y0075989D01*
X0404333Y0076004D01*
X0404246Y0076022D01*
X0404160Y0076045D01*
X0404075Y0076071D01*
X0403991Y0076102D01*
X0403909Y0076136D01*
X0403828Y0076173D01*
X0403749Y0076214D01*
X0403672Y0076259D01*
X0403597Y0076307D01*
X0403524Y0076358D01*
X0403453Y0076412D01*
X0403385Y0076470D01*
X0403320Y0076530D01*
X0403257Y0076594D01*
X0403197Y0076660D01*
X0403140Y0076729D01*
X0403087Y0076800D01*
X0403036Y0076873D01*
X0402989Y0076949D01*
X0402946Y0077026D01*
X0402905Y0077106D01*
X0402869Y0077187D01*
X0402836Y0077270D01*
X0402807Y0077354D01*
X0402781Y0077440D01*
X0402759Y0077526D01*
X0402742Y0077613D01*
X0402728Y0077701D01*
X0402718Y0077790D01*
X0402712Y0077879D01*
X0402710Y0077968D01*
X0414510Y0083169D02*
X0414510Y0083969D01*
X0440724Y0061147D02*
X0447417Y0061147D01*
X0447417Y0060596D01*
X0447417Y0056580D02*
X0447417Y0056029D01*
X0440724Y0056029D01*
X0440724Y0056580D01*
X0440724Y0060596D02*
X0440724Y0061147D01*
X0414510Y0057169D02*
X0408211Y0057169D01*
X0401211Y0057169D02*
X0388510Y0057169D01*
X0381510Y0057169D02*
X0375211Y0057169D01*
X0521093Y0176949D02*
X0523593Y0174449D01*
X0528593Y0174449D01*
X0531093Y0176949D01*
X0531093Y0181949D01*
X0528593Y0184449D01*
X0523593Y0184449D01*
X0521093Y0181949D01*
X0521093Y0176949D01*
X0523593Y0184449D02*
X0521093Y0186949D01*
X0521093Y0191949D01*
X0523593Y0194449D01*
X0521093Y0196949D01*
X0521093Y0201949D01*
X0523593Y0204449D01*
X0521093Y0206949D01*
X0521093Y0211949D01*
X0523593Y0214449D01*
X0521093Y0216949D01*
X0521093Y0221949D01*
X0523593Y0224449D01*
X0528593Y0224449D01*
X0531093Y0221949D01*
X0531093Y0216949D01*
X0528593Y0214449D01*
X0531093Y0211949D01*
X0531093Y0206949D01*
X0528593Y0204449D01*
X0523593Y0204449D01*
X0528593Y0204449D02*
X0531093Y0201949D01*
X0531093Y0196949D01*
X0528593Y0194449D01*
X0531093Y0191949D01*
X0531093Y0186949D01*
X0528593Y0184449D01*
X0528593Y0194449D02*
X0523593Y0194449D01*
X0523593Y0214449D02*
X0528593Y0214449D01*
D15*
X0531184Y0158866D02*
X0458349Y0158866D01*
X0458349Y0099811D01*
X0531184Y0099811D01*
X0531184Y0158866D01*
X0495899Y0063248D02*
X0495899Y0058129D01*
X0495505Y0058129D01*
X0495505Y0063248D02*
X0495899Y0063248D01*
X0482119Y0063248D02*
X0481529Y0063248D01*
X0481529Y0058129D01*
X0482119Y0058129D01*
D16*
X0482076Y0112877D02*
X0480608Y0112877D01*
X0480608Y0115078D01*
X0479866Y0114711D02*
X0479866Y0113977D01*
X0479499Y0113610D01*
X0478398Y0113610D01*
X0478398Y0112877D02*
X0478398Y0115078D01*
X0479499Y0115078D01*
X0479866Y0114711D01*
X0479132Y0113610D02*
X0479866Y0112877D01*
X0482818Y0112877D02*
X0484286Y0112877D01*
X0483552Y0112877D02*
X0483552Y0115078D01*
X0482818Y0114344D01*
D17*
X0418846Y0129269D02*
X0418848Y0129317D01*
X0418854Y0129365D01*
X0418864Y0129412D01*
X0418877Y0129458D01*
X0418895Y0129503D01*
X0418915Y0129547D01*
X0418940Y0129589D01*
X0418968Y0129628D01*
X0418998Y0129665D01*
X0419032Y0129699D01*
X0419069Y0129731D01*
X0419107Y0129760D01*
X0419148Y0129785D01*
X0419191Y0129807D01*
X0419236Y0129825D01*
X0419282Y0129839D01*
X0419329Y0129850D01*
X0419377Y0129857D01*
X0419425Y0129860D01*
X0419473Y0129859D01*
X0419521Y0129854D01*
X0419569Y0129845D01*
X0419615Y0129833D01*
X0419660Y0129816D01*
X0419704Y0129796D01*
X0419746Y0129773D01*
X0419786Y0129746D01*
X0419824Y0129716D01*
X0419859Y0129683D01*
X0419891Y0129647D01*
X0419921Y0129609D01*
X0419947Y0129568D01*
X0419969Y0129525D01*
X0419989Y0129481D01*
X0420004Y0129436D01*
X0420016Y0129389D01*
X0420024Y0129341D01*
X0420028Y0129293D01*
X0420028Y0129245D01*
X0420024Y0129197D01*
X0420016Y0129149D01*
X0420004Y0129102D01*
X0419989Y0129057D01*
X0419969Y0129013D01*
X0419947Y0128970D01*
X0419921Y0128929D01*
X0419891Y0128891D01*
X0419859Y0128855D01*
X0419824Y0128822D01*
X0419786Y0128792D01*
X0419746Y0128765D01*
X0419704Y0128742D01*
X0419660Y0128722D01*
X0419615Y0128705D01*
X0419569Y0128693D01*
X0419521Y0128684D01*
X0419473Y0128679D01*
X0419425Y0128678D01*
X0419377Y0128681D01*
X0419329Y0128688D01*
X0419282Y0128699D01*
X0419236Y0128713D01*
X0419191Y0128731D01*
X0419148Y0128753D01*
X0419107Y0128778D01*
X0419069Y0128807D01*
X0419032Y0128839D01*
X0418998Y0128873D01*
X0418968Y0128910D01*
X0418940Y0128949D01*
X0418915Y0128991D01*
X0418895Y0129035D01*
X0418877Y0129080D01*
X0418864Y0129126D01*
X0418854Y0129173D01*
X0418848Y0129221D01*
X0418846Y0129269D01*
D18*
X0412526Y0205865D02*
X0412528Y0205939D01*
X0412534Y0206013D01*
X0412544Y0206086D01*
X0412558Y0206159D01*
X0412575Y0206231D01*
X0412597Y0206301D01*
X0412622Y0206371D01*
X0412651Y0206439D01*
X0412684Y0206505D01*
X0412720Y0206570D01*
X0412760Y0206632D01*
X0412802Y0206693D01*
X0412848Y0206751D01*
X0412897Y0206806D01*
X0412949Y0206859D01*
X0413004Y0206909D01*
X0413061Y0206955D01*
X0413121Y0206999D01*
X0413183Y0207039D01*
X0413247Y0207076D01*
X0413313Y0207110D01*
X0413381Y0207140D01*
X0413450Y0207166D01*
X0413521Y0207189D01*
X0413592Y0207207D01*
X0413665Y0207222D01*
X0413738Y0207233D01*
X0413812Y0207240D01*
X0413886Y0207243D01*
X0413959Y0207242D01*
X0414033Y0207237D01*
X0414107Y0207228D01*
X0414180Y0207215D01*
X0414252Y0207198D01*
X0414323Y0207178D01*
X0414393Y0207153D01*
X0414461Y0207125D01*
X0414528Y0207094D01*
X0414593Y0207058D01*
X0414656Y0207020D01*
X0414717Y0206978D01*
X0414776Y0206932D01*
X0414832Y0206884D01*
X0414885Y0206833D01*
X0414935Y0206779D01*
X0414983Y0206722D01*
X0415027Y0206663D01*
X0415069Y0206601D01*
X0415107Y0206538D01*
X0415141Y0206472D01*
X0415172Y0206405D01*
X0415199Y0206336D01*
X0415222Y0206266D01*
X0415242Y0206195D01*
X0415258Y0206122D01*
X0415270Y0206049D01*
X0415278Y0205976D01*
X0415282Y0205902D01*
X0415282Y0205828D01*
X0415278Y0205754D01*
X0415270Y0205681D01*
X0415258Y0205608D01*
X0415242Y0205535D01*
X0415222Y0205464D01*
X0415199Y0205394D01*
X0415172Y0205325D01*
X0415141Y0205258D01*
X0415107Y0205192D01*
X0415069Y0205129D01*
X0415027Y0205067D01*
X0414983Y0205008D01*
X0414935Y0204951D01*
X0414885Y0204897D01*
X0414832Y0204846D01*
X0414776Y0204798D01*
X0414717Y0204752D01*
X0414656Y0204710D01*
X0414593Y0204672D01*
X0414528Y0204636D01*
X0414461Y0204605D01*
X0414393Y0204577D01*
X0414323Y0204552D01*
X0414252Y0204532D01*
X0414180Y0204515D01*
X0414107Y0204502D01*
X0414033Y0204493D01*
X0413959Y0204488D01*
X0413886Y0204487D01*
X0413812Y0204490D01*
X0413738Y0204497D01*
X0413665Y0204508D01*
X0413592Y0204523D01*
X0413521Y0204541D01*
X0413450Y0204564D01*
X0413381Y0204590D01*
X0413313Y0204620D01*
X0413247Y0204654D01*
X0413183Y0204691D01*
X0413121Y0204731D01*
X0413061Y0204775D01*
X0413004Y0204821D01*
X0412949Y0204871D01*
X0412897Y0204924D01*
X0412848Y0204979D01*
X0412802Y0205037D01*
X0412760Y0205098D01*
X0412720Y0205160D01*
X0412684Y0205225D01*
X0412651Y0205291D01*
X0412622Y0205359D01*
X0412597Y0205429D01*
X0412575Y0205499D01*
X0412558Y0205571D01*
X0412544Y0205644D01*
X0412534Y0205717D01*
X0412528Y0205791D01*
X0412526Y0205865D01*
X0412526Y0212558D02*
X0412528Y0212632D01*
X0412534Y0212706D01*
X0412544Y0212779D01*
X0412558Y0212852D01*
X0412575Y0212924D01*
X0412597Y0212994D01*
X0412622Y0213064D01*
X0412651Y0213132D01*
X0412684Y0213198D01*
X0412720Y0213263D01*
X0412760Y0213325D01*
X0412802Y0213386D01*
X0412848Y0213444D01*
X0412897Y0213499D01*
X0412949Y0213552D01*
X0413004Y0213602D01*
X0413061Y0213648D01*
X0413121Y0213692D01*
X0413183Y0213732D01*
X0413247Y0213769D01*
X0413313Y0213803D01*
X0413381Y0213833D01*
X0413450Y0213859D01*
X0413521Y0213882D01*
X0413592Y0213900D01*
X0413665Y0213915D01*
X0413738Y0213926D01*
X0413812Y0213933D01*
X0413886Y0213936D01*
X0413959Y0213935D01*
X0414033Y0213930D01*
X0414107Y0213921D01*
X0414180Y0213908D01*
X0414252Y0213891D01*
X0414323Y0213871D01*
X0414393Y0213846D01*
X0414461Y0213818D01*
X0414528Y0213787D01*
X0414593Y0213751D01*
X0414656Y0213713D01*
X0414717Y0213671D01*
X0414776Y0213625D01*
X0414832Y0213577D01*
X0414885Y0213526D01*
X0414935Y0213472D01*
X0414983Y0213415D01*
X0415027Y0213356D01*
X0415069Y0213294D01*
X0415107Y0213231D01*
X0415141Y0213165D01*
X0415172Y0213098D01*
X0415199Y0213029D01*
X0415222Y0212959D01*
X0415242Y0212888D01*
X0415258Y0212815D01*
X0415270Y0212742D01*
X0415278Y0212669D01*
X0415282Y0212595D01*
X0415282Y0212521D01*
X0415278Y0212447D01*
X0415270Y0212374D01*
X0415258Y0212301D01*
X0415242Y0212228D01*
X0415222Y0212157D01*
X0415199Y0212087D01*
X0415172Y0212018D01*
X0415141Y0211951D01*
X0415107Y0211885D01*
X0415069Y0211822D01*
X0415027Y0211760D01*
X0414983Y0211701D01*
X0414935Y0211644D01*
X0414885Y0211590D01*
X0414832Y0211539D01*
X0414776Y0211491D01*
X0414717Y0211445D01*
X0414656Y0211403D01*
X0414593Y0211365D01*
X0414528Y0211329D01*
X0414461Y0211298D01*
X0414393Y0211270D01*
X0414323Y0211245D01*
X0414252Y0211225D01*
X0414180Y0211208D01*
X0414107Y0211195D01*
X0414033Y0211186D01*
X0413959Y0211181D01*
X0413886Y0211180D01*
X0413812Y0211183D01*
X0413738Y0211190D01*
X0413665Y0211201D01*
X0413592Y0211216D01*
X0413521Y0211234D01*
X0413450Y0211257D01*
X0413381Y0211283D01*
X0413313Y0211313D01*
X0413247Y0211347D01*
X0413183Y0211384D01*
X0413121Y0211424D01*
X0413061Y0211468D01*
X0413004Y0211514D01*
X0412949Y0211564D01*
X0412897Y0211617D01*
X0412848Y0211672D01*
X0412802Y0211730D01*
X0412760Y0211791D01*
X0412720Y0211853D01*
X0412684Y0211918D01*
X0412651Y0211984D01*
X0412622Y0212052D01*
X0412597Y0212122D01*
X0412575Y0212192D01*
X0412558Y0212264D01*
X0412544Y0212337D01*
X0412534Y0212410D01*
X0412528Y0212484D01*
X0412526Y0212558D01*
X0412526Y0232923D02*
X0412528Y0232997D01*
X0412534Y0233071D01*
X0412544Y0233144D01*
X0412558Y0233217D01*
X0412575Y0233289D01*
X0412597Y0233359D01*
X0412622Y0233429D01*
X0412651Y0233497D01*
X0412684Y0233563D01*
X0412720Y0233628D01*
X0412760Y0233690D01*
X0412802Y0233751D01*
X0412848Y0233809D01*
X0412897Y0233864D01*
X0412949Y0233917D01*
X0413004Y0233967D01*
X0413061Y0234013D01*
X0413121Y0234057D01*
X0413183Y0234097D01*
X0413247Y0234134D01*
X0413313Y0234168D01*
X0413381Y0234198D01*
X0413450Y0234224D01*
X0413521Y0234247D01*
X0413592Y0234265D01*
X0413665Y0234280D01*
X0413738Y0234291D01*
X0413812Y0234298D01*
X0413886Y0234301D01*
X0413959Y0234300D01*
X0414033Y0234295D01*
X0414107Y0234286D01*
X0414180Y0234273D01*
X0414252Y0234256D01*
X0414323Y0234236D01*
X0414393Y0234211D01*
X0414461Y0234183D01*
X0414528Y0234152D01*
X0414593Y0234116D01*
X0414656Y0234078D01*
X0414717Y0234036D01*
X0414776Y0233990D01*
X0414832Y0233942D01*
X0414885Y0233891D01*
X0414935Y0233837D01*
X0414983Y0233780D01*
X0415027Y0233721D01*
X0415069Y0233659D01*
X0415107Y0233596D01*
X0415141Y0233530D01*
X0415172Y0233463D01*
X0415199Y0233394D01*
X0415222Y0233324D01*
X0415242Y0233253D01*
X0415258Y0233180D01*
X0415270Y0233107D01*
X0415278Y0233034D01*
X0415282Y0232960D01*
X0415282Y0232886D01*
X0415278Y0232812D01*
X0415270Y0232739D01*
X0415258Y0232666D01*
X0415242Y0232593D01*
X0415222Y0232522D01*
X0415199Y0232452D01*
X0415172Y0232383D01*
X0415141Y0232316D01*
X0415107Y0232250D01*
X0415069Y0232187D01*
X0415027Y0232125D01*
X0414983Y0232066D01*
X0414935Y0232009D01*
X0414885Y0231955D01*
X0414832Y0231904D01*
X0414776Y0231856D01*
X0414717Y0231810D01*
X0414656Y0231768D01*
X0414593Y0231730D01*
X0414528Y0231694D01*
X0414461Y0231663D01*
X0414393Y0231635D01*
X0414323Y0231610D01*
X0414252Y0231590D01*
X0414180Y0231573D01*
X0414107Y0231560D01*
X0414033Y0231551D01*
X0413959Y0231546D01*
X0413886Y0231545D01*
X0413812Y0231548D01*
X0413738Y0231555D01*
X0413665Y0231566D01*
X0413592Y0231581D01*
X0413521Y0231599D01*
X0413450Y0231622D01*
X0413381Y0231648D01*
X0413313Y0231678D01*
X0413247Y0231712D01*
X0413183Y0231749D01*
X0413121Y0231789D01*
X0413061Y0231833D01*
X0413004Y0231879D01*
X0412949Y0231929D01*
X0412897Y0231982D01*
X0412848Y0232037D01*
X0412802Y0232095D01*
X0412760Y0232156D01*
X0412720Y0232218D01*
X0412684Y0232283D01*
X0412651Y0232349D01*
X0412622Y0232417D01*
X0412597Y0232487D01*
X0412575Y0232557D01*
X0412558Y0232629D01*
X0412544Y0232702D01*
X0412534Y0232775D01*
X0412528Y0232849D01*
X0412526Y0232923D01*
X0412526Y0239616D02*
X0412528Y0239690D01*
X0412534Y0239764D01*
X0412544Y0239837D01*
X0412558Y0239910D01*
X0412575Y0239982D01*
X0412597Y0240052D01*
X0412622Y0240122D01*
X0412651Y0240190D01*
X0412684Y0240256D01*
X0412720Y0240321D01*
X0412760Y0240383D01*
X0412802Y0240444D01*
X0412848Y0240502D01*
X0412897Y0240557D01*
X0412949Y0240610D01*
X0413004Y0240660D01*
X0413061Y0240706D01*
X0413121Y0240750D01*
X0413183Y0240790D01*
X0413247Y0240827D01*
X0413313Y0240861D01*
X0413381Y0240891D01*
X0413450Y0240917D01*
X0413521Y0240940D01*
X0413592Y0240958D01*
X0413665Y0240973D01*
X0413738Y0240984D01*
X0413812Y0240991D01*
X0413886Y0240994D01*
X0413959Y0240993D01*
X0414033Y0240988D01*
X0414107Y0240979D01*
X0414180Y0240966D01*
X0414252Y0240949D01*
X0414323Y0240929D01*
X0414393Y0240904D01*
X0414461Y0240876D01*
X0414528Y0240845D01*
X0414593Y0240809D01*
X0414656Y0240771D01*
X0414717Y0240729D01*
X0414776Y0240683D01*
X0414832Y0240635D01*
X0414885Y0240584D01*
X0414935Y0240530D01*
X0414983Y0240473D01*
X0415027Y0240414D01*
X0415069Y0240352D01*
X0415107Y0240289D01*
X0415141Y0240223D01*
X0415172Y0240156D01*
X0415199Y0240087D01*
X0415222Y0240017D01*
X0415242Y0239946D01*
X0415258Y0239873D01*
X0415270Y0239800D01*
X0415278Y0239727D01*
X0415282Y0239653D01*
X0415282Y0239579D01*
X0415278Y0239505D01*
X0415270Y0239432D01*
X0415258Y0239359D01*
X0415242Y0239286D01*
X0415222Y0239215D01*
X0415199Y0239145D01*
X0415172Y0239076D01*
X0415141Y0239009D01*
X0415107Y0238943D01*
X0415069Y0238880D01*
X0415027Y0238818D01*
X0414983Y0238759D01*
X0414935Y0238702D01*
X0414885Y0238648D01*
X0414832Y0238597D01*
X0414776Y0238549D01*
X0414717Y0238503D01*
X0414656Y0238461D01*
X0414593Y0238423D01*
X0414528Y0238387D01*
X0414461Y0238356D01*
X0414393Y0238328D01*
X0414323Y0238303D01*
X0414252Y0238283D01*
X0414180Y0238266D01*
X0414107Y0238253D01*
X0414033Y0238244D01*
X0413959Y0238239D01*
X0413886Y0238238D01*
X0413812Y0238241D01*
X0413738Y0238248D01*
X0413665Y0238259D01*
X0413592Y0238274D01*
X0413521Y0238292D01*
X0413450Y0238315D01*
X0413381Y0238341D01*
X0413313Y0238371D01*
X0413247Y0238405D01*
X0413183Y0238442D01*
X0413121Y0238482D01*
X0413061Y0238526D01*
X0413004Y0238572D01*
X0412949Y0238622D01*
X0412897Y0238675D01*
X0412848Y0238730D01*
X0412802Y0238788D01*
X0412760Y0238849D01*
X0412720Y0238911D01*
X0412684Y0238976D01*
X0412651Y0239042D01*
X0412622Y0239110D01*
X0412597Y0239180D01*
X0412575Y0239250D01*
X0412558Y0239322D01*
X0412544Y0239395D01*
X0412534Y0239468D01*
X0412528Y0239542D01*
X0412526Y0239616D01*
D19*
X0462916Y0055634D02*
X0462918Y0055673D01*
X0462924Y0055712D01*
X0462934Y0055750D01*
X0462947Y0055787D01*
X0462964Y0055822D01*
X0462984Y0055856D01*
X0463008Y0055887D01*
X0463035Y0055916D01*
X0463064Y0055942D01*
X0463096Y0055965D01*
X0463130Y0055985D01*
X0463166Y0056001D01*
X0463203Y0056013D01*
X0463242Y0056022D01*
X0463281Y0056027D01*
X0463320Y0056028D01*
X0463359Y0056025D01*
X0463398Y0056018D01*
X0463435Y0056007D01*
X0463472Y0055993D01*
X0463507Y0055975D01*
X0463540Y0055954D01*
X0463571Y0055929D01*
X0463599Y0055902D01*
X0463624Y0055872D01*
X0463646Y0055839D01*
X0463665Y0055805D01*
X0463680Y0055769D01*
X0463692Y0055731D01*
X0463700Y0055693D01*
X0463704Y0055654D01*
X0463704Y0055614D01*
X0463700Y0055575D01*
X0463692Y0055537D01*
X0463680Y0055499D01*
X0463665Y0055463D01*
X0463646Y0055429D01*
X0463624Y0055396D01*
X0463599Y0055366D01*
X0463571Y0055339D01*
X0463540Y0055314D01*
X0463507Y0055293D01*
X0463472Y0055275D01*
X0463435Y0055261D01*
X0463398Y0055250D01*
X0463359Y0055243D01*
X0463320Y0055240D01*
X0463281Y0055241D01*
X0463242Y0055246D01*
X0463203Y0055255D01*
X0463166Y0055267D01*
X0463130Y0055283D01*
X0463096Y0055303D01*
X0463064Y0055326D01*
X0463035Y0055352D01*
X0463008Y0055381D01*
X0462984Y0055412D01*
X0462964Y0055446D01*
X0462947Y0055481D01*
X0462934Y0055518D01*
X0462924Y0055556D01*
X0462918Y0055595D01*
X0462916Y0055634D01*
D20*
X0442200Y0058588D03*
M02*
