G75*
%MOIN*%
%OFA0B0*%
%FSLAX25Y25*%
%IPPOS*%
%LPD*%
%AMOC8*
5,1,8,0,0,1.08239X$1,22.5*
%
%ADD10C,0.02400*%
%ADD11R,0.12211X0.05124*%
%ADD12R,0.12211X0.05912*%
%ADD13R,0.03156X0.04731*%
%ADD14R,0.08274X0.11424*%
%ADD15R,0.03200X0.07575*%
%ADD16C,0.07450*%
%ADD17C,0.09000*%
%ADD18R,0.05912X0.04337*%
%ADD19R,0.05912X0.05912*%
%ADD20C,0.03291*%
%ADD21C,0.00975*%
%ADD22R,0.04731X0.03550*%
%ADD23R,0.04337X0.04156*%
%ADD24C,0.00000*%
%ADD25C,0.03156*%
%ADD26R,0.02900X0.05400*%
%ADD27R,0.04400X0.04900*%
%ADD28R,0.03156X0.07093*%
%ADD29C,0.06400*%
%ADD30R,0.04926X0.05709*%
%ADD31R,0.04915X0.05710*%
%ADD32R,0.09058X0.08270*%
%ADD33R,0.09047X0.08280*%
%ADD34R,0.01975X0.05715*%
%ADD35R,0.07487X0.07880*%
%ADD36C,0.04959*%
%ADD37C,0.05648*%
%ADD38R,0.02762X0.02172*%
%ADD39R,0.03550X0.06699*%
D10*
X0372094Y0046210D02*
X0372094Y0085580D01*
X0372127Y0085721D02*
X0376606Y0085721D01*
X0376626Y0085719D01*
X0376646Y0085715D01*
X0376665Y0085707D01*
X0376682Y0085696D01*
X0376697Y0085683D01*
X0376710Y0085668D01*
X0376721Y0085651D01*
X0376729Y0085632D01*
X0376733Y0085612D01*
X0376735Y0085592D01*
X0416134Y0066838D02*
X0416134Y0059313D01*
X0416134Y0054513D02*
X0416134Y0046988D01*
X0416363Y0046759D01*
X0443519Y0046053D02*
X0443551Y0046051D01*
X0443583Y0046046D01*
X0443613Y0046037D01*
X0443643Y0046025D01*
X0443671Y0046009D01*
X0443697Y0045991D01*
X0443721Y0045969D01*
X0443743Y0045945D01*
X0443761Y0045919D01*
X0443777Y0045891D01*
X0443789Y0045861D01*
X0443798Y0045831D01*
X0443803Y0045799D01*
X0443805Y0045767D01*
X0445913Y0046210D02*
X0372094Y0046210D01*
X0416134Y0066838D02*
X0418337Y0069040D01*
X0421731Y0072434D02*
X0423933Y0074637D01*
X0423933Y0083482D01*
X0423933Y0088282D02*
X0423933Y0097128D01*
X0429441Y0102635D01*
X0431389Y0102635D01*
X0432869Y0109076D01*
X0433797Y0110093D01*
X0433881Y0116528D01*
X0433943Y0121328D02*
X0434027Y0127763D01*
X0438131Y0134341D02*
X0438137Y0134507D01*
X0438140Y0134674D01*
X0438139Y0134841D01*
X0438133Y0135007D01*
X0438124Y0135174D01*
X0438111Y0135340D01*
X0438094Y0135506D01*
X0438073Y0135671D01*
X0438048Y0135836D01*
X0438019Y0136000D01*
X0437987Y0136164D01*
X0437950Y0136327D01*
X0437910Y0136488D01*
X0437866Y0136649D01*
X0437818Y0136809D01*
X0437767Y0136967D01*
X0437711Y0137125D01*
X0437652Y0137281D01*
X0437590Y0137435D01*
X0437780Y0140416D01*
X0438087Y0145206D02*
X0438277Y0148187D01*
X0438313Y0148301D01*
X0438346Y0148416D01*
X0438375Y0148532D01*
X0438400Y0148649D01*
X0438422Y0148766D01*
X0438440Y0148884D01*
X0438454Y0149003D01*
X0438464Y0149122D01*
X0438470Y0149242D01*
X0438473Y0149362D01*
X0438472Y0149481D01*
X0438467Y0149601D01*
X0438458Y0149720D01*
X0438445Y0149839D01*
X0438428Y0149957D01*
X0438408Y0150075D01*
X0438384Y0150192D01*
X0438356Y0150309D01*
X0438324Y0150424D01*
X0438289Y0150539D01*
X0438250Y0150652D01*
X0438208Y0150763D01*
X0438161Y0150874D01*
X0438112Y0150983D01*
X0438059Y0151090D01*
X0438002Y0151195D01*
X0437942Y0151299D01*
X0437879Y0151401D01*
X0437813Y0151500D01*
X0437743Y0151598D01*
X0437671Y0151693D01*
X0437595Y0151785D01*
X0437517Y0151876D01*
X0437435Y0151963D01*
X0437351Y0152048D01*
X0437264Y0152131D01*
X0437175Y0152210D01*
X0437083Y0152287D01*
X0436989Y0152360D01*
X0436892Y0152431D01*
X0436793Y0152498D01*
X0436692Y0152562D01*
X0436589Y0152623D01*
X0436484Y0152681D01*
X0436378Y0152735D01*
X0436269Y0152786D01*
X0436159Y0152833D01*
X0436048Y0152877D01*
X0435935Y0152917D01*
X0435076Y0152763D02*
X0429231Y0152718D01*
X0424432Y0152682D02*
X0418587Y0152637D01*
X0413787Y0152601D02*
X0407943Y0152556D01*
X0433788Y0128158D02*
X0433941Y0128224D01*
X0434093Y0128294D01*
X0434242Y0128367D01*
X0434390Y0128444D01*
X0434536Y0128525D01*
X0434681Y0128608D01*
X0434823Y0128695D01*
X0434963Y0128786D01*
X0435101Y0128879D01*
X0435237Y0128976D01*
X0435370Y0129076D01*
X0435501Y0129179D01*
X0435629Y0129286D01*
X0435755Y0129395D01*
X0435879Y0129507D01*
X0436000Y0129622D01*
X0436117Y0129740D01*
X0436233Y0129860D01*
X0436345Y0129983D01*
X0463297Y0127940D02*
X0463096Y0123123D01*
X0462895Y0118327D02*
X0462693Y0113510D01*
X0462492Y0108714D02*
X0462290Y0103898D01*
X0465815Y0100039D01*
X0466899Y0099291D02*
X0475731Y0099056D01*
X0487030Y0105077D02*
X0487220Y0105360D01*
X0487402Y0105647D01*
X0487577Y0105939D01*
X0487745Y0106235D01*
X0487906Y0106535D01*
X0488059Y0106839D01*
X0488205Y0107146D01*
X0488343Y0107457D01*
X0488473Y0107771D01*
X0488596Y0108089D01*
X0488711Y0108409D01*
X0488818Y0108732D01*
X0488918Y0109057D01*
X0489009Y0109385D01*
X0489092Y0109715D01*
X0489167Y0110047D01*
X0489234Y0110381D01*
X0489292Y0110716D01*
X0489343Y0111052D01*
X0489385Y0111390D01*
X0489419Y0111729D01*
X0489444Y0112068D01*
X0489462Y0112408D01*
X0489471Y0112748D01*
X0489471Y0113088D01*
X0494833Y0113205D01*
X0499632Y0113309D02*
X0504994Y0113426D01*
X0509793Y0113530D02*
X0515155Y0113647D01*
X0534496Y0115107D02*
X0534496Y0252903D01*
X0534497Y0252903D02*
X0534488Y0253617D01*
X0534463Y0254330D01*
X0534419Y0255042D01*
X0534359Y0255753D01*
X0534282Y0256462D01*
X0534187Y0257169D01*
X0534076Y0257874D01*
X0533947Y0258576D01*
X0533801Y0259275D01*
X0533639Y0259970D01*
X0533460Y0260660D01*
X0533264Y0261346D01*
X0533052Y0262028D01*
X0532823Y0262704D01*
X0532578Y0263374D01*
X0532317Y0264038D01*
X0532040Y0264695D01*
X0531747Y0265346D01*
X0531439Y0265990D01*
X0531115Y0266625D01*
X0530776Y0267253D01*
X0530421Y0267873D01*
X0530052Y0268483D01*
X0529668Y0269085D01*
X0529270Y0269677D01*
X0528858Y0270259D01*
X0528431Y0270831D01*
X0527991Y0271393D01*
X0527538Y0271944D01*
X0527071Y0272484D01*
X0526591Y0273012D01*
X0526099Y0273529D01*
X0525595Y0274033D01*
X0525078Y0274525D01*
X0524550Y0275005D01*
X0524010Y0275472D01*
X0523459Y0275925D01*
X0522897Y0276365D01*
X0522325Y0276792D01*
X0521743Y0277204D01*
X0521151Y0277602D01*
X0520549Y0277986D01*
X0519939Y0278355D01*
X0519319Y0278710D01*
X0518691Y0279049D01*
X0518056Y0279373D01*
X0517412Y0279681D01*
X0516761Y0279974D01*
X0516104Y0280251D01*
X0515440Y0280512D01*
X0514770Y0280757D01*
X0514094Y0280986D01*
X0513412Y0281198D01*
X0512726Y0281394D01*
X0512036Y0281573D01*
X0511341Y0281735D01*
X0510642Y0281881D01*
X0509940Y0282010D01*
X0509235Y0282121D01*
X0508528Y0282216D01*
X0507819Y0282293D01*
X0507108Y0282353D01*
X0506396Y0282397D01*
X0505683Y0282422D01*
X0504969Y0282431D01*
X0504969Y0282430D02*
X0445913Y0282430D01*
X0444962Y0282419D01*
X0444011Y0282384D01*
X0443061Y0282327D01*
X0442113Y0282246D01*
X0441167Y0282143D01*
X0440224Y0282017D01*
X0439285Y0281868D01*
X0438349Y0281697D01*
X0437418Y0281502D01*
X0436491Y0281286D01*
X0435570Y0281047D01*
X0434655Y0280786D01*
X0433747Y0280503D01*
X0432846Y0280198D01*
X0431952Y0279872D01*
X0431067Y0279523D01*
X0430190Y0279154D01*
X0429322Y0278764D01*
X0428465Y0278352D01*
X0427617Y0277920D01*
X0426780Y0277468D01*
X0425954Y0276996D01*
X0425140Y0276504D01*
X0424338Y0275992D01*
X0423548Y0275461D01*
X0422772Y0274911D01*
X0422009Y0274343D01*
X0421260Y0273756D01*
X0420526Y0273151D01*
X0419806Y0272529D01*
X0419101Y0271889D01*
X0418413Y0271233D01*
X0417740Y0270560D01*
X0417084Y0269872D01*
X0416444Y0269167D01*
X0415822Y0268447D01*
X0415217Y0267713D01*
X0414630Y0266964D01*
X0414062Y0266201D01*
X0413512Y0265425D01*
X0412981Y0264635D01*
X0412469Y0263833D01*
X0411977Y0263019D01*
X0411505Y0262193D01*
X0411053Y0261356D01*
X0410621Y0260508D01*
X0410209Y0259651D01*
X0409819Y0258783D01*
X0409450Y0257906D01*
X0409101Y0257021D01*
X0408775Y0256127D01*
X0408470Y0255226D01*
X0408187Y0254318D01*
X0407926Y0253403D01*
X0407687Y0252482D01*
X0407471Y0251555D01*
X0407276Y0250624D01*
X0407105Y0249688D01*
X0406956Y0248749D01*
X0406830Y0247806D01*
X0406727Y0246860D01*
X0406646Y0245912D01*
X0406589Y0244962D01*
X0406554Y0244011D01*
X0406543Y0243060D01*
X0406543Y0115107D01*
X0406544Y0115107D02*
X0406535Y0114393D01*
X0406510Y0113680D01*
X0406466Y0112968D01*
X0406406Y0112257D01*
X0406329Y0111548D01*
X0406234Y0110841D01*
X0406123Y0110136D01*
X0405994Y0109434D01*
X0405848Y0108735D01*
X0405686Y0108040D01*
X0405507Y0107350D01*
X0405311Y0106664D01*
X0405099Y0105982D01*
X0404870Y0105306D01*
X0404625Y0104636D01*
X0404364Y0103972D01*
X0404087Y0103315D01*
X0403794Y0102664D01*
X0403486Y0102020D01*
X0403162Y0101385D01*
X0402823Y0100757D01*
X0402468Y0100137D01*
X0402099Y0099527D01*
X0401715Y0098925D01*
X0401317Y0098333D01*
X0400905Y0097751D01*
X0400478Y0097179D01*
X0400038Y0096617D01*
X0399585Y0096066D01*
X0399118Y0095526D01*
X0398638Y0094998D01*
X0398146Y0094481D01*
X0397642Y0093977D01*
X0397125Y0093485D01*
X0396597Y0093005D01*
X0396057Y0092538D01*
X0395506Y0092085D01*
X0394944Y0091645D01*
X0394372Y0091218D01*
X0393790Y0090806D01*
X0393198Y0090408D01*
X0392596Y0090024D01*
X0391986Y0089655D01*
X0391366Y0089300D01*
X0390738Y0088961D01*
X0390103Y0088637D01*
X0389459Y0088329D01*
X0388808Y0088036D01*
X0388151Y0087759D01*
X0387487Y0087498D01*
X0386817Y0087253D01*
X0386141Y0087024D01*
X0385459Y0086812D01*
X0384773Y0086616D01*
X0384083Y0086437D01*
X0383388Y0086275D01*
X0382689Y0086129D01*
X0381987Y0086000D01*
X0381282Y0085889D01*
X0380575Y0085794D01*
X0379866Y0085717D01*
X0379155Y0085657D01*
X0378443Y0085613D01*
X0377730Y0085588D01*
X0377016Y0085579D01*
X0445913Y0046210D02*
X0445913Y0036367D01*
X0445914Y0036367D02*
X0445916Y0036229D01*
X0445922Y0036091D01*
X0445931Y0035953D01*
X0445945Y0035816D01*
X0445962Y0035679D01*
X0445984Y0035543D01*
X0446009Y0035407D01*
X0446037Y0035272D01*
X0446070Y0035138D01*
X0446106Y0035005D01*
X0446146Y0034873D01*
X0446190Y0034742D01*
X0446238Y0034612D01*
X0446289Y0034484D01*
X0446343Y0034357D01*
X0446401Y0034232D01*
X0446463Y0034108D01*
X0446528Y0033987D01*
X0446596Y0033867D01*
X0446668Y0033749D01*
X0446743Y0033633D01*
X0446822Y0033519D01*
X0446903Y0033408D01*
X0446988Y0033299D01*
X0447075Y0033192D01*
X0447166Y0033088D01*
X0447259Y0032986D01*
X0447355Y0032887D01*
X0447454Y0032791D01*
X0447556Y0032698D01*
X0447660Y0032607D01*
X0447767Y0032520D01*
X0447876Y0032435D01*
X0447987Y0032354D01*
X0448101Y0032275D01*
X0448217Y0032200D01*
X0448335Y0032128D01*
X0448455Y0032060D01*
X0448576Y0031995D01*
X0448700Y0031933D01*
X0448825Y0031875D01*
X0448952Y0031821D01*
X0449080Y0031770D01*
X0449210Y0031722D01*
X0449341Y0031678D01*
X0449473Y0031638D01*
X0449606Y0031602D01*
X0449740Y0031569D01*
X0449875Y0031541D01*
X0450011Y0031516D01*
X0450147Y0031494D01*
X0450284Y0031477D01*
X0450421Y0031463D01*
X0450559Y0031454D01*
X0450697Y0031448D01*
X0450835Y0031446D01*
X0485283Y0031446D01*
X0485421Y0031448D01*
X0485559Y0031454D01*
X0485697Y0031463D01*
X0485834Y0031477D01*
X0485971Y0031494D01*
X0486107Y0031516D01*
X0486243Y0031541D01*
X0486378Y0031569D01*
X0486512Y0031602D01*
X0486645Y0031638D01*
X0486777Y0031678D01*
X0486908Y0031722D01*
X0487038Y0031770D01*
X0487166Y0031821D01*
X0487293Y0031875D01*
X0487418Y0031933D01*
X0487542Y0031995D01*
X0487663Y0032060D01*
X0487783Y0032128D01*
X0487901Y0032200D01*
X0488017Y0032275D01*
X0488131Y0032354D01*
X0488242Y0032435D01*
X0488351Y0032520D01*
X0488458Y0032607D01*
X0488562Y0032698D01*
X0488664Y0032791D01*
X0488763Y0032887D01*
X0488859Y0032986D01*
X0488952Y0033088D01*
X0489043Y0033192D01*
X0489130Y0033299D01*
X0489215Y0033408D01*
X0489296Y0033519D01*
X0489375Y0033633D01*
X0489450Y0033749D01*
X0489522Y0033867D01*
X0489590Y0033987D01*
X0489655Y0034108D01*
X0489717Y0034232D01*
X0489775Y0034357D01*
X0489829Y0034484D01*
X0489880Y0034612D01*
X0489928Y0034742D01*
X0489972Y0034873D01*
X0490012Y0035005D01*
X0490048Y0035138D01*
X0490081Y0035272D01*
X0490109Y0035407D01*
X0490134Y0035543D01*
X0490156Y0035679D01*
X0490173Y0035816D01*
X0490187Y0035953D01*
X0490196Y0036091D01*
X0490202Y0036229D01*
X0490204Y0036367D01*
X0490205Y0036367D02*
X0490205Y0046210D01*
X0568945Y0046210D01*
X0568945Y0085580D01*
X0568819Y0085696D02*
X0563694Y0085696D01*
X0563679Y0085695D01*
X0563664Y0085690D01*
X0563651Y0085683D01*
X0563639Y0085673D01*
X0563629Y0085661D01*
X0563622Y0085648D01*
X0563617Y0085633D01*
X0563616Y0085618D01*
X0526748Y0087961D02*
X0526675Y0081291D01*
X0526623Y0076492D02*
X0526550Y0069822D01*
X0526498Y0065022D02*
X0526425Y0058353D01*
X0526373Y0053553D02*
X0526300Y0046884D01*
X0526800Y0092760D02*
X0526873Y0099430D01*
X0526873Y0099429D02*
X0526830Y0099420D01*
X0526786Y0099414D01*
X0526742Y0099412D01*
X0526698Y0099414D01*
X0526654Y0099420D01*
X0526611Y0099429D01*
X0526569Y0099442D01*
X0526528Y0099459D01*
X0526489Y0099480D01*
X0526452Y0099503D01*
X0526417Y0099530D01*
X0526384Y0099560D01*
X0526355Y0099593D01*
X0526328Y0099628D01*
X0526304Y0099665D01*
X0526284Y0099704D01*
X0526267Y0099745D01*
X0526253Y0099787D01*
X0526784Y0100523D02*
X0526799Y0100816D01*
X0526806Y0101110D01*
X0526806Y0101403D01*
X0526800Y0101697D01*
X0526786Y0101990D01*
X0526766Y0102283D01*
X0526738Y0102575D01*
X0526704Y0102866D01*
X0526663Y0103157D01*
X0526614Y0103446D01*
X0526560Y0103735D01*
X0526498Y0104022D01*
X0526429Y0104307D01*
X0526354Y0104591D01*
X0526272Y0104873D01*
X0526183Y0105153D01*
X0526088Y0105430D01*
X0525986Y0105705D01*
X0525878Y0105978D01*
X0525764Y0106249D01*
X0525643Y0106516D01*
X0525515Y0106780D01*
X0525382Y0107042D01*
X0525242Y0107300D01*
X0525096Y0107555D01*
X0521933Y0111125D02*
X0521697Y0111300D01*
X0521458Y0111470D01*
X0521214Y0111634D01*
X0520967Y0111792D01*
X0520716Y0111944D01*
X0520462Y0112091D01*
X0520204Y0112231D01*
X0519943Y0112365D01*
X0519679Y0112493D01*
X0519412Y0112615D01*
X0519142Y0112730D01*
X0518869Y0112839D01*
X0518594Y0112941D01*
X0518317Y0113037D01*
X0518037Y0113126D01*
X0517755Y0113209D01*
X0517472Y0113285D01*
X0517186Y0113354D01*
X0516900Y0113416D01*
X0516611Y0113472D01*
X0516322Y0113520D01*
X0516031Y0113562D01*
X0515740Y0113597D01*
X0515448Y0113625D01*
X0515155Y0113646D01*
X0483689Y0101665D02*
X0483410Y0101470D01*
X0483127Y0101281D01*
X0482839Y0101100D01*
X0482546Y0100926D01*
X0482250Y0100759D01*
X0481949Y0100599D01*
X0481645Y0100447D01*
X0481337Y0100302D01*
X0481026Y0100165D01*
X0480711Y0100036D01*
X0480393Y0099914D01*
X0480073Y0099800D01*
X0479749Y0099694D01*
X0479423Y0099596D01*
X0479095Y0099506D01*
X0478765Y0099424D01*
X0478433Y0099350D01*
X0478099Y0099284D01*
X0477764Y0099227D01*
X0477427Y0099178D01*
X0477089Y0099137D01*
X0476751Y0099104D01*
X0476411Y0099080D01*
X0476071Y0099064D01*
X0475731Y0099056D01*
X0463498Y0132735D02*
X0463700Y0137552D01*
X0463630Y0137745D02*
X0463630Y0145188D01*
X0463630Y0149988D02*
X0463630Y0157430D01*
X0463629Y0157430D02*
X0463623Y0157526D01*
X0463621Y0157621D01*
X0463623Y0157717D01*
X0463628Y0157812D01*
X0463638Y0157907D01*
X0463651Y0158001D01*
X0463668Y0158095D01*
X0463688Y0158189D01*
X0463713Y0158281D01*
X0463741Y0158372D01*
X0463773Y0158462D01*
X0463808Y0158551D01*
X0463847Y0158638D01*
X0463890Y0158723D01*
X0463936Y0158807D01*
X0463985Y0158889D01*
X0464037Y0158968D01*
X0464093Y0159046D01*
X0464151Y0159121D01*
X0464213Y0159194D01*
X0464278Y0159265D01*
X0464345Y0159332D01*
X0464415Y0159397D01*
X0464488Y0159459D01*
X0464563Y0159518D01*
X0464640Y0159574D01*
X0464719Y0159627D01*
X0464801Y0159677D01*
X0464884Y0159723D01*
X0464970Y0159766D01*
X0465057Y0159805D01*
X0465145Y0159841D01*
X0465235Y0159873D01*
X0465326Y0159902D01*
X0465418Y0159927D01*
X0465511Y0159948D01*
X0465605Y0159965D01*
X0465700Y0159979D01*
X0465794Y0159989D01*
X0465795Y0159988D02*
X0469104Y0160011D01*
X0473904Y0160044D02*
X0477213Y0160067D01*
X0477323Y0160025D01*
X0477432Y0159980D01*
X0477539Y0159931D01*
X0477644Y0159879D01*
X0477748Y0159823D01*
X0477850Y0159764D01*
X0477950Y0159701D01*
X0478047Y0159636D01*
X0478143Y0159567D01*
X0478236Y0159495D01*
X0478327Y0159420D01*
X0478415Y0159342D01*
X0478501Y0159262D01*
X0478584Y0159178D01*
X0478665Y0159092D01*
X0478742Y0159003D01*
X0478816Y0158912D01*
X0478888Y0158819D01*
X0478956Y0158723D01*
X0479021Y0158625D01*
X0479083Y0158525D01*
X0479142Y0158422D01*
X0479197Y0158319D01*
X0479249Y0158213D01*
X0479297Y0158105D01*
X0479342Y0157997D01*
X0479383Y0157886D01*
X0479421Y0157775D01*
X0479455Y0157662D01*
X0479485Y0157548D01*
X0479512Y0157433D01*
X0479534Y0157318D01*
X0479553Y0157202D01*
X0479568Y0157085D01*
X0479580Y0156968D01*
X0479587Y0156850D01*
X0479591Y0156733D01*
X0479590Y0156615D01*
X0479586Y0156497D01*
X0479578Y0156380D01*
X0479566Y0156262D01*
X0479551Y0156146D01*
X0479531Y0156030D01*
X0479508Y0155914D01*
X0479481Y0155800D01*
X0479450Y0155686D01*
X0479416Y0155573D01*
X0479378Y0155462D01*
X0479377Y0155462D02*
X0479380Y0155230D01*
X0479388Y0154999D01*
X0479402Y0154767D01*
X0479421Y0154536D01*
X0479445Y0154306D01*
X0479475Y0154076D01*
X0479510Y0153847D01*
X0479551Y0153619D01*
X0479597Y0153392D01*
X0479649Y0153166D01*
X0479705Y0152941D01*
X0479767Y0152718D01*
X0479835Y0152496D01*
X0479907Y0152276D01*
X0479985Y0152057D01*
X0480067Y0151841D01*
X0480155Y0151626D01*
X0480248Y0151414D01*
X0480346Y0151204D01*
X0480448Y0150996D01*
X0480556Y0150791D01*
X0480668Y0150588D01*
X0480785Y0150388D01*
X0484146Y0147027D02*
X0484346Y0146910D01*
X0484549Y0146798D01*
X0484754Y0146690D01*
X0484962Y0146588D01*
X0485172Y0146490D01*
X0485384Y0146397D01*
X0485599Y0146309D01*
X0485815Y0146227D01*
X0486034Y0146149D01*
X0486254Y0146077D01*
X0486476Y0146009D01*
X0486699Y0145947D01*
X0486924Y0145891D01*
X0487150Y0145839D01*
X0487377Y0145793D01*
X0487605Y0145752D01*
X0487834Y0145717D01*
X0488064Y0145687D01*
X0488294Y0145663D01*
X0488525Y0145644D01*
X0488757Y0145630D01*
X0488988Y0145622D01*
X0489220Y0145619D01*
X0489782Y0145673D02*
X0494773Y0145673D01*
X0499573Y0145673D02*
X0504565Y0145673D01*
X0509365Y0145673D02*
X0514356Y0145673D01*
X0519156Y0145673D02*
X0524147Y0145673D01*
X0528947Y0145673D02*
X0533938Y0145673D01*
X0534496Y0115107D02*
X0534505Y0114393D01*
X0534530Y0113680D01*
X0534574Y0112968D01*
X0534634Y0112257D01*
X0534711Y0111548D01*
X0534806Y0110841D01*
X0534917Y0110136D01*
X0535046Y0109434D01*
X0535192Y0108735D01*
X0535354Y0108040D01*
X0535533Y0107350D01*
X0535729Y0106664D01*
X0535941Y0105982D01*
X0536170Y0105306D01*
X0536415Y0104636D01*
X0536676Y0103972D01*
X0536953Y0103315D01*
X0537246Y0102664D01*
X0537554Y0102020D01*
X0537878Y0101385D01*
X0538217Y0100757D01*
X0538572Y0100137D01*
X0538941Y0099527D01*
X0539325Y0098925D01*
X0539723Y0098333D01*
X0540135Y0097751D01*
X0540562Y0097179D01*
X0541002Y0096617D01*
X0541455Y0096066D01*
X0541922Y0095526D01*
X0542402Y0094998D01*
X0542894Y0094481D01*
X0543398Y0093977D01*
X0543915Y0093485D01*
X0544443Y0093005D01*
X0544983Y0092538D01*
X0545534Y0092085D01*
X0546096Y0091645D01*
X0546668Y0091218D01*
X0547250Y0090806D01*
X0547842Y0090408D01*
X0548444Y0090024D01*
X0549054Y0089655D01*
X0549674Y0089300D01*
X0550302Y0088961D01*
X0550937Y0088637D01*
X0551581Y0088329D01*
X0552232Y0088036D01*
X0552889Y0087759D01*
X0553553Y0087498D01*
X0554223Y0087253D01*
X0554899Y0087024D01*
X0555581Y0086812D01*
X0556267Y0086616D01*
X0556957Y0086437D01*
X0557652Y0086275D01*
X0558351Y0086129D01*
X0559053Y0086000D01*
X0559758Y0085889D01*
X0560465Y0085794D01*
X0561174Y0085717D01*
X0561885Y0085657D01*
X0562597Y0085613D01*
X0563310Y0085588D01*
X0564024Y0085579D01*
D11*
X0505461Y0194288D03*
X0505461Y0202162D03*
X0505461Y0210036D03*
X0505461Y0217910D03*
X0505461Y0225784D03*
X0505461Y0233658D03*
X0505461Y0241532D03*
X0505461Y0249406D03*
X0440895Y0249406D03*
X0440895Y0241532D03*
X0440895Y0233658D03*
X0440895Y0225784D03*
X0440895Y0217910D03*
X0440895Y0210036D03*
X0440895Y0202162D03*
X0440895Y0194288D03*
D12*
X0483121Y0173712D03*
X0502019Y0173712D03*
D13*
X0452939Y0110429D03*
X0441128Y0110429D03*
D14*
X0447033Y0120862D03*
D15*
X0446994Y0111669D03*
D16*
X0404695Y0067793D02*
X0404695Y0060743D01*
X0385010Y0060743D02*
X0385010Y0067793D01*
X0537634Y0067920D02*
X0537634Y0060870D01*
X0557319Y0060870D02*
X0557319Y0067920D01*
D17*
X0517405Y0105716D03*
X0525279Y0129338D03*
X0517405Y0152960D03*
X0470161Y0152960D03*
X0470161Y0105716D03*
D18*
X0423375Y0179580D03*
X0432036Y0183321D03*
X0423375Y0187061D03*
D19*
X0447304Y0156030D03*
X0447304Y0141070D03*
D20*
X0431082Y0139143D02*
X0431082Y0133647D01*
X0427792Y0133647D01*
X0427792Y0139143D01*
X0431082Y0139143D01*
X0431082Y0136937D02*
X0427792Y0136937D01*
X0421082Y0139143D02*
X0421082Y0133647D01*
X0417792Y0133647D01*
X0417792Y0139143D01*
X0421082Y0139143D01*
X0421082Y0136937D02*
X0417792Y0136937D01*
X0421082Y0167427D02*
X0421082Y0172923D01*
X0421082Y0167427D02*
X0417792Y0167427D01*
X0417792Y0172923D01*
X0421082Y0172923D01*
X0421082Y0170717D02*
X0417792Y0170717D01*
X0431082Y0172923D02*
X0431082Y0167427D01*
X0427792Y0167427D01*
X0427792Y0172923D01*
X0431082Y0172923D01*
X0431082Y0170717D02*
X0427792Y0170717D01*
D21*
X0463247Y0176666D02*
X0466173Y0176666D01*
X0463247Y0176666D02*
X0463247Y0179592D01*
X0466173Y0179592D01*
X0466173Y0176666D01*
X0466173Y0177640D02*
X0463247Y0177640D01*
X0463247Y0178614D02*
X0466173Y0178614D01*
X0466173Y0179588D02*
X0463247Y0179588D01*
X0469247Y0176666D02*
X0472173Y0176666D01*
X0469247Y0176666D02*
X0469247Y0179592D01*
X0472173Y0179592D01*
X0472173Y0176666D01*
X0472173Y0177640D02*
X0469247Y0177640D01*
X0469247Y0178614D02*
X0472173Y0178614D01*
X0472173Y0179588D02*
X0469247Y0179588D01*
X0430544Y0193455D02*
X0427618Y0193455D01*
X0427618Y0196381D01*
X0430544Y0196381D01*
X0430544Y0193455D01*
X0430544Y0194429D02*
X0427618Y0194429D01*
X0427618Y0195403D02*
X0430544Y0195403D01*
X0430544Y0196377D02*
X0427618Y0196377D01*
X0424544Y0193455D02*
X0421618Y0193455D01*
X0421618Y0196381D01*
X0424544Y0196381D01*
X0424544Y0193455D01*
X0424544Y0194429D02*
X0421618Y0194429D01*
X0421618Y0195403D02*
X0424544Y0195403D01*
X0424544Y0196377D02*
X0421618Y0196377D01*
X0515610Y0164938D02*
X0518536Y0164938D01*
X0515610Y0164938D02*
X0515610Y0167864D01*
X0518536Y0167864D01*
X0518536Y0164938D01*
X0518536Y0165912D02*
X0515610Y0165912D01*
X0515610Y0166886D02*
X0518536Y0166886D01*
X0518536Y0167860D02*
X0515610Y0167860D01*
X0521610Y0164938D02*
X0524536Y0164938D01*
X0521610Y0164938D02*
X0521610Y0167864D01*
X0524536Y0167864D01*
X0524536Y0164938D01*
X0524536Y0165912D02*
X0521610Y0165912D01*
X0521610Y0166886D02*
X0524536Y0166886D01*
X0524536Y0167860D02*
X0521610Y0167860D01*
X0410784Y0100386D02*
X0410784Y0097460D01*
X0410784Y0100386D02*
X0413710Y0100386D01*
X0413710Y0097460D01*
X0410784Y0097460D01*
X0410784Y0098434D02*
X0413710Y0098434D01*
X0413710Y0099408D02*
X0410784Y0099408D01*
X0410784Y0100382D02*
X0413710Y0100382D01*
X0410784Y0094386D02*
X0410784Y0091460D01*
X0410784Y0094386D02*
X0413710Y0094386D01*
X0413710Y0091460D01*
X0410784Y0091460D01*
X0410784Y0092434D02*
X0413710Y0092434D01*
X0413710Y0093408D02*
X0410784Y0093408D01*
X0410784Y0094382D02*
X0413710Y0094382D01*
X0436449Y0086509D02*
X0439375Y0086509D01*
X0436449Y0086509D02*
X0436449Y0089435D01*
X0439375Y0089435D01*
X0439375Y0086509D01*
X0439375Y0087483D02*
X0436449Y0087483D01*
X0436449Y0088457D02*
X0439375Y0088457D01*
X0439375Y0089431D02*
X0436449Y0089431D01*
X0442449Y0086509D02*
X0445375Y0086509D01*
X0442449Y0086509D02*
X0442449Y0089435D01*
X0445375Y0089435D01*
X0445375Y0086509D01*
X0445375Y0087483D02*
X0442449Y0087483D01*
X0442449Y0088457D02*
X0445375Y0088457D01*
X0445375Y0089431D02*
X0442449Y0089431D01*
X0442449Y0076009D02*
X0445375Y0076009D01*
X0442449Y0076009D02*
X0442449Y0078935D01*
X0445375Y0078935D01*
X0445375Y0076009D01*
X0445375Y0076983D02*
X0442449Y0076983D01*
X0442449Y0077957D02*
X0445375Y0077957D01*
X0445375Y0078931D02*
X0442449Y0078931D01*
X0439375Y0076009D02*
X0436449Y0076009D01*
X0436449Y0078935D01*
X0439375Y0078935D01*
X0439375Y0076009D01*
X0439375Y0076983D02*
X0436449Y0076983D01*
X0436449Y0077957D02*
X0439375Y0077957D01*
X0439375Y0078931D02*
X0436449Y0078931D01*
X0494185Y0076077D02*
X0497111Y0076077D01*
X0494185Y0076077D02*
X0494185Y0079003D01*
X0497111Y0079003D01*
X0497111Y0076077D01*
X0497111Y0077051D02*
X0494185Y0077051D01*
X0494185Y0078025D02*
X0497111Y0078025D01*
X0497111Y0078999D02*
X0494185Y0078999D01*
X0494315Y0085941D02*
X0497241Y0085941D01*
X0497241Y0083015D01*
X0494315Y0083015D01*
X0494315Y0085941D01*
X0494315Y0083989D02*
X0497241Y0083989D01*
X0497241Y0084963D02*
X0494315Y0084963D01*
X0494315Y0085937D02*
X0497241Y0085937D01*
X0497209Y0091919D02*
X0494283Y0091919D01*
X0497209Y0091919D02*
X0497209Y0088993D01*
X0494283Y0088993D01*
X0494283Y0091919D01*
X0494283Y0089967D02*
X0497209Y0089967D01*
X0497209Y0090941D02*
X0494283Y0090941D01*
X0494283Y0091915D02*
X0497209Y0091915D01*
X0500283Y0091919D02*
X0503209Y0091919D01*
X0503209Y0088993D01*
X0500283Y0088993D01*
X0500283Y0091919D01*
X0500283Y0089967D02*
X0503209Y0089967D01*
X0503209Y0090941D02*
X0500283Y0090941D01*
X0500283Y0091915D02*
X0503209Y0091915D01*
X0503241Y0085941D02*
X0500315Y0085941D01*
X0503241Y0085941D02*
X0503241Y0083015D01*
X0500315Y0083015D01*
X0500315Y0085941D01*
X0500315Y0083989D02*
X0503241Y0083989D01*
X0503241Y0084963D02*
X0500315Y0084963D01*
X0500315Y0085937D02*
X0503241Y0085937D01*
X0503111Y0076077D02*
X0500185Y0076077D01*
X0500185Y0079003D01*
X0503111Y0079003D01*
X0503111Y0076077D01*
X0503111Y0077051D02*
X0500185Y0077051D01*
X0500185Y0078025D02*
X0503111Y0078025D01*
X0503111Y0078999D02*
X0500185Y0078999D01*
X0500185Y0070116D02*
X0503111Y0070116D01*
X0500185Y0070116D02*
X0500185Y0073042D01*
X0503111Y0073042D01*
X0503111Y0070116D01*
X0503111Y0071090D02*
X0500185Y0071090D01*
X0500185Y0072064D02*
X0503111Y0072064D01*
X0503111Y0073038D02*
X0500185Y0073038D01*
X0497111Y0070116D02*
X0494185Y0070116D01*
X0494185Y0073042D01*
X0497111Y0073042D01*
X0497111Y0070116D01*
X0497111Y0071090D02*
X0494185Y0071090D01*
X0494185Y0072064D02*
X0497111Y0072064D01*
X0497111Y0073038D02*
X0494185Y0073038D01*
X0518925Y0240956D02*
X0518925Y0243882D01*
X0521851Y0243882D01*
X0521851Y0240956D01*
X0518925Y0240956D01*
X0518925Y0241930D02*
X0521851Y0241930D01*
X0521851Y0242904D02*
X0518925Y0242904D01*
X0518925Y0243878D02*
X0521851Y0243878D01*
X0518925Y0246956D02*
X0518925Y0249882D01*
X0521851Y0249882D01*
X0521851Y0246956D01*
X0518925Y0246956D01*
X0518925Y0247930D02*
X0521851Y0247930D01*
X0521851Y0248904D02*
X0518925Y0248904D01*
X0518925Y0249878D02*
X0521851Y0249878D01*
X0524064Y0257251D02*
X0524064Y0260177D01*
X0524064Y0257251D02*
X0521138Y0257251D01*
X0521138Y0260177D01*
X0524064Y0260177D01*
X0524064Y0258225D02*
X0521138Y0258225D01*
X0521138Y0259199D02*
X0524064Y0259199D01*
X0524064Y0260173D02*
X0521138Y0260173D01*
X0524064Y0263251D02*
X0524064Y0266177D01*
X0524064Y0263251D02*
X0521138Y0263251D01*
X0521138Y0266177D01*
X0524064Y0266177D01*
X0524064Y0264225D02*
X0521138Y0264225D01*
X0521138Y0265199D02*
X0524064Y0265199D01*
X0524064Y0266173D02*
X0521138Y0266173D01*
X0516487Y0266177D02*
X0516487Y0263251D01*
X0513561Y0263251D01*
X0513561Y0266177D01*
X0516487Y0266177D01*
X0516487Y0264225D02*
X0513561Y0264225D01*
X0513561Y0265199D02*
X0516487Y0265199D01*
X0516487Y0266173D02*
X0513561Y0266173D01*
X0516487Y0260177D02*
X0516487Y0257251D01*
X0513561Y0257251D01*
X0513561Y0260177D01*
X0516487Y0260177D01*
X0516487Y0258225D02*
X0513561Y0258225D01*
X0513561Y0259199D02*
X0516487Y0259199D01*
X0516487Y0260173D02*
X0513561Y0260173D01*
X0434779Y0260177D02*
X0434779Y0257251D01*
X0431853Y0257251D01*
X0431853Y0260177D01*
X0434779Y0260177D01*
X0434779Y0258225D02*
X0431853Y0258225D01*
X0431853Y0259199D02*
X0434779Y0259199D01*
X0434779Y0260173D02*
X0431853Y0260173D01*
X0434779Y0263251D02*
X0434779Y0266177D01*
X0434779Y0263251D02*
X0431853Y0263251D01*
X0431853Y0266177D01*
X0434779Y0266177D01*
X0434779Y0264225D02*
X0431853Y0264225D01*
X0431853Y0265199D02*
X0434779Y0265199D01*
X0434779Y0266173D02*
X0431853Y0266173D01*
D22*
X0411739Y0245718D03*
X0411739Y0226821D03*
X0411739Y0218660D03*
X0411739Y0199763D03*
D23*
X0418431Y0201591D03*
X0418431Y0216832D03*
X0418431Y0228649D03*
X0418431Y0243891D03*
D24*
X0412526Y0239616D02*
X0412528Y0239690D01*
X0412534Y0239764D01*
X0412544Y0239837D01*
X0412558Y0239910D01*
X0412575Y0239982D01*
X0412597Y0240052D01*
X0412622Y0240122D01*
X0412651Y0240190D01*
X0412684Y0240256D01*
X0412720Y0240321D01*
X0412760Y0240383D01*
X0412802Y0240444D01*
X0412848Y0240502D01*
X0412897Y0240557D01*
X0412949Y0240610D01*
X0413004Y0240660D01*
X0413061Y0240706D01*
X0413121Y0240750D01*
X0413183Y0240790D01*
X0413247Y0240827D01*
X0413313Y0240861D01*
X0413381Y0240891D01*
X0413450Y0240917D01*
X0413521Y0240940D01*
X0413592Y0240958D01*
X0413665Y0240973D01*
X0413738Y0240984D01*
X0413812Y0240991D01*
X0413886Y0240994D01*
X0413959Y0240993D01*
X0414033Y0240988D01*
X0414107Y0240979D01*
X0414180Y0240966D01*
X0414252Y0240949D01*
X0414323Y0240929D01*
X0414393Y0240904D01*
X0414461Y0240876D01*
X0414528Y0240845D01*
X0414593Y0240809D01*
X0414656Y0240771D01*
X0414717Y0240729D01*
X0414776Y0240683D01*
X0414832Y0240635D01*
X0414885Y0240584D01*
X0414935Y0240530D01*
X0414983Y0240473D01*
X0415027Y0240414D01*
X0415069Y0240352D01*
X0415107Y0240289D01*
X0415141Y0240223D01*
X0415172Y0240156D01*
X0415199Y0240087D01*
X0415222Y0240017D01*
X0415242Y0239946D01*
X0415258Y0239873D01*
X0415270Y0239800D01*
X0415278Y0239727D01*
X0415282Y0239653D01*
X0415282Y0239579D01*
X0415278Y0239505D01*
X0415270Y0239432D01*
X0415258Y0239359D01*
X0415242Y0239286D01*
X0415222Y0239215D01*
X0415199Y0239145D01*
X0415172Y0239076D01*
X0415141Y0239009D01*
X0415107Y0238943D01*
X0415069Y0238880D01*
X0415027Y0238818D01*
X0414983Y0238759D01*
X0414935Y0238702D01*
X0414885Y0238648D01*
X0414832Y0238597D01*
X0414776Y0238549D01*
X0414717Y0238503D01*
X0414656Y0238461D01*
X0414593Y0238423D01*
X0414528Y0238387D01*
X0414461Y0238356D01*
X0414393Y0238328D01*
X0414323Y0238303D01*
X0414252Y0238283D01*
X0414180Y0238266D01*
X0414107Y0238253D01*
X0414033Y0238244D01*
X0413959Y0238239D01*
X0413886Y0238238D01*
X0413812Y0238241D01*
X0413738Y0238248D01*
X0413665Y0238259D01*
X0413592Y0238274D01*
X0413521Y0238292D01*
X0413450Y0238315D01*
X0413381Y0238341D01*
X0413313Y0238371D01*
X0413247Y0238405D01*
X0413183Y0238442D01*
X0413121Y0238482D01*
X0413061Y0238526D01*
X0413004Y0238572D01*
X0412949Y0238622D01*
X0412897Y0238675D01*
X0412848Y0238730D01*
X0412802Y0238788D01*
X0412760Y0238849D01*
X0412720Y0238911D01*
X0412684Y0238976D01*
X0412651Y0239042D01*
X0412622Y0239110D01*
X0412597Y0239180D01*
X0412575Y0239250D01*
X0412558Y0239322D01*
X0412544Y0239395D01*
X0412534Y0239468D01*
X0412528Y0239542D01*
X0412526Y0239616D01*
X0412526Y0232923D02*
X0412528Y0232997D01*
X0412534Y0233071D01*
X0412544Y0233144D01*
X0412558Y0233217D01*
X0412575Y0233289D01*
X0412597Y0233359D01*
X0412622Y0233429D01*
X0412651Y0233497D01*
X0412684Y0233563D01*
X0412720Y0233628D01*
X0412760Y0233690D01*
X0412802Y0233751D01*
X0412848Y0233809D01*
X0412897Y0233864D01*
X0412949Y0233917D01*
X0413004Y0233967D01*
X0413061Y0234013D01*
X0413121Y0234057D01*
X0413183Y0234097D01*
X0413247Y0234134D01*
X0413313Y0234168D01*
X0413381Y0234198D01*
X0413450Y0234224D01*
X0413521Y0234247D01*
X0413592Y0234265D01*
X0413665Y0234280D01*
X0413738Y0234291D01*
X0413812Y0234298D01*
X0413886Y0234301D01*
X0413959Y0234300D01*
X0414033Y0234295D01*
X0414107Y0234286D01*
X0414180Y0234273D01*
X0414252Y0234256D01*
X0414323Y0234236D01*
X0414393Y0234211D01*
X0414461Y0234183D01*
X0414528Y0234152D01*
X0414593Y0234116D01*
X0414656Y0234078D01*
X0414717Y0234036D01*
X0414776Y0233990D01*
X0414832Y0233942D01*
X0414885Y0233891D01*
X0414935Y0233837D01*
X0414983Y0233780D01*
X0415027Y0233721D01*
X0415069Y0233659D01*
X0415107Y0233596D01*
X0415141Y0233530D01*
X0415172Y0233463D01*
X0415199Y0233394D01*
X0415222Y0233324D01*
X0415242Y0233253D01*
X0415258Y0233180D01*
X0415270Y0233107D01*
X0415278Y0233034D01*
X0415282Y0232960D01*
X0415282Y0232886D01*
X0415278Y0232812D01*
X0415270Y0232739D01*
X0415258Y0232666D01*
X0415242Y0232593D01*
X0415222Y0232522D01*
X0415199Y0232452D01*
X0415172Y0232383D01*
X0415141Y0232316D01*
X0415107Y0232250D01*
X0415069Y0232187D01*
X0415027Y0232125D01*
X0414983Y0232066D01*
X0414935Y0232009D01*
X0414885Y0231955D01*
X0414832Y0231904D01*
X0414776Y0231856D01*
X0414717Y0231810D01*
X0414656Y0231768D01*
X0414593Y0231730D01*
X0414528Y0231694D01*
X0414461Y0231663D01*
X0414393Y0231635D01*
X0414323Y0231610D01*
X0414252Y0231590D01*
X0414180Y0231573D01*
X0414107Y0231560D01*
X0414033Y0231551D01*
X0413959Y0231546D01*
X0413886Y0231545D01*
X0413812Y0231548D01*
X0413738Y0231555D01*
X0413665Y0231566D01*
X0413592Y0231581D01*
X0413521Y0231599D01*
X0413450Y0231622D01*
X0413381Y0231648D01*
X0413313Y0231678D01*
X0413247Y0231712D01*
X0413183Y0231749D01*
X0413121Y0231789D01*
X0413061Y0231833D01*
X0413004Y0231879D01*
X0412949Y0231929D01*
X0412897Y0231982D01*
X0412848Y0232037D01*
X0412802Y0232095D01*
X0412760Y0232156D01*
X0412720Y0232218D01*
X0412684Y0232283D01*
X0412651Y0232349D01*
X0412622Y0232417D01*
X0412597Y0232487D01*
X0412575Y0232557D01*
X0412558Y0232629D01*
X0412544Y0232702D01*
X0412534Y0232775D01*
X0412528Y0232849D01*
X0412526Y0232923D01*
X0412526Y0212558D02*
X0412528Y0212632D01*
X0412534Y0212706D01*
X0412544Y0212779D01*
X0412558Y0212852D01*
X0412575Y0212924D01*
X0412597Y0212994D01*
X0412622Y0213064D01*
X0412651Y0213132D01*
X0412684Y0213198D01*
X0412720Y0213263D01*
X0412760Y0213325D01*
X0412802Y0213386D01*
X0412848Y0213444D01*
X0412897Y0213499D01*
X0412949Y0213552D01*
X0413004Y0213602D01*
X0413061Y0213648D01*
X0413121Y0213692D01*
X0413183Y0213732D01*
X0413247Y0213769D01*
X0413313Y0213803D01*
X0413381Y0213833D01*
X0413450Y0213859D01*
X0413521Y0213882D01*
X0413592Y0213900D01*
X0413665Y0213915D01*
X0413738Y0213926D01*
X0413812Y0213933D01*
X0413886Y0213936D01*
X0413959Y0213935D01*
X0414033Y0213930D01*
X0414107Y0213921D01*
X0414180Y0213908D01*
X0414252Y0213891D01*
X0414323Y0213871D01*
X0414393Y0213846D01*
X0414461Y0213818D01*
X0414528Y0213787D01*
X0414593Y0213751D01*
X0414656Y0213713D01*
X0414717Y0213671D01*
X0414776Y0213625D01*
X0414832Y0213577D01*
X0414885Y0213526D01*
X0414935Y0213472D01*
X0414983Y0213415D01*
X0415027Y0213356D01*
X0415069Y0213294D01*
X0415107Y0213231D01*
X0415141Y0213165D01*
X0415172Y0213098D01*
X0415199Y0213029D01*
X0415222Y0212959D01*
X0415242Y0212888D01*
X0415258Y0212815D01*
X0415270Y0212742D01*
X0415278Y0212669D01*
X0415282Y0212595D01*
X0415282Y0212521D01*
X0415278Y0212447D01*
X0415270Y0212374D01*
X0415258Y0212301D01*
X0415242Y0212228D01*
X0415222Y0212157D01*
X0415199Y0212087D01*
X0415172Y0212018D01*
X0415141Y0211951D01*
X0415107Y0211885D01*
X0415069Y0211822D01*
X0415027Y0211760D01*
X0414983Y0211701D01*
X0414935Y0211644D01*
X0414885Y0211590D01*
X0414832Y0211539D01*
X0414776Y0211491D01*
X0414717Y0211445D01*
X0414656Y0211403D01*
X0414593Y0211365D01*
X0414528Y0211329D01*
X0414461Y0211298D01*
X0414393Y0211270D01*
X0414323Y0211245D01*
X0414252Y0211225D01*
X0414180Y0211208D01*
X0414107Y0211195D01*
X0414033Y0211186D01*
X0413959Y0211181D01*
X0413886Y0211180D01*
X0413812Y0211183D01*
X0413738Y0211190D01*
X0413665Y0211201D01*
X0413592Y0211216D01*
X0413521Y0211234D01*
X0413450Y0211257D01*
X0413381Y0211283D01*
X0413313Y0211313D01*
X0413247Y0211347D01*
X0413183Y0211384D01*
X0413121Y0211424D01*
X0413061Y0211468D01*
X0413004Y0211514D01*
X0412949Y0211564D01*
X0412897Y0211617D01*
X0412848Y0211672D01*
X0412802Y0211730D01*
X0412760Y0211791D01*
X0412720Y0211853D01*
X0412684Y0211918D01*
X0412651Y0211984D01*
X0412622Y0212052D01*
X0412597Y0212122D01*
X0412575Y0212192D01*
X0412558Y0212264D01*
X0412544Y0212337D01*
X0412534Y0212410D01*
X0412528Y0212484D01*
X0412526Y0212558D01*
X0412526Y0205865D02*
X0412528Y0205939D01*
X0412534Y0206013D01*
X0412544Y0206086D01*
X0412558Y0206159D01*
X0412575Y0206231D01*
X0412597Y0206301D01*
X0412622Y0206371D01*
X0412651Y0206439D01*
X0412684Y0206505D01*
X0412720Y0206570D01*
X0412760Y0206632D01*
X0412802Y0206693D01*
X0412848Y0206751D01*
X0412897Y0206806D01*
X0412949Y0206859D01*
X0413004Y0206909D01*
X0413061Y0206955D01*
X0413121Y0206999D01*
X0413183Y0207039D01*
X0413247Y0207076D01*
X0413313Y0207110D01*
X0413381Y0207140D01*
X0413450Y0207166D01*
X0413521Y0207189D01*
X0413592Y0207207D01*
X0413665Y0207222D01*
X0413738Y0207233D01*
X0413812Y0207240D01*
X0413886Y0207243D01*
X0413959Y0207242D01*
X0414033Y0207237D01*
X0414107Y0207228D01*
X0414180Y0207215D01*
X0414252Y0207198D01*
X0414323Y0207178D01*
X0414393Y0207153D01*
X0414461Y0207125D01*
X0414528Y0207094D01*
X0414593Y0207058D01*
X0414656Y0207020D01*
X0414717Y0206978D01*
X0414776Y0206932D01*
X0414832Y0206884D01*
X0414885Y0206833D01*
X0414935Y0206779D01*
X0414983Y0206722D01*
X0415027Y0206663D01*
X0415069Y0206601D01*
X0415107Y0206538D01*
X0415141Y0206472D01*
X0415172Y0206405D01*
X0415199Y0206336D01*
X0415222Y0206266D01*
X0415242Y0206195D01*
X0415258Y0206122D01*
X0415270Y0206049D01*
X0415278Y0205976D01*
X0415282Y0205902D01*
X0415282Y0205828D01*
X0415278Y0205754D01*
X0415270Y0205681D01*
X0415258Y0205608D01*
X0415242Y0205535D01*
X0415222Y0205464D01*
X0415199Y0205394D01*
X0415172Y0205325D01*
X0415141Y0205258D01*
X0415107Y0205192D01*
X0415069Y0205129D01*
X0415027Y0205067D01*
X0414983Y0205008D01*
X0414935Y0204951D01*
X0414885Y0204897D01*
X0414832Y0204846D01*
X0414776Y0204798D01*
X0414717Y0204752D01*
X0414656Y0204710D01*
X0414593Y0204672D01*
X0414528Y0204636D01*
X0414461Y0204605D01*
X0414393Y0204577D01*
X0414323Y0204552D01*
X0414252Y0204532D01*
X0414180Y0204515D01*
X0414107Y0204502D01*
X0414033Y0204493D01*
X0413959Y0204488D01*
X0413886Y0204487D01*
X0413812Y0204490D01*
X0413738Y0204497D01*
X0413665Y0204508D01*
X0413592Y0204523D01*
X0413521Y0204541D01*
X0413450Y0204564D01*
X0413381Y0204590D01*
X0413313Y0204620D01*
X0413247Y0204654D01*
X0413183Y0204691D01*
X0413121Y0204731D01*
X0413061Y0204775D01*
X0413004Y0204821D01*
X0412949Y0204871D01*
X0412897Y0204924D01*
X0412848Y0204979D01*
X0412802Y0205037D01*
X0412760Y0205098D01*
X0412720Y0205160D01*
X0412684Y0205225D01*
X0412651Y0205291D01*
X0412622Y0205359D01*
X0412597Y0205429D01*
X0412575Y0205499D01*
X0412558Y0205571D01*
X0412544Y0205644D01*
X0412534Y0205717D01*
X0412528Y0205791D01*
X0412526Y0205865D01*
D25*
X0413904Y0205865D03*
X0413904Y0212558D03*
X0413904Y0232923D03*
X0413904Y0239616D03*
D26*
X0453106Y0090499D03*
X0458106Y0090499D03*
X0463106Y0090499D03*
X0468106Y0090499D03*
X0473106Y0090499D03*
X0478106Y0090499D03*
X0483106Y0090499D03*
X0488106Y0090499D03*
X0488106Y0070499D03*
X0483106Y0070499D03*
X0478106Y0070499D03*
X0473106Y0070499D03*
X0468106Y0070499D03*
X0463106Y0070499D03*
X0458106Y0070499D03*
X0453106Y0070499D03*
D27*
X0512940Y0072322D03*
X0519940Y0072322D03*
X0516440Y0064322D03*
X0519940Y0085813D03*
X0512940Y0085813D03*
X0516440Y0093813D03*
D28*
X0493536Y0060688D03*
X0488812Y0060688D03*
X0484088Y0060688D03*
D29*
X0523093Y0179449D02*
X0529093Y0179449D01*
X0529093Y0189449D02*
X0523093Y0189449D01*
X0523093Y0199449D02*
X0529093Y0199449D01*
X0529093Y0209449D02*
X0523093Y0209449D01*
X0523093Y0219449D02*
X0529093Y0219449D01*
D30*
X0458681Y0050850D03*
D31*
X0477782Y0050850D03*
D32*
X0453859Y0039038D03*
D33*
X0482605Y0039033D03*
D34*
X0473349Y0049571D03*
X0470790Y0049571D03*
X0468231Y0049571D03*
X0465672Y0049571D03*
X0463113Y0049571D03*
D35*
X0463704Y0039040D03*
X0472759Y0039040D03*
D36*
X0477778Y0050851D03*
X0458684Y0050851D03*
D37*
X0454402Y0041664D02*
X0454402Y0036416D01*
X0482060Y0036416D02*
X0482060Y0041664D01*
D38*
X0448243Y0058588D03*
X0439897Y0058588D03*
D39*
X0421860Y0106476D03*
X0421860Y0119862D03*
M02*
